<?xml version="1.0" encoding="UTF-8"?>
<svg version="1.1" xmlns="http://www.w3.org/2000/svg" width="150" height="150">
<path d="M0 0 C3.13827361 1.98543841 4.61320278 3.34732096 5.47265625 7.01953125 C5.90202625 13.3059484 3.66872529 18.00544824 0 23 C-1.26873677 24.14815435 -2.53960159 25.29396118 -3.8125 26.4375 C-8.24442537 31.157837 -7.58518545 36.55475264 -7.44458008 42.65405273 C-7.28688641 46.24969749 -6.95340416 49.51910197 -6 53 C-4.68 53 -3.36 53 -2 53 C-2 54.32 -2 55.64 -2 57 C-2.66 57.5775 -3.32 58.155 -4 58.75 C-6.58382341 61.65680134 -6.3963258 63.33590268 -6.20703125 67.09375 C-5.98546038 69.13387422 -5.64988388 71.05034836 -5 73 C-4.01 72.67 -3.02 72.34 -2 72 C-1.34 72.66 -0.68 73.32 0 74 C-0.125 75.875 -0.125 75.875 -1 78 C-1.67289062 78.48210937 -2.34578125 78.96421875 -3.0390625 79.4609375 C-6.17606821 83.52279748 -5.42212338 87.7782825 -5.25 92.75 C-5.23195313 93.73355469 -5.21390625 94.71710938 -5.1953125 95.73046875 C-5.14824126 98.15463783 -5.08250742 100.57682059 -5 103 C-10.3473622 104.01507 -15.76051131 104.89477961 -21 103 C-25.27538293 99.27123527 -27.41277921 93.61761474 -29.75537109 88.56835938 C-31.94851096 84.0426961 -34.56424568 79.76208317 -37.125 75.4375 C-38.06716638 73.81239175 -39.00745713 72.18619371 -39.9453125 70.55859375 C-40.34250488 69.87079834 -40.73969727 69.18300293 -41.14892578 68.47436523 C-41.42978027 67.98782471 -41.71063477 67.50128418 -42 67 C-45.49220421 69.98992347 -48.98154378 72.98283839 -52.45703125 75.9921875 C-53.57533994 76.95333551 -54.69382866 77.91427409 -55.8125 78.875 C-56.38419922 79.37257813 -56.95589844 79.87015625 -57.54492188 80.3828125 C-61.77325507 84 -61.77325507 84 -64 84 C-63.72212646 84.54938232 -63.44425293 85.09876465 -63.15795898 85.66479492 C-61.9033113 88.16539027 -60.67031518 90.67607412 -59.4375 93.1875 C-58.99986328 94.05181641 -58.56222656 94.91613281 -58.11132812 95.80664062 C-57.49741211 97.06831055 -57.49741211 97.06831055 -56.87109375 98.35546875 C-56.48880615 99.12528076 -56.10651855 99.89509277 -55.71264648 100.68823242 C-54.83992479 103.51927105 -55.15993635 105.18668801 -56 108 C-57.234375 109.8359375 -57.234375 109.8359375 -58.75 111.375 C-59.48476562 112.16003906 -59.48476562 112.16003906 -60.234375 112.9609375 C-62 114 -62 114 -64.27734375 114.07421875 C-68.35816838 112.4641373 -70.83495475 109.58765657 -73.8125 106.4375 C-74.7087207 105.51420898 -74.7087207 105.51420898 -75.62304688 104.57226562 C-77.0912621 103.05706751 -78.54689553 101.52969562 -80 100 C-80.5775 100.32355469 -81.155 100.64710937 -81.75 100.98046875 C-85.18741649 102.5380481 -88.29542325 102.46402296 -92 102 C-94.4375 101 -94.4375 101 -96 99 C-97.61754965 92.42196475 -97.2836496 91.56729919 -94 85 C-99.28 79.72 -104.56 74.44 -110 69 C-108.07972087 64.19930217 -107.00343633 62.09356444 -103 59 C-96.85999377 59.24307943 -91.97380853 62.45046146 -86.74609375 65.38085938 C-84.45453357 66.64325834 -84.45453357 66.64325834 -81 68 C-77.70784942 66.89734313 -75.96815853 65.08400581 -73.8359375 62.41015625 C-73.27132812 61.70826172 -72.70671875 61.00636719 -72.125 60.28320312 C-71.25875 59.18395508 -71.25875 59.18395508 -70.375 58.0625 C-69.78976563 57.33353516 -69.20453125 56.60457031 -68.6015625 55.85351562 C-66.28473575 52.95482528 -64.05993415 50.08990123 -62 47 C-63.72775392 45.98367417 -65.45552208 44.96737256 -67.18334961 43.95117188 C-68.69872022 43.05964223 -70.21385319 42.16770853 -71.72875977 41.27539062 C-75.76165133 38.90070151 -79.7983119 36.53294844 -83.84375 34.1796875 C-84.61404541 33.73028809 -85.38434082 33.28088867 -86.17797852 32.81787109 C-87.66400706 31.95114153 -89.1514389 31.08681271 -90.64038086 30.22509766 C-95.77513519 27.22486481 -95.77513519 27.22486481 -98 25 C-98.23046875 21.77734375 -98.23046875 21.77734375 -98.1875 17.9375 C-98.18105469 16.66777344 -98.17460938 15.39804687 -98.16796875 14.08984375 C-98 11 -98 11 -97 10 C-95.57942973 9.97381437 -94.15754946 10.01191839 -92.73828125 10.078125 C-91.43020508 10.11679687 -91.43020508 10.11679687 -90.09570312 10.15625 C-88.25914575 10.21811299 -86.4230469 10.29590726 -84.58789062 10.390625 C-80.035201 10.49751133 -77.03832863 10.5493331 -73.50390625 7.47265625 C-72.67761719 6.65667969 -71.85132813 5.84070313 -71 5 C-68.625 5.1875 -68.625 5.1875 -67 6 C-67.33 7.32 -67.66 8.64 -68 10 C-63.9802398 10.64752118 -60.07579693 11.15450733 -56 11 C-52.99666733 8.66663334 -52.99666733 8.66663334 -51 6 C-48.6875 6.1875 -48.6875 6.1875 -47 7 C-47.33 8.32 -47.66 9.64 -48 11 C-35.30639412 13.45021214 -35.30639412 13.45021214 -23.23828125 10.35546875 C-21.76020283 8.96509481 -20.32433873 7.52827091 -18.9375 6.046875 C-13.91786632 0.7438749 -7.19831795 -1.53272169 0 0 Z M-26.81616211 20.54150391 C-27.60135727 21.31716705 -28.38655243 22.0928302 -29.19554138 22.89199829 C-30.47353355 24.17135757 -30.47353355 24.17135757 -31.77734375 25.4765625 C-32.65846329 26.35339691 -33.53958282 27.23023132 -34.44740295 28.13363647 C-36.32212182 30.00259379 -38.19452284 31.87359523 -40.0637207 33.74804688 C-42.88374019 36.57488667 -45.72047295 39.38467356 -48.55664062 42.1953125 C-58.05370289 51.66053611 -67.14972003 61.10878642 -75 72 C-74.5781543 72.53689453 -74.15630859 73.07378906 -73.72167969 73.62695312 C-72.71549479 74.90755208 -71.7093099 76.18815104 -70.703125 77.46875 C-68.88595704 79.44572515 -68.88595704 79.44572515 -65 79 C-62.78093435 77.37679457 -60.78795392 75.76326556 -58.75 73.9375 C-58.16863281 73.42944824 -57.58726563 72.92139648 -56.98828125 72.39794922 C-55.83315385 71.38721274 -54.68136228 70.37264913 -53.53320312 69.35400391 C-52.31229372 68.27579315 -51.07318052 67.21820443 -49.828125 66.16796875 C-41.21268077 58.89638655 -33.18239652 50.71764437 -25.8984375 42.12109375 C-21.49509621 37.2013112 -16.70179183 32.63230722 -12 28 C-13.39750048 24.84164893 -15.05198234 22.67727175 -17.5 20.25 C-18.1084375 19.63640625 -18.716875 19.0228125 -19.34375 18.390625 C-22.71875576 15.55689375 -24.15407532 17.89717381 -26.81616211 20.54150391 Z " fill="#173A7F" transform="translate(127,18)"/>
<path d="M0 0 C10.35520257 -0.12940409 20.62702839 0.19142721 30.96313477 0.79956055 C33.32738237 0.9383738 35.69194432 1.07024684 38.05664062 1.20117188 C45.72458229 1.63413903 53.36484582 2.14994773 61 3 C58.70681405 8.43363133 54.24115949 12.20630131 50.15161133 16.32885742 C48.68839556 17.81159249 47.24785986 19.31427558 45.80664062 20.81835938 C44.88431641 21.75099609 43.96199219 22.68363281 43.01171875 23.64453125 C42.17084717 24.50409424 41.32997559 25.36365723 40.46362305 26.24926758 C38 28 38 28 35.54150391 27.95874023 C32.63251598 26.86137274 30.03116326 25.54857871 27.32421875 24.015625 C26.24849609 23.40976562 25.17277344 22.80390625 24.06445312 22.1796875 C22.95005859 21.54289062 21.83566406 20.90609375 20.6875 20.25 C19.58470703 19.62867187 18.48191406 19.00734375 17.34570312 18.3671875 C14.21888833 16.59750366 11.10896738 14.80078998 8 13 C7.1558252 12.53247314 6.31165039 12.06494629 5.44189453 11.58325195 C3.23828125 10.31640625 3.23828125 10.31640625 0 8 C-0.68734759 5.05734735 -0.41426834 3.05522904 0 0 Z " fill="#CCD5F7" transform="translate(34,33)"/>
<path d="M0 0 C0.66 0 1.32 0 2 0 C3.75860389 20.33017771 4.54510761 40.60565765 5 61 C0.01267252 61.85988405 0.01267252 61.85988405 -3 61 C-5.66528578 58.05146674 -7.22232002 54.53149085 -9 51 C-10.22820098 48.89176516 -11.46822796 46.79038444 -12.71875 44.6953125 C-13.98089242 42.50620242 -15.24129099 40.31608605 -16.5 38.125 C-17.15742187 37.01125 -17.81484375 35.8975 -18.4921875 34.75 C-19.10320312 33.68007812 -19.71421875 32.61015625 -20.34375 31.5078125 C-20.90255859 30.54504395 -21.46136719 29.58227539 -22.03710938 28.59033203 C-23 26 -23 26 -22.44946289 23.94921875 C-20.63337065 21.50696164 -18.64027024 19.43549971 -16.46484375 17.3046875 C-15.57345703 16.42425781 -14.68207031 15.54382813 -13.76367188 14.63671875 C-12.83103516 13.72535156 -11.89839844 12.81398438 -10.9375 11.875 C-9.09027833 10.06210385 -7.24511579 8.24710642 -5.40234375 6.4296875 C-4.17245728 5.22675049 -4.17245728 5.22675049 -2.91772461 3.99951172 C-0.9485366 2.14403639 -0.9485366 2.14403639 0 0 Z " fill="#CED7F8" transform="translate(112,55)"/>
<path d="M0 0 C10.62058707 1.35626357 22.66255634 9.15521543 29.7734375 16.828125 C34.55318237 23.63716506 37.7822783 31.35702826 41 39 C39.68 40.32 38.36 41.64 37 43 C24.13 30.13 11.26 17.26 -2 4 C-1.34 2.68 -0.68 1.36 0 0 Z " fill="#64C6CE" transform="translate(26,83)"/>
<path d="M0 0 C2 2 2 2 2.4375 4.625 C1.47944716 12.01569337 -4.13603356 17.65130838 -9 23 C-9.680625 22.29875 -10.36125 21.5975 -11.0625 20.875 C-14.20780513 17.72065663 -17.5888386 14.86065696 -21 12 C-15.56708571 4.85901038 -9.63022635 -1.34823169 0 0 Z " fill="#65C6CE" transform="translate(125,23)"/>
<path d="M0 0 C2.88575819 0.39803561 3.82189513 0.79009069 5.75 3.0625 C6.1625 3.701875 6.575 4.34125 7 5 C5 7 5 7 2.375 7.125 C1.59125 7.08375 0.8075 7.0425 0 7 C-1.125 2.25 -1.125 2.25 0 0 Z " fill="#8BA9E6" transform="translate(36,108)"/>
<path d="M0 0 C2.1640625 0.3671875 2.1640625 0.3671875 4 1 C2.73113036 2.12721436 1.45982438 3.25168658 0.1875 4.375 C-0.52019531 5.00148438 -1.22789063 5.62796875 -1.95703125 6.2734375 C-4 8 -4 8 -7 10 C-5.61166236 5.58256205 -3.60286648 2.9166062 0 0 Z " fill="#3E5A94" transform="translate(24,77)"/>
</svg>
