<?xml version="1.0" encoding="UTF-8"?>
<svg version="1.1" xmlns="http://www.w3.org/2000/svg" width="150" height="150">
<path d="M0 0 C3.45560849 2.49980189 4.74516465 4.07167122 5.875 8.1875 C6 11 6 11 5 13 C21.5 13 38 13 55 13 C54.505 10.03 54.505 10.03 54 7 C57.01298701 1.49350649 57.01298701 1.49350649 60 0 C63.01000075 -0.34540992 65.09473365 -0.57882701 68 0 C71.71860793 3.24389203 72.83595743 4.66422482 73.4375 9.5625 C74.22370198 14.36706768 76.14605412 15.18983113 80 18 C81.53729329 21.07458658 81.11508953 24.30334111 81.10546875 27.67578125 C81.1189269 29.24155022 81.13395043 30.80730638 81.15039062 32.37304688 C81.17320968 34.8421663 81.18751342 37.30984184 81.17504883 39.77905273 C81.16621738 42.16234938 81.19516284 44.54278124 81.23046875 46.92578125 C81.21823776 47.65928299 81.20600677 48.39278473 81.19340515 49.14851379 C81.26137474 52.0349278 81.40066224 54.31647107 83.35171509 56.54159546 C84.84585845 57.76520284 86.42040283 58.88889597 88 60 C90.25215426 64.50430853 89.18584447 70.69856211 89.18530273 75.71289062 C89.18749143 77.99107477 89.20565804 80.26877643 89.22460938 82.546875 C89.22754293 83.98958167 89.22952798 85.43229065 89.23046875 86.875 C89.23457764 88.19242187 89.23868652 89.50984375 89.24291992 90.8671875 C89 94 89 94 87 96 C84.375 96.125 84.375 96.125 82 96 C82.01160156 96.78246094 82.02320312 97.56492187 82.03515625 98.37109375 C82.04417969 99.38300781 82.05320312 100.39492187 82.0625 101.4375 C82.07410156 102.44683594 82.08570312 103.45617187 82.09765625 104.49609375 C82 107 82 107 81 108 C76.48563597 108.83300765 72.50194823 108.93031634 68 108 C65.82116699 105.5718689 65.82116699 105.5718689 63.90429688 102.54443359 C60.65752229 98.29349298 60.65752229 98.29349298 55.99438477 95.94415283 C52.46650012 95.5500054 49.08058755 95.47406246 45.53125 95.5390625 C44.25576294 95.52853851 42.98027588 95.51801453 41.6661377 95.50717163 C38.97581611 95.49970286 36.29662595 95.51415701 33.60791016 95.56591797 C30.18560006 95.62863979 26.77276998 95.59249769 23.35080719 95.52662086 C20.05646265 95.47699716 16.76321924 95.51187998 13.46875 95.5390625 C12.25288208 95.51679596 11.03701416 95.49452942 9.78430176 95.47158813 C4.52881203 95.62984116 1.28151851 95.75067665 -2.58740234 99.5223999 C-4.92401468 102.48629654 -4.92401468 102.48629654 -6.81506348 105.57797241 C-9 108 -9 108 -12.57434082 108.70327759 C-15.78376556 108.68876077 -18.82916569 108.48518176 -22 108 C-23.26237731 105.47524538 -23.09856404 103.68799534 -23.0625 100.875 C-23.05347656 99.96492188 -23.04445313 99.05484375 -23.03515625 98.1171875 C-23.02355469 97.41851562 -23.01195312 96.71984375 -23 96 C-23.804375 95.855625 -24.60875 95.71125 -25.4375 95.5625 C-28 95 -28 95 -29 94 C-29.29153598 89.53211883 -29.31412107 85.05844349 -29.35009766 80.58227539 C-29.36660274 79.07788565 -29.39382105 77.57357257 -29.43212891 76.06958008 C-29.48719879 73.89623501 -29.50881918 71.72473226 -29.5234375 69.55078125 C-29.54325684 68.24794189 -29.56307617 66.94510254 -29.58349609 65.6027832 C-28.82105004 60.8950776 -27.33799086 59.33579027 -24 56 C-23.01 55.505 -23.01 55.505 -22 55 C-21.99589111 53.97116699 -21.99178223 52.94233398 -21.98754883 51.88232422 C-21.96569212 48.0463731 -21.91133647 44.21143824 -21.84741211 40.37597656 C-21.82428871 38.71950051 -21.80984968 37.06287862 -21.80444336 35.40625 C-21.79511157 33.01731079 -21.75403536 30.63064721 -21.70703125 28.2421875 C-21.71293022 27.14026566 -21.71293022 27.14026566 -21.71894836 26.01608276 C-21.55737828 20.25613603 -19.94875009 17.89757435 -16 14 C-15.34 13.67 -14.68 13.34 -14 13 C-13.4605186 11.01099415 -13.4605186 11.01099415 -13.125 8.6875 C-12.50694373 5.74705049 -12.00511857 4.00807159 -10.375 1.4375 C-6.95341766 -0.63345773 -3.82560298 -0.87290544 0 0 Z M-3 42 C-3 45.96 -3 49.92 -3 54 C4.92 54 12.84 54 21 54 C21.061875 51.916875 21.12375 49.83375 21.1875 47.6875 C21.22230469 46.51574219 21.25710937 45.34398437 21.29296875 44.13671875 C21.20944395 41.11200057 21.20944395 41.11200057 20.015625 39.109375 C16.70606742 37.28783556 13.2412633 37.52852318 9.5625 37.5625 C8.79873047 37.54251953 8.03496094 37.52253906 7.24804688 37.50195312 C6.13719727 37.50291992 6.13719727 37.50291992 5.00390625 37.50390625 C4.33174072 37.50205322 3.6595752 37.5002002 2.96704102 37.49829102 C0.325678 37.99377133 0.325678 37.99377133 -3 42 Z M39.984375 39.109375 C38.48581175 41.98756792 38.71703907 44.47364863 38.8125 47.6875 C38.874375 49.770625 38.93625 51.85375 39 54 C46.92 54 54.84 54 63 54 C63 50.04 63 46.08 63 42 C59.674322 37.99377133 59.674322 37.99377133 57.03295898 37.49829102 C56.36079346 37.50014404 55.68862793 37.50199707 54.99609375 37.50390625 C54.25552734 37.50326172 53.51496094 37.50261719 52.75195312 37.50195312 C51.98818359 37.52193359 51.22441406 37.54191406 50.4375 37.5625 C49.28604492 37.55186523 49.28604492 37.55186523 48.11132812 37.54101562 C45.11693809 37.57495379 42.64170215 37.6468151 39.984375 39.109375 Z " fill="#14357B" transform="translate(45,21)"/>
<path d="M0 0 C0.83442627 -0.00525696 1.66885254 -0.01051392 2.52856445 -0.01593018 C5.29006605 -0.02914689 8.05099242 -0.02038627 10.8125 -0.01025391 C12.72916779 -0.01227416 14.64583484 -0.0151852 16.5625 -0.01895142 C20.58080356 -0.02337703 24.59890716 -0.01693606 28.6171875 -0.00292969 C33.77246008 0.01416231 38.92726414 0.0043224 44.08251953 -0.01364708 C48.04072613 -0.02447849 51.99882133 -0.02104153 55.95703125 -0.0132637 C57.85807348 -0.01125992 59.75912576 -0.01372721 61.66015625 -0.02070236 C64.3153774 -0.02830628 66.96983578 -0.01672777 69.625 0 C70.41366455 -0.00607269 71.2023291 -0.01214539 72.01489258 -0.0184021 C77.28757403 0.04325639 77.28757403 0.04325639 79.80293274 1.6960907 C81.54248694 4.61168377 81.17546592 7.82659987 81.10546875 11.11865234 C81.10122391 11.86907303 81.09697906 12.61949371 81.09260559 13.39265442 C81.0758245 15.78736385 81.0381749 18.18122893 81 20.57568359 C80.98495235 22.20002039 80.97126409 23.82437039 80.95898438 25.44873047 C80.92592305 29.42887307 80.87414594 33.40838522 80.8125 37.38818359 C78.1725 37.38818359 75.5325 37.38818359 72.8125 37.38818359 C72.79832031 36.36337891 72.78414063 35.33857422 72.76953125 34.28271484 C72.72260984 32.92199388 72.67436256 31.56131819 72.625 30.20068359 C72.61919922 29.52714844 72.61339844 28.85361328 72.60742188 28.15966797 C72.4330611 24.18811704 71.93059094 22.52703778 69.32421875 19.46240234 C68.49535156 18.77791016 67.66648437 18.09341797 66.8125 17.38818359 C66.4825 17.05818359 66.1525 16.72818359 65.8125 16.38818359 C62.57181121 16.08146044 59.3159183 16.1097627 56.0625 16.07568359 C55.155 16.04667969 54.2475 16.01767578 53.3125 15.98779297 C48.96563273 15.94648502 46.50700517 15.960728 42.734375 18.28271484 C39.40177896 21.93366863 39.51679612 25.27208539 39.25 30.01318359 C39.18522461 31.07279297 39.18522461 31.07279297 39.11914062 32.15380859 C39.01305249 33.89836896 38.91227111 35.64325056 38.8125 37.38818359 C36.1725 37.38818359 33.5325 37.38818359 30.8125 37.38818359 C30.78671875 36.36337891 30.7609375 35.33857422 30.734375 34.28271484 C30.67806942 32.9219966 30.62072263 31.56132116 30.5625 30.20068359 C30.54832031 29.52714844 30.53414062 28.85361328 30.51953125 28.15966797 C30.28442966 23.34008544 29.27843807 20.74660168 25.8125 17.38818359 C21.67595828 16.00933635 17.77166089 16.08476883 13.4375 16.01318359 C12.58671875 15.97580078 11.7359375 15.93841797 10.859375 15.89990234 C6.32527014 15.83634013 4.4451187 15.88891896 0.7734375 18.78662109 C-2.28882867 22.84930888 -2.42698413 25.43721994 -2.75 30.51318359 C-2.83378906 31.79451172 -2.91757812 33.07583984 -3.00390625 34.39599609 C-3.06449219 35.38341797 -3.12507813 36.37083984 -3.1875 37.38818359 C-5.8275 37.38818359 -8.4675 37.38818359 -11.1875 37.38818359 C-11.26165168 32.60102736 -11.31610204 27.81420532 -11.35229492 23.02661133 C-11.36738243 21.39797137 -11.38785506 19.76937203 -11.41381836 18.14086914 C-11.45020449 15.80002824 -11.4672262 13.45972441 -11.48046875 11.11865234 C-11.49595261 10.3904277 -11.51143646 9.66220306 -11.52738953 8.91191101 C-11.52903826 3.96062139 -11.52903826 3.96062139 -10.17793274 1.6960907 C-7.01675939 -0.38110638 -3.65966581 -0.02817931 0 0 Z " fill="#F8DCBC" transform="translate(40.1875,38.61181640625)"/>
<path d="M0 0 C35.64 0 71.28 0 108 0 C108 4.62 108 9.24 108 14 C72.36 14 36.72 14 0 14 C0 9.38 0 4.76 0 0 Z " fill="#F96050" transform="translate(21,98)"/>
<path d="M0 0 C1.42282288 -0.01051392 1.42282288 -0.01051392 2.87438965 -0.02124023 C6.00510056 -0.03882352 9.13490514 -0.02719598 12.265625 -0.01367188 C14.44368666 -0.01636668 16.62174715 -0.02024901 18.79980469 -0.02526855 C23.36274682 -0.03116407 27.92537557 -0.02259867 32.48828125 -0.00390625 C38.33617091 0.01888302 44.18332625 0.00576027 50.03118896 -0.01819611 C54.5282138 -0.03265245 59.02506464 -0.02804878 63.52209473 -0.01768494 C65.67826423 -0.01501721 67.83444955 -0.01828899 69.99060059 -0.02760315 C73.00457587 -0.03776574 76.01736316 -0.02227105 79.03125 0 C79.92179077 -0.00809692 80.81233154 -0.01619385 81.7298584 -0.02453613 C85.54031553 0.02760834 88.10569665 0.3310426 91.60839844 1.92492676 C93.515625 4.51757812 93.515625 4.51757812 93.515625 14.51757812 C57.875625 14.51757812 22.235625 14.51757812 -14.484375 14.51757812 C-14.484375 4.51757812 -14.484375 4.51757812 -12.57714844 1.92492676 C-8.29865906 -0.02197504 -4.65267924 -0.04230282 0 0 Z " fill="#D1DBFB" transform="translate(35.484375,79.482421875)"/>
<path d="M0 0 C35.64 0 71.28 0 108 0 C108 0.33 108 0.66 108 1 C73.35 1.495 73.35 1.495 38 2 C48.08875898 10.6475077 52.00397437 12.59601213 64.93359375 12.609375 C66.78320457 12.63417938 66.78320457 12.63417938 68.67018127 12.65948486 C72.59267181 12.7079101 76.51477474 12.72932498 80.4375 12.75 C83.10357405 12.77597377 85.76953021 12.80809182 88.43554688 12.83984375 C94.95696102 12.91366805 101.4782664 12.96534277 108 13 C108 13.33 108 13.66 108 14 C72.36 14 36.72 14 0 14 C0 9.38 0 4.76 0 0 Z " fill="#C9497E" transform="translate(21,98)"/>
<path d="M0 0 C0.95658005 -0.00058411 1.9131601 -0.00116821 2.89872742 -0.00177002 C6.05354376 0.00101175 9.2074097 0.03210885 12.36206055 0.06347656 C14.55209334 0.0709386 16.74213282 0.07663171 18.93217468 0.08062744 C24.69119765 0.09588657 30.44981592 0.13517126 36.2086792 0.17944336 C42.08722459 0.22038976 47.96583548 0.23863714 53.84448242 0.25878906 C65.37525901 0.30166485 76.90573547 0.36991994 88.4362793 0.45410156 C88.4362793 0.78410156 88.4362793 1.11410156 88.4362793 1.45410156 C62.6962793 1.45410156 36.9562793 1.45410156 10.4362793 1.45410156 C12.89353725 7.3452879 12.89353725 7.3452879 16.4362793 12.45410156 C18.80829477 12.5789711 21.15268272 12.64010208 23.52636719 12.65942383 C24.63849327 12.67427322 24.63849327 12.67427322 25.77308655 12.68942261 C28.23500322 12.72112622 30.69693923 12.74582983 33.15893555 12.77050781 C34.86145035 12.79106971 36.56395995 12.81206596 38.26646423 12.83348083 C42.75615239 12.88878056 47.24588721 12.93815485 51.73565674 12.98632812 C56.31364108 13.03648563 60.89155732 13.09220164 65.46948242 13.14746094 C74.45835659 13.25513907 83.44728979 13.35656245 92.4362793 13.45410156 C92.4362793 10.48410156 92.4362793 7.51410156 92.4362793 4.45410156 C92.7662793 4.45410156 93.0962793 4.45410156 93.4362793 4.45410156 C93.4362793 7.75410156 93.4362793 11.05410156 93.4362793 14.45410156 C57.7962793 14.45410156 22.1562793 14.45410156 -14.5637207 14.45410156 C-14.5637207 4.45410156 -14.5637207 4.45410156 -12.66145325 1.85748291 C-8.35170851 -0.09498242 -4.68144296 -0.07493835 0 0 Z " fill="#8CA4DE" transform="translate(35.563720703125,79.5458984375)"/>
<path d="M0 0 C0.99386719 0.02707031 1.98773438 0.05414063 3.01171875 0.08203125 C4.15060547 0.13423828 4.15060547 0.13423828 5.3125 0.1875 C5.05671622 3.08537973 4.78349197 5.97981034 4.5 8.875 C4.42974609 9.69162109 4.35949219 10.50824219 4.28710938 11.34960938 C3.79904701 16.17166556 2.88327654 19.03049964 0.3125 23.1875 C-0.26083611 26.76224155 -0.26083611 26.76224155 -0.375 30.5 C-0.44074219 31.75425781 -0.50648437 33.00851563 -0.57421875 34.30078125 C-0.61160156 35.25339844 -0.64898437 36.20601562 -0.6875 37.1875 C-3.3275 37.1875 -5.9675 37.1875 -8.6875 37.1875 C-8.76165168 32.40034377 -8.81610204 27.61352173 -8.85229492 22.82592773 C-8.86738243 21.19728777 -8.88785506 19.56868844 -8.91381836 17.94018555 C-8.95020449 15.59934465 -8.9672262 13.25904081 -8.98046875 10.91796875 C-8.99595261 10.18974411 -9.01143646 9.46151947 -9.02738953 8.71122742 C-9.02906329 3.6847687 -9.02906329 3.6847687 -7.33789062 1.22265625 C-4.87868126 -0.31980643 -2.86582514 -0.10114677 0 0 Z " fill="#F3AD73" transform="translate(37.6875,38.8125)"/>
<path d="M0 0 C3.96 0 7.92 0 12 0 C12 2.64 12 5.28 12 8 C8.9361192 8.43769726 6.83395091 8.60855877 4.265625 6.734375 C2.71528294 5.21356327 1.28159145 3.75423511 0 2 C0 1.34 0 0.68 0 0 Z " fill="#B998F0" transform="translate(110,116)"/>
<path d="M0 0 C3.63 0 7.26 0 11 0 C8 6 8 6 6 8 C2.8125 8.25 2.8125 8.25 0 8 C0 5.36 0 2.72 0 0 Z " fill="#6361F0" transform="translate(28,116)"/>
<path d="M0 0 C2.5625 0.1875 2.5625 0.1875 4.5625 2.1875 C4.1875 5.3125 4.1875 5.3125 3.5625 8.1875 C1.56295254 8.23004356 -0.43791636 8.22830783 -2.4375 8.1875 C-3.4375 7.1875 -3.4375 7.1875 -3.5625 4.1875 C-3.39891479 0.26145498 -3.39891479 0.26145498 0 0 Z " fill="#B396EC" transform="translate(108.4375,25.8125)"/>
<path d="M0 0 C2.4375 0.1875 2.4375 0.1875 3.4375 1.1875 C3.5625 4.1875 3.5625 4.1875 3.4375 7.1875 C2.4375 8.1875 2.4375 8.1875 -0.625 8.25 C-1.594375 8.229375 -2.56375 8.20875 -3.5625 8.1875 C-4.1875 5.3125 -4.1875 5.3125 -4.5625 2.1875 C-2.5625 0.1875 -2.5625 0.1875 0 0 Z " fill="#6260EE" transform="translate(41.5625,25.8125)"/>
<path d="M0 0 C3.96 0 7.92 0 12 0 C12 2.64 12 5.28 12 8 C11.67 8 11.34 8 11 8 C11 5.69 11 3.38 11 1 C9.741875 1.165 8.48375 1.33 7.1875 1.5 C4.73543415 1.82158241 2.48349306 2 0 2 C0 1.34 0 0.68 0 0 Z " fill="#927CD3" transform="translate(110,116)"/>
<path d="M0 0 C1.8871875 0.061875 1.8871875 0.061875 3.8125 0.125 C3.8125 0.455 3.8125 0.785 3.8125 1.125 C2.265625 1.2178125 2.265625 1.2178125 0.6875 1.3125 C-4.07212827 2.31048657 -5.72342963 3.82990867 -9.1875 7.125 C-7.4328046 1.99589037 -5.59164481 -0.18333262 0 0 Z " fill="#36538F" transform="translate(109.1875,20.875)"/>
</svg>
