<?xml version="1.0" encoding="UTF-8"?>
<svg version="1.1" xmlns="http://www.w3.org/2000/svg" width="150" height="150">
<path d="M0 0 C1.07847198 -0.00960754 2.15694397 -0.01921509 3.26809692 -0.02911377 C4.44403412 -0.03336365 5.61997131 -0.03761353 6.83154297 -0.04199219 C8.03430878 -0.04769226 9.23707458 -0.05339233 10.47628784 -0.05926514 C13.03024409 -0.06873549 15.58421268 -0.07525715 18.13818359 -0.07910156 C22.03618976 -0.08877403 25.93366146 -0.11976541 29.83154297 -0.15136719 C32.3107065 -0.15790021 34.78987381 -0.16314951 37.26904297 -0.16699219 C38.43283478 -0.17933899 39.59662659 -0.19168579 40.79568481 -0.20440674 C48.43207616 -0.18352294 53.51290788 0.44443588 59.63623047 5.28613281 C62.69091781 9.08385221 65.94873047 14.12100122 65.94873047 19.16113281 C66.83431641 19.14953125 67.71990234 19.13792969 68.63232422 19.12597656 C75.8278796 19.07356357 83.00953155 19.15154304 90.19873047 19.47363281 C90.92503662 19.49611084 91.65134277 19.51858887 92.3996582 19.54174805 C95.24596412 19.69017195 97.42074998 19.8069459 99.82373047 21.41894531 C103.60338332 27.27215771 104.56679911 34.09144429 103.59326172 40.89550781 C102.33901862 45.30436235 99.75235147 47.83847741 96.07373047 50.53613281 C93.0105296 51.43707425 90.11814238 51.28303327 86.94873047 51.16113281 C86.72185547 51.90363281 86.49498047 52.64613281 86.26123047 53.41113281 C84.64913092 56.78886521 83.09687029 58.15777111 79.94873047 60.16113281 C76.01948003 61.44241013 74.23061686 61.25190979 70.26123047 59.97363281 C67.11719649 58.25331233 65.60762544 57.28375864 63.94873047 54.16113281 C63.94873047 53.17113281 63.94873047 52.18113281 63.94873047 51.16113281 C52.06873047 51.16113281 40.18873047 51.16113281 27.94873047 51.16113281 C27.61873047 52.48113281 27.28873047 53.80113281 26.94873047 55.16113281 C24.30586718 58.50357756 22.63027587 59.96286506 18.51123047 61.16113281 C14.34862097 61.16113281 12.39830553 60.46084952 8.94873047 58.16113281 C4.94873047 53.84534334 4.94873047 53.84534334 4.94873047 51.16113281 C4.21267578 51.20753906 3.47662109 51.25394531 2.71826172 51.30175781 C-5.29761904 51.5982501 -5.29761904 51.5982501 -9.17626953 49.34863281 C-14.58367812 43.03998946 -12.66467718 31.17982666 -12.34716797 23.36376953 C-11.57448141 15.0006488 -9.7489608 0.069795 0 0 Z M23.94873047 7.16113281 C23.87628994 9.1807748 23.86495859 11.20280405 23.88623047 13.22363281 C23.89525391 14.32835937 23.90427734 15.43308594 23.91357422 16.57128906 C23.92517578 17.4259375 23.93677734 18.28058594 23.94873047 19.16113281 C27.57873047 19.16113281 31.20873047 19.16113281 34.94873047 19.16113281 C34.47384149 17.18093539 33.99370188 15.20199646 33.51123047 13.22363281 C33.24439453 12.12148438 32.97755859 11.01933594 32.70263672 9.88378906 C32.21877322 7.26692028 32.21877322 7.26692028 30.94873047 6.16113281 C27.14632672 5.68377228 27.14632672 5.68377228 23.94873047 7.16113281 Z M36.94873047 6.16113281 C37.42361944 8.14133024 37.90375905 10.12026916 38.38623047 12.09863281 C38.65306641 13.20078125 38.91990234 14.30292969 39.19482422 15.43847656 C39.67868772 18.05534535 39.67868772 18.05534535 40.94873047 19.16113281 C42.3644317 19.24764892 43.78432547 19.26818185 45.20263672 19.25878906 C46.05664062 19.25556641 46.91064453 19.25234375 47.79052734 19.24902344 C49.13727539 19.23645508 49.13727539 19.23645508 50.51123047 19.22363281 C51.41292969 19.21912109 52.31462891 19.21460938 53.24365234 19.20996094 C55.47874361 19.19813506 57.71370484 19.18165501 59.94873047 19.16113281 C58.79171461 14.75882857 57.75882805 11.09929199 54.74951172 7.61425781 C51.15759153 5.75066742 48.07536345 5.71511854 44.13623047 5.91113281 C43.44335938 5.92917969 42.75048828 5.94722656 42.03662109 5.96582031 C40.34005383 6.01262217 38.64420571 6.08435658 36.94873047 6.16113281 Z M-6.05126953 32.16113281 C-6.05126953 33.48113281 -6.05126953 34.80113281 -6.05126953 36.16113281 C-4.07126953 36.16113281 -2.09126953 36.16113281 -0.05126953 36.16113281 C-0.05126953 34.84113281 -0.05126953 33.52113281 -0.05126953 32.16113281 C-2.03126953 32.16113281 -4.01126953 32.16113281 -6.05126953 32.16113281 Z M92.94873047 32.16113281 C92.94873047 33.48113281 92.94873047 34.80113281 92.94873047 36.16113281 C94.59873047 36.16113281 96.24873047 36.16113281 97.94873047 36.16113281 C97.94873047 34.84113281 97.94873047 33.52113281 97.94873047 32.16113281 C96.29873047 32.16113281 94.64873047 32.16113281 92.94873047 32.16113281 Z " fill="#113577" transform="translate(29.05126953125,46.8388671875)"/>
<path d="M0 0 C5.28 0 10.56 0 16 0 C16.33 1.98 16.66 3.96 17 6 C17.99 6.33 18.98 6.66 20 7 C20 4.69 20 2.38 20 0 C27.59 0 35.18 0 43 0 C43.495 2.97 43.495 2.97 44 6 C44.99 6 45.98 6 47 6 C47.33 4.02 47.66 2.04 48 0 C54.06485706 -0.02490465 60.12968368 -0.04295609 66.19458008 -0.05493164 C68.25350463 -0.05992942 70.31242569 -0.06672987 72.37133789 -0.07543945 C75.34782783 -0.0877062 78.32427045 -0.09327401 81.30078125 -0.09765625 C82.65928947 -0.10539818 82.65928947 -0.10539818 84.04524231 -0.11329651 C90.4116895 -0.11384289 96.67007524 0.32863641 103 1 C103.99 4.465 103.99 4.465 105 8 C103.35 8.33 101.7 8.66 100 9 C100 9.66 100 10.32 100 11 C101.98 11 103.96 11 106 11 C105.76683515 15.04152406 105.5771041 17.33802764 102.875 20.4375 C99.19382769 22.43813712 97.12662183 22.75029488 93 22 C90.6875 19.0625 90.6875 19.0625 89 16 C85.30884095 14.15442048 81.02941563 14.51751334 77 15 C74.12850682 17.08183255 72.97215353 19.04176971 71 22 C68.26955471 22.32908457 65.77037903 22.4680324 63.03515625 22.46875 C62.24604355 22.47636353 61.45693085 22.48397705 60.64390564 22.49182129 C58.97365485 22.50263444 57.30333638 22.50547044 55.63305664 22.50097656 C53.07518816 22.50000482 50.52032499 22.5415932 47.96289062 22.5859375 C46.3411521 22.59114485 44.71940313 22.59383269 43.09765625 22.59375 C41.94910912 22.6183429 41.94910912 22.6183429 40.77735901 22.64343262 C38.61352539 22.61523438 38.61352539 22.61523438 35 22 C33.13452148 19.57617188 33.13452148 19.57617188 32 17 C29.11528002 14.67619779 27.24413376 14.03551036 23.5625 13.5 C18.80802675 14.16729449 17.32778845 15.59297849 14 19 C13.67 19.99 13.34 20.98 13 22 C11.20866022 22.05391993 9.41686101 22.09275571 7.625 22.125 C6.62726562 22.14820312 5.62953125 22.17140625 4.6015625 22.1953125 C2 22 2 22 0 20 C-0.26991906 17.31160615 -0.08737357 14.70858064 0 12 C2.31 12 4.62 12 7 12 C7 10.68 7 9.36 7 8 C4.69 8 2.38 8 0 8 C0 5.36 0 2.72 0 0 Z " fill="#AED652" transform="translate(22,71)"/>
<path d="M0 0 C5.28 0 10.56 0 16 0 C16.33 1.98 16.66 3.96 17 6 C17.99 6.33 18.98 6.66 20 7 C20 4.69 20 2.38 20 0 C23.63 0 27.26 0 31 0 C31.391875 1.258125 31.78375 2.51625 32.1875 3.8125 C33.77623088 8.62452141 35.8326382 13.14455975 38.01171875 17.71484375 C39 20 39 20 39 22 C37.68 22 36.36 22 35 22 C33.97388051 20.34928604 32.97691857 18.68029994 32 17 C29.11528002 14.67619779 27.24413376 14.03551036 23.5625 13.5 C18.80802675 14.16729449 17.32778845 15.59297849 14 19 C13.67 19.99 13.34 20.98 13 22 C11.20866022 22.05391993 9.41686101 22.09275571 7.625 22.125 C6.62726562 22.14820312 5.62953125 22.17140625 4.6015625 22.1953125 C2 22 2 22 0 20 C-0.26991906 17.31160615 -0.08737357 14.70858064 0 12 C2.31 12 4.62 12 7 12 C7 10.68 7 9.36 7 8 C4.69 8 2.38 8 0 8 C0 5.36 0 2.72 0 0 Z " fill="#8FB50A" transform="translate(22,71)"/>
<path d="M0 0 C8.91 0 17.82 0 27 0 C26.67 4.62 26.34 9.24 26 14 C16.1 14 6.2 14 -4 14 C-1 2 -1 2 0 0 Z " fill="#CED9F9" transform="translate(27,52)"/>
<path d="M0 0 C2.375 1.625 2.375 1.625 4 4 C4.5625 7 4.5625 7 4 10 C1.875 12.4375 1.875 12.4375 -1 14 C-4.54334961 14 -6.25666783 13.64741834 -8.9375 11.3125 C-10.40109489 8.12702876 -9.98928968 6.32118677 -9 3 C-6.6975944 -0.63537727 -4.0732876 -0.58189823 0 0 Z " fill="#6160EC" transform="translate(107,89)"/>
<path d="M0 0 C3 0.5625 3 0.5625 5.4375 2.6875 C7 5.5625 7 5.5625 7 8.6875 C6 11.5625 6 11.5625 4.3125 13.5 C1.12702876 14.96359489 -0.67881323 14.55178968 -4 13.5625 C-5.875 12.375 -5.875 12.375 -7 10.5625 C-7.54068562 6.93218224 -7.46379841 5.24035921 -5.375 2.1875 C-3 0.5625 -3 0.5625 0 0 Z " fill="#6160EC" transform="translate(46,88.4375)"/>
<path d="M0 0 C2.97 0 5.94 0 9 0 C8.67 4.29 8.34 8.58 8 13 C4.7 13 1.4 13 -2 13 C-1.34 8.71 -0.68 4.42 0 0 Z " fill="#CED9FA" transform="translate(45,53)"/>
<path d="M0 0 C8.91 0 17.82 0 27 0 C27 0.33 27 0.66 27 1 C24.03 1 21.06 1 18 1 C17.90912109 2.15628906 17.90912109 2.15628906 17.81640625 3.3359375 C17.73261719 4.33882812 17.64882813 5.34171875 17.5625 6.375 C17.48128906 7.37273438 17.40007813 8.37046875 17.31640625 9.3984375 C17 12 17 12 16 14 C14.35 14 12.7 14 11 14 C11.99 9.71 12.98 5.42 14 1 C12.081875 1.12375 10.16375 1.2475 8.1875 1.375 C7.10855469 1.44460937 6.02960937 1.51421875 4.91796875 1.5859375 C1.81373814 1.81195733 1.81373814 1.81195733 -1 4 C-0.67 2.68 -0.34 1.36 0 0 Z " fill="#97B0E7" transform="translate(27,52)"/>
<path d="M0 0 C1.98 0 3.96 0 6 0 C7.32 4.29 8.64 8.58 10 13 C8.02 13 6.04 13 4 13 C2.68 8.71 1.36 4.42 0 0 Z " fill="#95B2F2" transform="translate(60,53)"/>
</svg>
