<?xml version="1.0" encoding="UTF-8"?>
<svg version="1.1" xmlns="http://www.w3.org/2000/svg" width="30" height="30">
<path d="M0 0 C4.875 3.625 4.875 3.625 6 7 C6.99 7.33 7.98 7.66 9 8 C9.49029622 15.23186925 9.49029622 15.23186925 7.125 18.9375 C4.39102013 21.5910687 3.52615669 21.95036258 -0.3125 22.3125 C-4.57536111 21.95124058 -6.01992054 20.98007946 -9 18 C-10.35439668 15.29120665 -10.06501451 12.99066732 -10 10 C-9.34 9.67 -8.68 9.34 -8 9 C-7.67 8.01 -7.34 7.02 -7 6 C-6.38125 5.87625 -5.7625 5.7525 -5.125 5.625 C-2.71203685 5.1589297 -2.71203685 5.1589297 -1.25 2.4375 C-0.8375 1.633125 -0.425 0.82875 0 0 Z " fill="#A7515B" transform="translate(15,4)"/>
<path d="M0 0 C0.66 0 1.32 0 2 0 C2.33 1.65 2.66 3.3 3 5 C3.33 4.01 3.66 3.02 4 2 C4.99 2.33 5.98 2.66 7 3 C7.25 10.625 7.25 10.625 5 14 C1.52674819 15.1577506 -1.36067448 15.06866652 -5 15 C-5.98457919 11.84137891 -6.17769829 10.41543798 -4.85546875 7.32421875 C-4.30503906 6.45410156 -3.75460938 5.58398438 -3.1875 4.6875 C-2.64480469 3.80449219 -2.10210937 2.92148438 -1.54296875 2.01171875 C-1.03378906 1.34785156 -0.52460938 0.68398437 0 0 Z " fill="#CA7920" transform="translate(17,9)"/>
<path d="M0 0 C1.98 0.66 3.96 1.32 6 2 C6.38218767 3.65614657 6.71395102 5.32457024 7 7 C6 8 6 8 2.4375 8.0625 C1.303125 8.041875 0.16875 8.02125 -1 8 C-1.625 5.6875 -1.625 5.6875 -2 3 C-1.34 2.01 -0.68 1.02 0 0 Z " fill="#FCC346" transform="translate(13,16)"/>
<path d="M0 0 C1 3 1 3 1 7 C3.97 7 6.94 7 10 7 C7 10 7 10 3.5 10.3125 C0 10 0 10 -3 8 C-3.6875 4.375 -3.6875 4.375 -4 1 C-2.68 0.67 -1.36 0.34 0 0 Z " fill="#B45855" transform="translate(11,16)"/>
<path d="M0 0 C0.66 0.33 1.32 0.66 2 1 C2.625 4.0625 2.625 4.0625 3 7 C1.68 7 0.36 7 -1 7 C-0.67 8.98 -0.34 10.96 0 13 C-1.5 11.875 -1.5 11.875 -3 10 C-3.1875 6.8125 -3.1875 6.8125 -3 4 C-2.34 3.67 -1.68 3.34 -1 3 C-0.67 2.01 -0.34 1.02 0 0 Z " fill="#4A4170" transform="translate(8,10)"/>
<path d="M0 0 C1.41377341 2.63904371 2.37240135 5.07120629 3 8 C1.35 7.67 -0.3 7.34 -2 7 C-1.125 1.125 -1.125 1.125 0 0 Z " fill="#FB8D07" transform="translate(13,16)"/>
<path d="M0 0 C0.99 0.495 0.99 0.495 2 1 C2 1.66 2 2.32 2 3 C1.34 3 0.68 3 0 3 C0 2.01 0 1.02 0 0 Z " fill="#FEE3A2" transform="translate(22,5)"/>
<path d="M0 0 C0.66 0 1.32 0 2 0 C2 0.66 2 1.32 2 2 C1.34 2 0.68 2 0 2 C0 1.34 0 0.68 0 0 Z " fill="#FDDD8E" transform="translate(6,4)"/>
</svg>
