<?xml version="1.0" encoding="UTF-8"?>
<svg version="1.1" xmlns="http://www.w3.org/2000/svg" width="512" height="512">
<path d="M0 0 C3.54289624 2.80826629 6.80173776 5.80723306 10 9 C10.62648437 9.61488281 11.25296875 10.22976562 11.8984375 10.86328125 C21.85175219 21.37956623 32 40.20538693 32 55 C32.99 54.67 33.98 54.34 35 54 C36.99304564 53.90606806 38.98911763 53.87206756 40.984375 53.87060547 C42.21575195 53.86745331 43.44712891 53.86430115 44.71582031 53.86105347 C46.06054724 53.86284337 47.40527384 53.86489435 48.75 53.8671875 C50.1285809 53.86651384 51.50716169 53.8655433 52.88574219 53.86428833 C55.77410005 53.86281426 58.66242698 53.86495657 61.55078125 53.86962891 C65.25309715 53.87532603 68.95534056 53.87204547 72.65765381 53.86605644 C75.50407457 53.86244299 78.35047814 53.86359303 81.19689941 53.86618423 C82.5620525 53.86685133 83.92720714 53.86603266 85.2923584 53.86370468 C87.20011363 53.86116536 89.10787433 53.86572188 91.015625 53.87060547 C92.64419434 53.87179886 92.64419434 53.87179886 94.30566406 53.87301636 C97 54 97 54 100 55 C100.11214844 54.195625 100.11214844 54.195625 100.2265625 53.375 C103.20309468 35.63253366 111.32832934 19.71462548 124 7 C125.04800781 5.9171875 125.04800781 5.9171875 126.1171875 4.8125 C137.87142959 -6.55423961 153.62864327 -10.55020429 169.5625 -10.375 C170.62146484 -10.38660156 171.68042969 -10.39820313 172.77148438 -10.41015625 C181.42173277 -10.37817751 189.63319069 -9.23764266 196.8125 -4.0625 C197.54855469 -3.53269531 198.28460938 -3.00289063 199.04296875 -2.45703125 C200.01169922 -1.73580078 200.01169922 -1.73580078 201 -1 C201.86625 -0.4225 202.7325 0.155 203.625 0.75 C211.79149902 8.48668328 217.02599681 18.79896331 218 30 C218.67804688 30.09796875 219.35609375 30.1959375 220.0546875 30.296875 C233.26100146 32.41866506 244.27005809 37.34760877 252.71484375 48.09765625 C257.41181877 55.05032141 258.36313464 61.43769187 258.4375 69.6875 C258.44765137 70.49541992 258.45780273 71.30333984 258.46826172 72.13574219 C258.45682129 72.91981445 258.44538086 73.70388672 258.43359375 74.51171875 C258.42384521 75.20740967 258.41409668 75.90310059 258.40405273 76.61987305 C257.82470061 80.03262461 256.43915355 82.8542818 255 86 C255.60863892 85.99111755 256.21727783 85.98223511 256.84436035 85.9730835 C263.20376148 85.8842932 269.56298525 85.82413458 275.92285156 85.78027344 C278.29336709 85.76021174 280.66383345 85.73295574 283.03417969 85.69824219 C286.44999351 85.64948582 289.86515055 85.62697601 293.28125 85.609375 C294.33364868 85.58872986 295.38604736 85.56808472 296.47033691 85.54681396 C304.05709536 85.54452282 309.47737792 86.91310295 315.2421875 91.96484375 C316.05042969 92.94130859 316.05042969 92.94130859 316.875 93.9375 C317.42929687 94.58589844 317.98359375 95.23429687 318.5546875 95.90234375 C321.81199713 100.62984449 322.29782322 104.97570622 322.29052734 110.60083008 C322.30060318 111.72381752 322.30060318 111.72381752 322.31088257 112.86949158 C322.32982768 115.33623963 322.33378512 117.80271504 322.3359375 120.26953125 C322.3423684 121.99200043 322.34909698 123.71446852 322.35610962 125.43693542 C322.36807405 129.04562918 322.37179136 132.65422727 322.37060547 136.26293945 C322.37040245 140.87294705 322.39769022 145.48233699 322.43214989 150.09219837 C322.45445764 153.64998659 322.45844181 157.20762715 322.45738602 160.76547813 C322.45973669 162.46424167 322.46853003 164.16300961 322.48405075 165.86170387 C322.63188205 183.71431352 322.63188205 183.71431352 316.03515625 191.2421875 C315.38417969 191.78101563 314.73320312 192.31984375 314.0625 192.875 C313.41410156 193.42929688 312.76570313 193.98359375 312.09765625 194.5546875 C307.99469502 197.38168127 304.42906738 198.2506041 299.48046875 198.1953125 C298.55903076 198.19031738 297.63759277 198.18532227 296.68823242 198.18017578 C295.53299072 198.16196777 294.37774902 198.14375977 293.1875 198.125 C289.495625 198.08375 285.80375 198.0425 282 198 C282 211.2 282 224.4 282 238 C279.36 238 276.72 238 274 238 C274.03309742 240.25062454 274.10257876 242.50073465 274.1875 244.75 C274.22230469 246.00296875 274.25710938 247.2559375 274.29296875 248.546875 C275.16464186 252.80410721 276.49410145 253.61277748 280 256 C284.93102209 264.80539658 284.20279093 274.2666457 283 284 C284.14275391 284.16435547 284.14275391 284.16435547 285.30859375 284.33203125 C303.60991358 287.14234628 303.60991358 287.14234628 310 294 C312.54834256 299.65067263 312.45785446 305.07029985 311 311 C309.52637652 314.45704104 307.92089857 317.78722163 306.1796875 321.1171875 C304.89768384 324.25003089 304.84449579 324.9512119 306 328 C308.63525081 330.4029422 311.34602358 332.57967761 314.1640625 334.7578125 C318.63195913 338.34018007 321.42977935 341.67628144 322.43359375 347.52734375 C322.43488281 348.32269531 322.43617188 349.11804688 322.4375 349.9375 C322.45683594 350.73027344 322.47617187 351.52304687 322.49609375 352.33984375 C320.99510823 360.3884354 315.57232156 364.38153653 309.33789062 368.90429688 C307.3596862 370.37611432 307.3596862 370.37611432 305 373 C304.94031899 377.22650044 306.42056866 380.1472643 308.5 383.75 C311.81302554 390.13597676 312.38949902 395.66143699 311.5625 402.75 C309.29497427 407.46645351 306.68665954 409.69975833 302 412 C295.99137831 414.05145974 289.35995175 416 283 416 C283.16048828 417.55847656 283.16048828 417.55847656 283.32421875 419.1484375 C284.20453749 428.82265267 284.74081506 437.54478604 278.4375 445.625 C276 448 276 448 274 448 C274 449.98 274 451.96 274 454 C276.64 454 279.28 454 282 454 C282.56786476 467.4552399 282.05215134 478.15771741 272.97265625 488.93359375 C264.78893073 497.5062488 255.84585907 502.05691718 243.89877319 502.50336456 C241.1654045 502.52522983 238.43746256 502.52603666 235.70458984 502.50793457 C234.17675369 502.5125509 232.64892199 502.51890871 231.12109947 502.52684355 C226.94848429 502.54345964 222.77623756 502.53532594 218.60362148 502.52289867 C214.09365345 502.5138187 209.58374713 502.52783248 205.0737915 502.53881836 C196.24896116 502.55657678 187.42426713 502.55277554 178.59943151 502.5411678 C171.42538684 502.5321232 164.25138029 502.53091391 157.07733154 502.53526306 C156.05511423 502.53587599 155.03289691 502.53648893 153.97970331 502.53712043 C151.90289321 502.53839937 149.82608313 502.53969623 147.74927306 502.5410108 C128.28876596 502.55240876 108.8283343 502.53931519 89.36783957 502.51780933 C72.68073548 502.49993907 55.99374271 502.5030434 39.30664062 502.52148438 C19.91433951 502.54290493 0.52210447 502.55131019 -18.87020683 502.53903532 C-20.93924839 502.53776116 -23.00828996 502.53650368 -25.07733154 502.53526306 C-26.09525964 502.53464596 -27.11318774 502.53402886 -28.16196215 502.53339306 C-35.32488954 502.52994372 -42.48777492 502.53575953 -49.6506958 502.54518127 C-58.38350151 502.5564158 -67.11616346 502.55333064 -75.84895277 502.5320583 C-80.30200834 502.52156746 -84.75482447 502.51739242 -89.20787811 502.53065491 C-93.2889813 502.54262552 -97.36962442 502.53593994 -101.45068622 502.5147447 C-102.922275 502.51029832 -104.39390313 502.51250046 -105.86546636 502.52224785 C-119.04440185 502.60280625 -129.28840119 500.27099698 -139 491 C-150.82258018 478.61555463 -150.56942283 465.24951972 -150.45410156 449.09692383 C-150.45297203 446.87858094 -150.45360901 444.66023655 -150.45587158 442.44189453 C-150.45701551 436.44467096 -150.43355798 430.44776979 -150.40557575 424.45062089 C-150.38050861 418.17394044 -150.3782159 411.89725196 -150.37347412 405.62052917 C-150.36246892 395.0935651 -150.33751304 384.56670027 -150.30175781 374.03979492 C-150.26498483 363.20191024 -150.23669905 352.36405761 -150.21972656 341.52612305 C-150.21867567 340.856939 -150.21762477 340.18775495 -150.21654204 339.4982926 C-150.2113215 336.14085375 -150.20626676 332.78341467 -150.20129442 329.42597544 C-150.15952546 301.61723506 -150.08920369 273.80862583 -150 246 C-147.36 246 -144.72 246 -142 246 C-142 240.72 -142 235.44 -142 230 C-144.64 230 -147.28 230 -150 230 C-150 224.72 -150 219.44 -150 214 C-147.36 214 -144.72 214 -142 214 C-142 208.72 -142 203.44 -142 198 C-144.145 198.04640625 -146.29 198.0928125 -148.5 198.140625 C-150.60170125 198.17191352 -152.70337552 198.19614792 -154.80517578 198.21972656 C-156.25418917 198.23971295 -157.70312325 198.26691197 -159.15185547 198.30175781 C-168.55976527 198.52220504 -175.7751879 198.57853743 -183.2421875 192.03515625 C-184.05042969 191.05869141 -184.05042969 191.05869141 -184.875 190.0625 C-185.42929688 189.41410156 -185.98359375 188.76570312 -186.5546875 188.09765625 C-189.81199713 183.37015551 -190.29782322 179.02429378 -190.29052734 173.39916992 C-190.29724457 172.65051163 -190.30396179 171.90185333 -190.31088257 171.13050842 C-190.32982768 168.66376037 -190.33378512 166.19728496 -190.3359375 163.73046875 C-190.3423684 162.00799957 -190.34909698 160.28553148 -190.35610962 158.56306458 C-190.36807405 154.95437082 -190.37179136 151.34577273 -190.37060547 147.73706055 C-190.37040245 143.12705295 -190.39769022 138.51766301 -190.43214989 133.90780163 C-190.45445764 130.35001341 -190.45844181 126.79237285 -190.45738602 123.23452187 C-190.45973669 121.53575833 -190.46853003 119.83699039 -190.48405075 118.13829613 C-190.63188205 100.28568648 -190.63188205 100.28568648 -184.03515625 92.7578125 C-183.38417969 92.21898438 -182.73320312 91.68015625 -182.0625 91.125 C-181.41410156 90.57070312 -180.76570312 90.01640625 -180.09765625 89.4453125 C-176.13857195 86.71745181 -172.62237169 85.74874749 -167.8425293 85.77294922 C-166.34153938 85.77317581 -166.34153938 85.77317581 -164.81022644 85.77340698 C-163.7423439 85.78372955 -162.67446136 85.79405212 -161.57421875 85.8046875 C-160.47149124 85.8075174 -159.36876373 85.81034729 -158.23262024 85.81326294 C-154.71746886 85.82444019 -151.20257411 85.84954063 -147.6875 85.875 C-145.30143598 85.88503296 -142.91536795 85.89415826 -140.52929688 85.90234375 C-134.68611065 85.92437151 -128.84307366 85.95782486 -123 86 C-123.72908569 84.4063562 -123.72908569 84.4063562 -124.47290039 82.78051758 C-125.68367326 79.94775673 -126.38999319 77.62321302 -126.43359375 74.51171875 C-126.44527588 73.72788818 -126.45695801 72.94405762 -126.46899414 72.13647461 C-126.45340454 70.92423218 -126.45340454 70.92423218 -126.4375 69.6875 C-126.42775146 68.84517822 -126.41800293 68.00285645 -126.40795898 67.13500977 C-126.10492777 56.50837264 -122.87508514 49.9370802 -115.47265625 42.2578125 C-107.64383624 35.10922171 -96.76054572 30 -86 30 C-85.92523438 29.41734375 -85.85046875 28.8346875 -85.7734375 28.234375 C-83.89757023 16.53779087 -78.52266676 6.22667129 -69.1875 -1.125 C-49.29776306 -15.4067284 -19.89550839 -13.51336488 0 0 Z " fill="#000000" transform="translate(190,10)"/>
<path d="M0 0 C47.52 0 95.04 0 144 0 C144 95.04 144 190.08 144 288 C22.58181818 288 22.58181818 288 15.5390625 281.8515625 C14.90742187 281.11679687 14.27578125 280.38203125 13.625 279.625 C12.97789063 278.89539063 12.33078125 278.16578125 11.6640625 277.4140625 C7.83373768 271.8573941 7.71455444 266.38650263 7.75949097 259.88845825 C7.75778212 258.98086663 7.75607327 258.07327501 7.75431263 257.13818061 C7.75102323 254.10261905 7.76201247 251.06727942 7.77294922 248.03173828 C7.77351345 245.85354111 7.77319654 243.67534356 7.77206421 241.49714661 C7.77149017 235.58650007 7.78325293 229.67593463 7.79721212 223.76530695 C7.80971081 217.58734708 7.8108893 211.40938536 7.81326294 205.23141479 C7.81948023 193.53370267 7.83589446 181.83602791 7.85596192 170.13833225 C7.87831313 156.8204338 7.8893124 143.50253735 7.89935279 130.18462396 C7.92026044 102.78972859 7.9554413 75.39486639 8 48 C5.36 48 2.72 48 0 48 C0 42.72 0 37.44 0 32 C-2.64 32 -5.28 32 -8 32 C-8 26.72 -8 21.44 -8 16 C-5.36 16 -2.72 16 0 16 C0 10.72 0 5.44 0 0 Z " fill="#FEAC38" transform="translate(48,208)"/>
<path d="M0 0 C18.48 0 36.96 0 56 0 C56 44.55 56 89.1 56 135 C52.7 133.35 49.4 131.7 46 130 C41.17750742 128.39250247 37.50464993 128.27776804 32.875 130.5 C26.3561892 136.16853113 23.36618173 144.2076474 20 152 C15.79399285 152.15021454 12.17665465 152.17415298 8.125 151 C2.47097356 149.4498823 -3.32187647 149.0102587 -8.875 151.0625 C-12.4162791 154.2913133 -15.72404304 159.22730525 -16.20532227 164.06298828 C-16.24197998 164.89040527 -16.2786377 165.71782227 -16.31640625 166.5703125 C-16.35830078 167.46621094 -16.40019531 168.36210937 -16.44335938 169.28515625 C-16.48267578 170.22230469 -16.52199219 171.15945313 -16.5625 172.125 C-16.62727539 173.54232422 -16.62727539 173.54232422 -16.69335938 174.98828125 C-16.79959072 177.32537092 -16.90163176 179.6625683 -17 182 C-21.86328702 183.67144026 -26.6714424 185.22033203 -31.6875 186.375 C-36.63476906 187.68640793 -39.43786496 189.34412457 -43 193 C-45.46836688 197.93673377 -44.37798809 204.53753721 -42.75 209.625 C-41.38602288 213.33003399 -39.64775983 216.76093682 -37.671875 220.17578125 C-36.79435397 222.5583529 -37.15582109 223.62578198 -38 226 C-39.35107422 227.46044922 -39.35107422 227.46044922 -41.0546875 228.8046875 C-41.66957031 229.30613281 -42.28445313 229.80757812 -42.91796875 230.32421875 C-44.21405472 231.35125693 -45.51091996 232.37731253 -46.80859375 233.40234375 C-51.69524624 237.39123963 -54.59717433 240.89248772 -55.4375 247.375 C-54.44232101 255.62076881 -50.05180474 260.47904988 -43.75 265.5 C-43.1003125 266.03625 -42.450625 266.5725 -41.78125 267.125 C-40.19767471 268.42912083 -38.60024121 269.71638405 -37 271 C-38.41110614 275.53162541 -39.78831126 279.75966557 -42.1875 283.875 C-45.26023131 289.78409867 -44.75732148 296.07890286 -43.125 302.375 C-37.62085187 309.1742418 -28.79709593 310.77467853 -20.58984375 312.421875 C-18 313 -18 313 -17 314 C-16.92388493 316.11219316 -16.85304094 318.22473428 -16.81152344 320.33789062 C-16.61333679 328.71206311 -16.37436231 336.12936636 -11 343 C-7.99742118 345.83576888 -6.3109447 345.96941528 -2.1875 346.375 C4.95441914 346.15636982 12.02336485 344.43812847 19 343 C19.27674561 343.55461914 19.55349121 344.10923828 19.83862305 344.68066406 C21.10942289 347.21009793 22.39821126 349.72994343 23.6875 352.25 C24.34008789 353.55904297 24.34008789 353.55904297 25.00585938 354.89453125 C27.83062064 360.37666052 30.32547211 364.16273605 36 367 C45.56974136 367.8249777 50.701275 364.18430266 58 358.25 C59.67293156 356.840737 61.34178623 355.42655155 63 354 C66.6554384 355.27529975 69.03371204 356.6956634 71.8125 359.375 C76.64292586 363.71603937 81.42369882 367.07642207 88.0625 367.5625 C92.89024385 366.87282231 95.48907008 365.32500069 99 362 C100.79024597 359.40584625 102.0908518 356.68493677 103.375 353.8125 C103.71660156 353.08869141 104.05820312 352.36488281 104.41015625 351.61914062 C105.28849399 349.75310688 106.14578146 347.87719733 107 346 C107.33 345.34 107.66 344.68 108 344 C112.3490412 343.82248811 115.64732463 344.20978133 119.7578125 345.5546875 C125.05492271 346.60672681 130.62378616 346.13421893 136 346 C136 347.98 136 349.96 136 352 C133.36 352 130.72 352 128 352 C128.04640625 352.83402344 128.0928125 353.66804688 128.140625 354.52734375 C128.44841387 364.12376101 127.30285813 370.67735262 120.75 377.875 C116.09790806 382.64224273 110.04962805 384.15387639 103.59619141 384.36076355 C101.51465542 384.369387 99.43300966 384.36165068 97.3515625 384.34057617 C95.63805855 384.34123329 95.63805855 384.34123329 93.88993835 384.34190369 C90.13478172 384.33982284 86.38007812 384.31652424 82.625 384.29296875 C80.01326745 384.28737031 77.40153175 384.28310139 74.78979492 384.28010559 C68.63114733 384.27080873 62.47266091 384.24622727 56.31408405 384.21605712 C49.29833537 384.18243925 42.28257869 384.16600861 35.26676941 384.15097082 C20.84441824 384.11967531 6.42224118 384.06469307 -8 384 C-8 373.44 -8 362.88 -8 352 C-13.28 352 -18.56 352 -24 352 C-24 362.56 -24 373.12 -24 384 C-55.68 384 -87.36 384 -120 384 C-120 288.96 -120 193.92 -120 96 C-88.32 96 -56.64 96 -24 96 C-24 111.84 -24 127.68 -24 144 C-18.72 144 -13.44 144 -8 144 C-8 128.16 -8 112.32 -8 96 C10.48 96 28.96 96 48 96 C48 90.72 48 85.44 48 80 C32.16 80 16.32 80 0 80 C0 53.6 0 27.2 0 0 Z " fill="#CA3440" transform="translate(328,112)"/>
<path d="M0 0 C3.68956423 1.28304915 6.07225825 2.73361014 8.875 5.4375 C13.45741617 9.56425377 17.13745064 11.62892879 23.375 12.4375 C31.83361433 11.41663275 37.58435358 7.05441978 43.93359375 1.609375 C46 0 46 0 48 0 C48.74443359 1.62808594 48.74443359 1.62808594 49.50390625 3.2890625 C53.72586577 13.2694266 53.72586577 13.2694266 60.6796875 21.21875 C68.03896725 23.69662197 76.96940573 22.93533229 84 20 C86.8125 19.875 86.8125 19.875 89 20 C89.0093457 20.56396484 89.01869141 21.12792969 89.02832031 21.70898438 C89.08257486 24.30681992 89.16610683 26.90295919 89.25 29.5 C89.26417969 30.386875 89.27835938 31.27375 89.29296875 32.1875 C89.51320654 38.17796797 90.4724085 43.0433904 94 48 C99.51454746 53.05599524 105.8950052 54.04648017 113.12109375 55.2265625 C114.54615234 55.60941406 114.54615234 55.60941406 116 56 C117 59 117 59 115.56640625 62.22265625 C114.90070782 63.50378642 114.23261081 64.78367225 113.5625 66.0625 C110.64093611 72.02870125 108.20160914 77.27053741 110 84 C112.97904542 90.85525511 118.01769304 94.95050086 124.0234375 99.17578125 C124.67570313 99.77777344 125.32796875 100.37976563 126 101 C126 102.32 126 103.64 126 105 C123.76953125 107.078125 123.76953125 107.078125 120.8125 109.25 C114.68479927 114.07477467 110.59979766 117.93470475 109.4375 125.8125 C109.87969198 132.40636273 112.83323009 138.66646018 115.75 144.5 C117 147 117 147 117 150 C116.02160156 150.14695312 115.04320312 150.29390625 114.03515625 150.4453125 C106.20401136 151.73751137 98.76187333 153.04346878 93 159 C89.40108202 164.36097481 89.46058028 169.63024316 89.3125 175.875 C89.27833984 176.84953125 89.24417969 177.8240625 89.20898438 178.828125 C89.12695707 181.21863491 89.05766152 183.60879905 89 186 C81.25 185.125 81.25 185.125 79 184 C69.42887279 182.96176666 69.42887279 182.96176666 60.3046875 185.28125 C55.78815763 189.05933582 53.18181484 193.60343382 51 199 C50.41666667 200.33333333 49.83333333 201.66666667 49.25 203 C48.8375 203.99 48.425 204.98 48 206 C44.24008347 204.94252348 41.98210495 203.17520758 39.1875 200.5625 C34.34741114 196.19550254 30.02253037 194.44778228 23.625 193.5 C15.50745659 194.61966116 9.38933652 199.07459257 3.59375 204.64453125 C2 206 2 206 0 206 C-0.4021875 204.85724609 -0.4021875 204.85724609 -0.8125 203.69140625 C-3.80198899 195.81449611 -7.56301289 187.63432967 -15.5234375 183.77734375 C-22.19050213 181.68468466 -28.02176071 183.34957188 -34.484375 185.34375 C-37 186 -37 186 -41 186 C-41.01458252 185.39526855 -41.02916504 184.79053711 -41.04418945 184.16748047 C-41.11909188 181.40270735 -41.21561073 178.63908643 -41.3125 175.875 C-41.34633789 174.44800781 -41.34633789 174.44800781 -41.38085938 172.9921875 C-41.61013293 166.98938908 -41.86809621 162.01675246 -46.44091797 157.61206055 C-50.89248988 154.07153496 -55.43170301 152.77733642 -60.9375 151.6875 C-61.71673828 151.51927734 -62.49597656 151.35105469 -63.29882812 151.17773438 C-65.19609879 150.77034497 -67.09766298 150.38303524 -69 150 C-68.37774894 146.11093088 -67.18371919 142.92843061 -65.5 139.375 C-62.69129719 133.41467137 -60.93981638 128.62352339 -62 122 C-64.92789628 115.16052687 -70.05837561 111.02087734 -76.0234375 106.82421875 C-77.00183594 105.92123047 -77.00183594 105.92123047 -78 105 C-78 103.68 -78 102.36 -78 101 C-75.76953125 98.921875 -75.76953125 98.921875 -72.8125 96.75 C-67.30855068 92.40216375 -63.16233032 88.76809956 -61.46484375 81.8046875 C-60.79823302 74.45984925 -64.21004949 68.56021546 -67.46875 62.22265625 C-69 59 -69 59 -69 56 C-67.28103516 55.65388672 -67.28103516 55.65388672 -65.52734375 55.30078125 C-63.99720866 54.97222464 -62.46727086 54.6427483 -60.9375 54.3125 C-60.18533203 54.16361328 -59.43316406 54.01472656 -58.65820312 53.86132812 C-53.27876541 52.67366006 -48.93019196 50.97147829 -45 47 C-41.63544567 41.38778463 -41.47302523 35.93305857 -41.3125 29.5625 C-41.27833984 28.64017578 -41.24417969 27.71785156 -41.20898438 26.76757812 C-41.12717006 24.51184049 -41.05780878 22.25645881 -41 20 C-37.53058454 20.45822468 -34.32604951 20.89131683 -31 22 C-28.54463658 22.14675735 -26.08457448 22.22100698 -23.625 22.25 C-22.31789063 22.27578125 -21.01078125 22.3015625 -19.6640625 22.328125 C-14.57445082 21.87233888 -12.15356049 20.12398202 -8.5625 16.625 C-4.65691258 11.74923481 -2.45656403 5.68977372 0 0 Z " fill="#FD6060" transform="translate(368,257)"/>
<path d="M0 0 C47.52 0 95.04 0 144 0 C144 7.92 144 15.84 144 24 C141.65398682 24.0093457 139.30797363 24.01869141 136.89086914 24.02832031 C129.11553706 24.06217802 121.34046793 24.11777564 113.56534672 24.18390274 C108.85401638 24.22331139 104.14287109 24.25553218 99.43139648 24.27099609 C94.87944346 24.28620639 90.32799941 24.32072899 85.77627373 24.36830902 C84.04491045 24.38307788 82.31347448 24.39103842 80.58204842 24.39188385 C67.74502403 24.273548 67.74502403 24.273548 56 29 C55.19046875 29.46921875 54.3809375 29.9384375 53.546875 30.421875 C46.88210889 35.34800647 43.24905564 41.03179077 41 49 C40.81146628 51.77276434 40.71614737 54.44350425 40.7253418 57.21411133 C40.72023087 58.01673401 40.71511993 58.81935669 40.70985413 59.64630127 C40.69599428 62.2916213 40.69691402 64.93667927 40.69921875 67.58203125 C40.69532616 69.4384521 40.69099034 71.29487206 40.68623352 73.15129089 C40.6787763 77.04579549 40.67905629 80.94020947 40.68432617 84.8347168 C40.6900806 89.77888126 40.67328563 94.72266617 40.6499815 99.66676807 C40.63509626 103.50628257 40.63439299 107.34570917 40.63749123 111.18524742 C40.63698409 113.00494823 40.6318631 114.82465478 40.62167931 116.64432716 C40.54667549 131.93744713 42.16598558 146.39901528 46.75 161.0625 C47.00676514 161.89483154 47.26353027 162.72716309 47.52807617 163.5847168 C53.19423341 181.42501758 61.68387931 197.82574118 74 212 C74.69738281 212.81855469 75.39476563 213.63710938 76.11328125 214.48046875 C94.47605719 235.51775202 117.66405012 249.22135004 144 258 C144 267.9 144 277.8 144 288 C128.75290263 288.09040881 113.50592672 288.16404501 98.25862885 288.20724869 C91.17850628 288.22784508 84.09856248 288.25590929 77.01855469 288.30175781 C70.18451751 288.34599227 63.3506661 288.36914563 56.51649475 288.37950897 C53.9106199 288.38689334 51.30475508 288.40131322 48.69895935 288.42292023 C45.04582862 288.45200386 41.39346246 288.45595374 37.74023438 288.45410156 C36.12829697 288.47567322 36.12829697 288.47567322 34.48379517 288.49768066 C26.76360025 288.4553935 21.39664391 286.96532405 15.5390625 281.8515625 C14.90742187 281.11679687 14.27578125 280.38203125 13.625 279.625 C12.97789063 278.89539063 12.33078125 278.16578125 11.6640625 277.4140625 C7.83373768 271.8573941 7.71455444 266.38650263 7.75949097 259.88845825 C7.75778212 258.98086663 7.75607327 258.07327501 7.75431263 257.13818061 C7.75102323 254.10261905 7.76201247 251.06727942 7.77294922 248.03173828 C7.77351345 245.85354111 7.77319654 243.67534356 7.77206421 241.49714661 C7.77149017 235.58650007 7.78325293 229.67593463 7.79721212 223.76530695 C7.80971081 217.58734708 7.8108893 211.40938536 7.81326294 205.23141479 C7.81948023 193.53370267 7.83589446 181.83602791 7.85596192 170.13833225 C7.87831313 156.8204338 7.8893124 143.50253735 7.89935279 130.18462396 C7.92026044 102.78972859 7.9554413 75.39486639 8 48 C5.36 48 2.72 48 0 48 C0 42.72 0 37.44 0 32 C-2.64 32 -5.28 32 -8 32 C-8 26.72 -8 21.44 -8 16 C-5.36 16 -2.72 16 0 16 C0 10.72 0 5.44 0 0 Z " fill="#E58B15" transform="translate(48,208)"/>
<path d="M0 0 C1.00483674 -0.00640819 1.00483674 -0.00640819 2.02997321 -0.01294583 C4.26771408 -0.02116163 6.50356744 0.00628142 8.74113464 0.03364563 C10.34776261 0.03505643 11.9543938 0.0342635 13.5610199 0.03143311 C17.91830569 0.02999876 22.27490301 0.05939116 26.63202882 0.09430289 C31.18705392 0.12556348 35.74209488 0.12849689 40.29721069 0.13442993 C48.92098441 0.14996927 57.54444113 0.19099891 66.16807526 0.24117738 C77.82254263 0.30751907 89.47709671 0.33450465 101.13170528 0.36368847 C119.49157998 0.41070077 137.85078573 0.51031228 156.21061707 0.60127258 C156.21061707 27.00127258 156.21061707 53.40127258 156.21061707 80.60127258 C115.49559627 80.72218169 115.49559627 80.72218169 98.46452332 80.74775696 C86.69413849 80.76557401 74.92381797 80.78654579 63.15348816 80.82759094 C54.58210587 80.8574666 46.01077564 80.87684124 37.43934274 80.88353807 C32.89965386 80.88745344 28.36011392 80.89667318 23.82047272 80.91846275 C19.54908726 80.93879897 15.27791235 80.94511221 11.00648308 80.94059563 C9.43752079 80.94142211 7.86855159 80.94740488 6.29963112 80.95888901 C4.15940935 80.97378873 2.01998525 80.97023601 -0.12025452 80.96203613 C-1.3185854 80.96480151 -2.51691628 80.96756689 -3.75156021 80.97041607 C-7.08262765 80.56563871 -8.44941437 79.96864488 -10.78938293 77.60127258 C-11.91912473 74.21204719 -11.94407937 71.58009699 -11.98225403 68.00605774 C-11.99043152 67.34065475 -11.99860901 66.67525177 -12.0070343 65.98968506 C-12.03182647 63.78991079 -12.0483867 61.5902007 -12.06282043 59.39033508 C-12.06814411 58.63808025 -12.07346779 57.88582542 -12.07895279 57.11077499 C-12.10565523 53.13040436 -12.12504091 49.1500648 -12.13948059 45.16963196 C-12.15282974 41.87735775 -12.18070303 38.58570192 -12.22151184 35.2936554 C-12.27082258 31.31548116 -12.29559902 27.33786851 -12.30270767 23.3594017 C-12.30941954 21.84512066 -12.32464022 20.33085213 -12.34859848 18.81674576 C-12.38025234 16.69559232 -12.38028861 14.57660449 -12.37287903 12.45527649 C-12.38096588 11.24965057 -12.38905273 10.04402466 -12.39738464 8.80186462 C-11.08088303 1.87164631 -6.5576766 -0.02524125 0 0 Z " fill="#FEA82F" transform="translate(27.789382934570313,111.39872741699219)"/>
<path d="M0 0 C14.746875 -0.061875 29.49375 -0.12375 44.6875 -0.1875 C51.66716919 -0.22846802 51.66716919 -0.22846802 58.7878418 -0.27026367 C64.47814941 -0.28381348 64.47814941 -0.28381348 67.14363098 -0.28633118 C69.00176651 -0.29093222 70.85989319 -0.30147172 72.7179718 -0.31672668 C75.53569048 -0.33870016 78.35286271 -0.34171757 81.1706543 -0.34057617 C81.99581637 -0.3513705 82.82097845 -0.36216482 83.67114544 -0.37328625 C88.26834797 -0.34837343 91.26276407 0.01916785 95 3 C96.42666016 5.85332032 96.14307693 8.29188273 96.16113281 11.48168945 C96.16858017 12.47957489 96.16858017 12.47957489 96.17617798 13.49761963 C96.19080622 15.70285063 96.19760326 17.90800966 96.203125 20.11328125 C96.20887667 21.64544171 96.2146344 23.17760215 96.22039795 24.70976257 C96.23091034 27.92524552 96.23675119 31.14070345 96.24023438 34.35620117 C96.24571442 38.4721189 96.26973067 42.58770503 96.29820633 46.70351887 C96.31685251 49.86999977 96.32203939 53.03640119 96.32357025 56.20293236 C96.32659372 57.7199605 96.33461198 59.23698735 96.34775543 60.75396156 C96.36485519 62.8796045 96.36292645 65.0044427 96.35644531 67.13012695 C96.36191376 68.94309013 96.36191376 68.94309013 96.36749268 70.79267883 C95.96251872 74.32712084 95.17941535 76.20819075 93 79 C90.04601242 79.98466253 88.14750978 80.12127836 85.06958008 80.11352539 C84.06876907 80.11344986 83.06795807 80.11337433 82.03681946 80.11329651 C80.95861435 80.10813522 79.88040924 80.10297394 78.76953125 80.09765625 C77.66397385 80.0962413 76.55841644 80.09482635 75.4193573 80.09336853 C71.88371083 80.08776514 68.34812738 80.07521204 64.8125 80.0625 C62.41731862 80.05748544 60.02213625 80.05292246 57.62695312 80.04882812 C51.75127775 80.0377946 45.87564957 80.02052767 40 80 C40 85.28 40 90.56 40 96 C45.28 96 50.56 96 56 96 C56 109.2 56 122.4 56 136 C58.64 136 61.28 136 64 136 C64 140.95 64 145.9 64 151 C62.68 150.67 61.36 150.34 60 150 C53.21035512 149.43600394 47.49194732 150.10440236 41.09375 152.44140625 C39 153 39 153 36 152 C34.57228345 149.4318692 33.29199275 146.91038812 32.0625 144.25 C28.35877018 136.10275501 28.35877018 136.10275501 22.25 129.6875 C16.92863822 128.06152835 12.63963592 128.43018204 7.75 130.875 C6.49528368 131.57494505 5.24518401 132.28323442 4 133 C2.02 133.99 2.02 133.99 0 135 C0 90.45 0 45.9 0 0 Z " fill="#FEA82F" transform="translate(400,112)"/>
<path d="M0 0 C36.96 0 73.92 0 112 0 C112 26.4 112 52.8 112 80 C75.04 80 38.08 80 0 80 C0 53.6 0 27.2 0 0 Z " fill="#FF6161" transform="translate(200,112)"/>
<path d="M0 0 C18.48 0 36.96 0 56 0 C56 44.55 56 89.1 56 135 C51.05 132.525 51.05 132.525 46 130 C41.17750742 128.39250247 37.50464993 128.27776804 32.875 130.5 C26.3561892 136.16853113 23.36618173 144.2076474 20 152 C15.79399285 152.15021454 12.17665465 152.17415298 8.125 151 C2.47242943 149.45028144 -3.35484541 148.96493951 -8.875 151.125 C-11.49955705 153.44078563 -13.15813073 156.03985296 -15 159 C-15.33 159 -15.66 159 -16 159 C-16 154.05 -16 149.1 -16 144 C-13.36 144 -10.72 144 -8 144 C-8 128.16 -8 112.32 -8 96 C10.48 96 28.96 96 48 96 C48 90.72 48 85.44 48 80 C32.16 80 16.32 80 0 80 C0 53.6 0 27.2 0 0 Z " fill="#E68C15" transform="translate(328,112)"/>
<path d="M0 0 C3.68956423 1.28304915 6.07225825 2.73361014 8.875 5.4375 C13.45741617 9.56425377 17.13745064 11.62892879 23.375 12.4375 C31.83361433 11.41663275 37.58435358 7.05441978 43.93359375 1.609375 C46 0 46 0 48 0 C48.74443359 1.62808594 48.74443359 1.62808594 49.50390625 3.2890625 C53.72586577 13.2694266 53.72586577 13.2694266 60.6796875 21.21875 C68.03896725 23.69662197 76.96940573 22.93533229 84 20 C86.8125 19.875 86.8125 19.875 89 20 C89.0093457 20.56396484 89.01869141 21.12792969 89.02832031 21.70898438 C89.08257486 24.30681992 89.16610683 26.90295919 89.25 29.5 C89.26417969 30.386875 89.27835938 31.27375 89.29296875 32.1875 C89.51320654 38.17796797 90.4724085 43.0433904 94 48 C99.51454746 53.05599524 105.8950052 54.04648017 113.12109375 55.2265625 C114.54615234 55.60941406 114.54615234 55.60941406 116 56 C117 59 117 59 115.56640625 62.22265625 C114.90070782 63.50378642 114.23261081 64.78367225 113.5625 66.0625 C110.64093611 72.02870125 108.20160914 77.27053741 110 84 C112.97904542 90.85525511 118.01769304 94.95050086 124.0234375 99.17578125 C124.67570313 99.77777344 125.32796875 100.37976563 126 101 C126 102.32 126 103.64 126 105 C123.76953125 107.078125 123.76953125 107.078125 120.8125 109.25 C114.68479927 114.07477467 110.59979766 117.93470475 109.4375 125.8125 C109.87969198 132.40636273 112.83323009 138.66646018 115.75 144.5 C117 147 117 147 117 150 C116.02160156 150.14695312 115.04320312 150.29390625 114.03515625 150.4453125 C106.20401136 151.73751137 98.76187333 153.04346878 93 159 C89.40108202 164.36097481 89.46058028 169.63024316 89.3125 175.875 C89.27833984 176.84953125 89.24417969 177.8240625 89.20898438 178.828125 C89.12695707 181.21863491 89.05766152 183.60879905 89 186 C81.25 185.125 81.25 185.125 79 184 C69.42887279 182.96176666 69.42887279 182.96176666 60.3046875 185.28125 C55.78815763 189.05933582 53.18181484 193.60343382 51 199 C50.41666667 200.33333333 49.83333333 201.66666667 49.25 203 C48.8375 203.99 48.425 204.98 48 206 C44.24008347 204.94252348 41.98210495 203.17520758 39.1875 200.5625 C34.34741114 196.19550254 30.02253037 194.44778228 23.625 193.5 C15.50745659 194.61966116 9.38933652 199.07459257 3.59375 204.64453125 C2 206 2 206 0 206 C-0.4021875 204.85724609 -0.4021875 204.85724609 -0.8125 203.69140625 C-3.80198899 195.81449611 -7.56301289 187.63432967 -15.5234375 183.77734375 C-22.19050213 181.68468466 -28.02176071 183.34957188 -34.484375 185.34375 C-37 186 -37 186 -41 186 C-41.01458252 185.39526855 -41.02916504 184.79053711 -41.04418945 184.16748047 C-41.11909188 181.40270735 -41.21561073 178.63908643 -41.3125 175.875 C-41.34633789 174.44800781 -41.34633789 174.44800781 -41.38085938 172.9921875 C-41.61013293 166.98938908 -41.86809621 162.01675246 -46.44091797 157.61206055 C-50.89248988 154.07153496 -55.43170301 152.77733642 -60.9375 151.6875 C-61.71673828 151.51927734 -62.49597656 151.35105469 -63.29882812 151.17773438 C-65.19609879 150.77034497 -67.09766298 150.38303524 -69 150 C-68.37774894 146.11093088 -67.18371919 142.92843061 -65.5 139.375 C-62.69129719 133.41467137 -60.93981638 128.62352339 -62 122 C-64.92789628 115.16052687 -70.05837561 111.02087734 -76.0234375 106.82421875 C-77.00183594 105.92123047 -77.00183594 105.92123047 -78 105 C-78 103.68 -78 102.36 -78 101 C-75.76953125 98.921875 -75.76953125 98.921875 -72.8125 96.75 C-67.30855068 92.40216375 -63.16233032 88.76809956 -61.46484375 81.8046875 C-60.79823302 74.45984925 -64.21004949 68.56021546 -67.46875 62.22265625 C-69 59 -69 59 -69 56 C-67.28103516 55.65388672 -67.28103516 55.65388672 -65.52734375 55.30078125 C-63.99720866 54.97222464 -62.46727086 54.6427483 -60.9375 54.3125 C-60.18533203 54.16361328 -59.43316406 54.01472656 -58.65820312 53.86132812 C-53.27876541 52.67366006 -48.93019196 50.97147829 -45 47 C-41.63544567 41.38778463 -41.47302523 35.93305857 -41.3125 29.5625 C-41.27833984 28.64017578 -41.24417969 27.71785156 -41.20898438 26.76757812 C-41.12717006 24.51184049 -41.05780878 22.25645881 -41 20 C-37.53058454 20.45822468 -34.32604951 20.89131683 -31 22 C-28.54463658 22.14675735 -26.08457448 22.22100698 -23.625 22.25 C-22.31789063 22.27578125 -21.01078125 22.3015625 -19.6640625 22.328125 C-14.57445082 21.87233888 -12.15356049 20.12398202 -8.5625 16.625 C-4.65691258 11.74923481 -2.45656403 5.68977372 0 0 Z M-1 20 C-2.11418564 22.05615524 -3.1771074 24.14090284 -4.1875 26.25 C-6.91764706 31.91764706 -6.91764706 31.91764706 -8 33 C-12.4838295 33.24020515 -16.27015046 33.02990294 -20.625 31.9375 C-24.38640708 31.02800606 -27.22745108 30.80382595 -31 32 C-33.5294579 35.79418685 -33.37421038 39.03116356 -33.5 43.4375 C-33.7916208 53.6013427 -33.7916208 53.6013427 -36 56 C-38.740058 57.14997862 -41.55590803 57.85578422 -44.4375 58.5625 C-45.98021156 58.95041834 -47.52071542 59.34724936 -49.05859375 59.75390625 C-50.08424438 60.00636108 -50.08424438 60.00636108 -51.13061523 60.26391602 C-53.37730626 61.14856711 -54.52140698 62.09697736 -56 64 C-56 68.75866801 -54.65017525 71.87669838 -52.4375 76.0625 C-48.99629374 82.68406307 -48.99629374 82.68406307 -50 87 C-52.12305022 89.58746746 -54.46712597 91.57530341 -57.078125 93.65625 C-61.48036798 97.23800127 -61.48036798 97.23800127 -64.3125 102.0625 C-63.87439021 106.18073203 -61.96221321 108.32088875 -59 111 C-56.9291056 112.63184925 -54.83256236 114.19226843 -52.671875 115.703125 C-51 117 -51 117 -50 119 C-49.5509228 123.93283232 -50.6111545 126.77695541 -53 131.0625 C-55.99848739 136.23714828 -55.99848739 136.23714828 -56 142 C-52.39993306 145.89252885 -48.33761978 146.97559242 -43.3125 148.0625 C-36.26617702 149.60073447 -36.26617702 149.60073447 -34 153 C-33.74841253 155.83321795 -33.58101103 158.5997312 -33.5 161.4375 C-33.55908325 168.07638135 -33.55908325 168.07638135 -31 174 C-27.2437549 175.28262028 -24.38757902 174.9657789 -20.625 174.0625 C-16.09553744 172.98732454 -12.64937465 172.22510422 -8 173 C-5.70437314 175.35668077 -4.39744779 178.04482367 -3 181 C-2.44505859 182.10988281 -2.44505859 182.10988281 -1.87890625 183.2421875 C-1.20073005 184.5985399 -0.53746216 185.96252764 0.10546875 187.3359375 C1.00055111 189.19256343 1.00055111 189.19256343 3 191 C5.3094805 191.58674989 5.3094805 191.58674989 8 191 C10.87086142 188.98788186 13.45897941 186.85289192 16.09570312 184.5546875 C18.69479442 182.40159412 20.67416793 181.06788168 24 180.375 C28.02985011 181.21455211 30.53720159 183.36310857 33.5625 186 C37.65276147 189.60787226 37.65276147 189.60787226 42.65234375 191.625 C46.11301864 190.70368888 47.0668027 188.96183437 49 186 C50.11418564 183.94384476 51.1771074 181.85909716 52.1875 179.75 C54.91764706 174.08235294 54.91764706 174.08235294 56 173 C63.11885107 172.76659505 63.11885107 172.76659505 65.90234375 173.50390625 C68.56195899 174.13290278 71.02047418 174.09499435 73.75 174.0625 C74.73484375 174.05347656 75.7196875 174.04445313 76.734375 174.03515625 C77.48203125 174.02355469 78.2296875 174.01195312 79 174 C81.93912253 169.57955972 81.35594953 164.30518117 81.390625 159.19921875 C81.50110478 155.69455457 81.62151231 153.58047364 83.56640625 150.59765625 C86.72223412 148.52585272 89.92264266 147.72022728 93.5625 146.9375 C99.58591401 145.86421802 99.58591401 145.86421802 104 142 C104 137.24133199 102.65017525 134.12330162 100.4375 129.9375 C96.99629374 123.31593693 96.99629374 123.31593693 98 119 C100.12305022 116.41253254 102.46712597 114.42469659 105.078125 112.34375 C109.48036798 108.76199873 109.48036798 108.76199873 112.3125 103.9375 C111.87439021 99.81926797 109.96221321 97.67911125 107 95 C104.9291056 93.36815075 102.83256236 91.80773157 100.671875 90.296875 C99 89 99 89 98 87 C97.5509228 82.06716768 98.6111545 79.22304459 101 74.9375 C103.91301891 69.76988404 103.91301891 69.76988404 104 64 C101.92953649 61.46327649 100.20141488 60.52158212 97.05859375 59.71875 C96.31029297 59.51636719 95.56199219 59.31398438 94.79101562 59.10546875 C93.21834116 58.7008803 91.6454228 58.2972387 90.07226562 57.89453125 C89.32525391 57.69214844 88.57824219 57.48976563 87.80859375 57.28125 C87.12595459 57.10658203 86.44331543 56.93191406 85.73999023 56.75195312 C84 56 84 56 82 53 C81.71289062 51.0546875 81.71289062 51.0546875 81.65625 48.875 C81.62660156 48.08609375 81.59695313 47.2971875 81.56640625 46.484375 C81.52213542 44.828125 81.47786458 43.171875 81.43359375 41.515625 C81.40394531 40.72671875 81.37429688 39.9378125 81.34375 39.125 C81.32505859 38.40570313 81.30636719 37.68640625 81.28710938 36.9453125 C81.09405212 34.67820334 81.09405212 34.67820334 79 32 C76.40315156 31.59705453 76.40315156 31.59705453 73.5 31.75 C72.5203125 31.76546875 71.540625 31.7809375 70.53125 31.796875 C68.00706565 31.8405357 68.00706565 31.8405357 66 33 C62.59535936 33.46858295 59.39710197 33.55789805 56 33 C53.6875 30.625 53.6875 30.625 52 27 C51.1292892 25.24786196 50.25405091 23.49796868 49.375 21.75 C48.97023438 20.89921875 48.56546875 20.0484375 48.1484375 19.171875 C47.06918092 16.8728077 47.06918092 16.8728077 45 15 C42.6905195 14.41325011 42.6905195 14.41325011 40 15 C37.12913858 17.01211814 34.54102059 19.14710808 31.90429688 21.4453125 C29.30520558 23.59840588 27.32583207 24.93211832 24 25.625 C19.97014989 24.78544789 17.46279841 22.63689143 14.4375 20 C10.34723853 16.39212774 10.34723853 16.39212774 5.34765625 14.375 C1.88698136 15.29631112 0.9331973 17.03816563 -1 20 Z " fill="#C73440" transform="translate(368,257)"/>
<path d="M0 0 C0.94650925 -0.00412399 1.89301849 -0.00824799 2.86820984 -0.01249695 C3.90470673 -0.00171112 4.94120361 0.00907471 6.0091095 0.02018738 C7.64836647 0.01953026 7.64836647 0.01953026 9.32073975 0.01885986 C12.94075757 0.0209535 16.56031494 0.04431224 20.18025208 0.0677948 C22.68702949 0.07338869 25.19381018 0.07765977 27.70059204 0.08065796 C33.62919989 0.09095044 39.55765947 0.11460585 45.48619109 0.14470643 C52.89785381 0.18152079 60.30953698 0.19763949 67.7212677 0.21427917 C80.94337365 0.24647249 94.16528122 0.29925413 107.38728333 0.36076355 C107.38728333 16.20076355 107.38728333 32.04076355 107.38728333 48.36076355 C83.29080198 48.52119879 83.29080198 48.52119879 72.99079895 48.55607605 C65.97252756 48.57995382 58.95446563 48.60815063 51.93635559 48.66252136 C46.27588548 48.70609794 40.61564013 48.72992583 34.95501518 48.74027252 C32.79932558 48.74764266 30.64364777 48.76203475 28.48805428 48.78368378 C25.46013784 48.81287433 22.43314091 48.81671296 19.40510559 48.81486511 C18.07908325 48.83643677 18.07908325 48.83643677 16.72627258 48.85844421 C7.67537131 48.79898156 0.70280015 45.39767156 -5.88615417 39.2943573 C-11.76920036 32.70587797 -13.02066011 25.11872147 -12.96818542 16.5443573 C-12.14313689 9.15518637 -8.31300347 -0.02792722 0 0 Z " fill="#FEBC54" transform="translate(76.61271667480469,111.63923645019531)"/>
<path d="M0 0 C22.26038918 -0.12032643 22.26038918 -0.12032643 31.74804688 -0.14648438 C38.22232436 -0.16441883 44.69647458 -0.18563713 51.1706543 -0.22631836 C56.39019478 -0.25891073 61.60959878 -0.27685285 66.82923317 -0.28463173 C68.82074952 -0.29017543 70.81225839 -0.30100088 72.80371666 -0.31719017 C75.59286017 -0.33896267 78.38143949 -0.34196698 81.1706543 -0.34057617 C81.99424438 -0.351362 82.81783447 -0.36214783 83.66638184 -0.3732605 C88.26552299 -0.34843959 91.26111246 0.01785052 95 3 C96.70944724 6.41889448 96.18495736 10.33089603 96.203125 14.09375 C96.20882507 14.9962146 96.21452515 15.8986792 96.22039795 16.82849121 C96.22985106 18.73835068 96.23638317 20.64822649 96.24023438 22.55810547 C96.24996097 25.48824214 96.28098962 28.41768368 96.3125 31.34765625 C96.31902782 33.20051665 96.32427916 35.05338209 96.328125 36.90625 C96.3404718 37.78647827 96.3528186 38.66670654 96.36553955 39.5736084 C96.35644531 42.04101562 96.35644531 42.04101562 96 46 C92.05560017 48.62959989 88.69719894 48.26535386 84.12231445 48.22705078 C83.21479431 48.22734283 82.30727417 48.22763489 81.37225342 48.22793579 C78.36916582 48.22654118 75.36632557 48.21097373 72.36328125 48.1953125 C70.28248734 48.19158284 68.20169168 48.18873565 66.12089539 48.18673706 C60.64146078 48.17909692 55.16213202 48.15944512 49.68273926 48.1373291 C43.10986264 48.11328402 36.53695066 48.10409151 29.96404266 48.09242249 C19.9759548 48.073021 9.98809924 48.03470098 0 48 C0 32.16 0 16.32 0 0 Z " fill="#FDBC54" transform="translate(400,112)"/>
<path d="M0 0 C8.56839912 8.01653612 8.56839912 8.01653612 9.23828125 14.19921875 C9.42174805 20.35018463 8.83368365 25.04941173 5 30 C-0.96300102 34.55543274 -7.33930208 34.55239779 -14.55664062 34.45410156 C-15.68922302 34.45468567 -16.82180542 34.45526978 -17.9887085 34.45587158 C-21.71154013 34.45309725 -25.43355918 34.42203438 -29.15625 34.390625 C-31.74556033 34.38316034 -34.33487633 34.37746847 -36.92419434 34.37347412 C-43.02979317 34.35979105 -49.13505945 34.32830449 -55.24053335 34.28807616 C-62.19580555 34.2432507 -69.1510921 34.22134446 -76.10647297 34.20129442 C-90.40447004 34.15956817 -104.70222473 34.08928375 -119 34 C-119.14257812 31.64746094 -119.14257812 31.64746094 -119 29 C-117.18557938 27.12344169 -115.59395889 25.7502173 -113.5 24.25 C-112.91976074 23.82098389 -112.33952148 23.39196777 -111.74169922 22.94995117 C-104.86060265 17.98918182 -97.52205474 13.89620954 -90 10 C-89.38930664 9.67902344 -88.77861328 9.35804687 -88.14941406 9.02734375 C-64.87244421 -3.05999095 -24.16287888 -15.58895411 0 0 Z " fill="#CA3440" transform="translate(423,62)"/>
<path d="M0 0 C2.238305 1.70372639 4.42730128 3.46451371 6.60913086 5.23974609 C7.37354492 5.71541016 8.13795898 6.19107422 8.92553711 6.68115234 C10.60913086 8.23974609 10.60913086 8.23974609 10.71435547 10.8371582 C10.67963135 11.63001221 10.64490723 12.42286621 10.60913086 13.23974609 C-4.65515463 13.35667143 -19.91941943 13.44477922 -35.18405247 13.49880695 C-42.27210545 13.52456255 -49.3598798 13.55966176 -56.44775391 13.61694336 C-63.28827999 13.67219951 -70.12851641 13.7011706 -76.96925163 13.71413231 C-79.57876071 13.72336909 -82.188254 13.74140636 -84.79763985 13.76839638 C-88.45349449 13.80470576 -92.10815414 13.80969032 -95.76416016 13.80737305 C-96.84238037 13.82534943 -97.92060059 13.84332581 -99.03149414 13.86184692 C-105.82692039 13.81525592 -109.34397684 12.88440675 -114.39086914 8.23974609 C-117.6957877 2.80262202 -118.26395665 -2.54828646 -117.39086914 -8.76025391 C-114.68746036 -15.40613384 -109.72429326 -20.53673666 -103.30493164 -23.83056641 C-72.14102054 -36.12896811 -25.39331779 -18.60471145 0 0 Z " fill="#C93440" transform="translate(197.390869140625,82.76025390625)"/>
<path d="M0 0 C3 3 3 3 5 5.625 C6.84855592 8.23949912 6.84855592 8.23949912 10 9 C18.57036601 9.58104176 26.65010504 7.72120534 35 6 C35.27674561 6.55461914 35.55349121 7.10923828 35.83862305 7.68066406 C37.10942289 10.21009793 38.39821126 12.72994343 39.6875 15.25 C40.12255859 16.12269531 40.55761719 16.99539063 41.00585938 17.89453125 C43.83062064 23.37666052 46.32547211 27.16273605 52 30 C61.56974136 30.8249777 66.701275 27.18430266 74 21.25 C75.67293156 19.840737 77.34178623 18.42655155 79 17 C82.6554384 18.27529975 85.03371204 19.6956634 87.8125 22.375 C92.64292586 26.71603937 97.42369882 30.07642207 104.0625 30.5625 C108.89024385 29.87282231 111.48907008 28.32500069 115 25 C116.79024597 22.40584625 118.0908518 19.68493677 119.375 16.8125 C119.88740234 15.72678711 119.88740234 15.72678711 120.41015625 14.61914062 C121.28849399 12.75310688 122.14578146 10.87719733 123 9 C123.33 8.34 123.66 7.68 124 7 C128.3490412 6.82248811 131.64732463 7.20978133 135.7578125 8.5546875 C141.05492271 9.60672681 146.62378616 9.13421893 152 9 C152 10.98 152 12.96 152 15 C149.36 15 146.72 15 144 15 C144.04640625 15.83402344 144.0928125 16.66804688 144.140625 17.52734375 C144.44841387 27.12376101 143.30285813 33.67735262 136.75 40.875 C132.09790806 45.64224273 126.04962805 47.15387639 119.59619141 47.36076355 C117.51465542 47.369387 115.43300966 47.36165068 113.3515625 47.34057617 C111.63805855 47.34123329 111.63805855 47.34123329 109.88993835 47.34190369 C106.13478172 47.33982284 102.38007812 47.31652424 98.625 47.29296875 C96.01326745 47.28737031 93.40153175 47.28310139 90.78979492 47.28010559 C84.63114733 47.27080873 78.47266091 47.24622727 72.31408405 47.21605712 C65.29833537 47.18243925 58.28257869 47.16600861 51.26676941 47.15097082 C36.84441824 47.11967531 22.42224118 47.06469307 8 47 C8 36.44 8 25.88 8 15 C5.36 15 2.72 15 0 15 C0 10.05 0 5.1 0 0 Z " fill="#E48B14" transform="translate(312,449)"/>
<path d="M0 0 C36.96 0 73.92 0 112 0 C112 10.56 112 21.12 112 32 C75.04 32 38.08 32 0 32 C0 21.44 0 10.88 0 0 Z " fill="#CB3541" transform="translate(200,160)"/>
<path d="M0 0 C5.28 0 10.56 0 16 0 C16 2.64 16 5.28 16 8 C21.28 8 26.56 8 32 8 C32 10.64 32 13.28 32 16 C37.28 16 42.56 16 48 16 C48 29.2 48 42.4 48 56 C50.64 56 53.28 56 56 56 C56 60.95 56 65.9 56 71 C54.68 70.67 53.36 70.34 52 70 C45.21035512 69.43600394 39.49194732 70.10440236 33.09375 72.44140625 C31 73 31 73 28 72 C26.57228345 69.4318692 25.29199275 66.91038812 24.0625 64.25 C20.35877018 56.10275501 20.35877018 56.10275501 14.25 49.6875 C8.92863822 48.06152835 4.63963592 48.43018204 -0.25 50.875 C-1.50471632 51.57494505 -2.75481599 52.28323442 -4 53 C-5.32 53.66 -6.64 54.32 -8 55 C-8 39.49 -8 23.98 -8 8 C-5.36 8 -2.72 8 0 8 C0 5.36 0 2.72 0 0 Z " fill="#E68C15" transform="translate(408,192)"/>
<path d="M0 0 C18.48 0 36.96 0 56 0 C56 15.84 56 31.68 56 48 C37.52 48 19.04 48 0 48 C0 32.16 0 16.32 0 0 Z " fill="#FEBD55" transform="translate(328,112)"/>
<path d="M0 0 C3.3 0.33 6.6 0.66 10 1 C13.01644941 1.10683031 16.01355827 1.18272459 19.02978516 1.20532227 C19.87005249 1.21522186 20.71031982 1.22512146 21.5760498 1.23532104 C24.31369347 1.26654553 27.05135439 1.29153648 29.7890625 1.31640625 C31.70291559 1.33700965 33.61676447 1.35800693 35.53060913 1.37937927 C40.5380307 1.43425065 45.54549091 1.48381218 50.55297852 1.53222656 C55.67467641 1.58269867 60.79631903 1.63824976 65.91796875 1.69335938 C75.94526677 1.80051287 85.97261245 1.90158059 96 2 C96 9.92 96 17.84 96 26 C64.32 26 32.64 26 0 26 C0 17.42 0 8.84 0 0 Z " fill="#A81E29" transform="translate(208,470)"/>
<path d="M0 0 C31.68 0 63.36 0 96 0 C96 7.92 96 15.84 96 24 C64.32 24 32.64 24 0 24 C0 16.08 0 8.16 0 0 Z " fill="#A81E29" transform="translate(208,208)"/>
<path d="M0 0 C3.41059403 1.60535287 5.61792484 3.40518901 8.25 6.125 C8.95640625 6.84945313 9.6628125 7.57390625 10.390625 8.3203125 C11.18726563 9.15175781 11.18726563 9.15175781 12 10 C10.56523742 13.27007631 8.80343602 15.45333499 6.29373169 17.98042297 C5.52266083 18.76146896 4.75158997 19.54251495 3.95715332 20.347229 C3.11036011 21.19468689 2.26356689 22.04214478 1.39111328 22.9152832 C0.49991791 23.81480209 -0.39127747 24.71432098 -1.30947876 25.64109802 C-3.75084853 28.10438293 -6.19873279 30.56109103 -8.64853811 33.01598382 C-10.17828872 34.54937913 -11.70673331 36.08406415 -13.23474503 37.61919212 C-18.56370808 42.97263167 -23.8983513 48.32034254 -29.23779297 53.66333008 C-34.21889409 58.64807318 -39.18668919 63.6458156 -44.14865673 68.64959842 C-48.40825025 72.94382823 -52.67735771 77.22844204 -56.95395482 81.50573796 C-59.50869823 84.06127595 -62.05927095 86.62067157 -64.60018539 89.1899662 C-67.43048803 92.05117358 -70.28025008 94.89218369 -73.13232422 97.73168945 C-73.97506897 98.58926849 -74.81781372 99.44684753 -75.68609619 100.33041382 C-76.85116196 101.48083412 -76.85116196 101.48083412 -78.0397644 102.65449524 C-78.71191923 103.32866139 -79.38407406 104.00282755 -80.07659721 104.69742298 C-82 106 -82 106 -84.1115284 105.8157835 C-86.68693434 104.70325755 -88.31846177 103.15237497 -90.3125 101.1875 C-91.03050781 100.50042969 -91.74851562 99.81335938 -92.48828125 99.10546875 C-94 97 -94 97 -93.82266331 95.11913681 C-92.78207933 92.43864797 -91.38682561 91.01783439 -89.34910583 88.98834229 C-88.56521484 88.2003273 -87.78132385 87.41231232 -86.97367859 86.60041809 C-86.10765518 85.74518051 -85.24163177 84.88994293 -84.34936523 84.00878906 C-83.44213715 83.10112289 -82.53490906 82.19345673 -81.60018921 81.25828552 C-79.1131993 78.7704345 -76.6170649 76.29194476 -74.11920047 73.81501865 C-71.50998907 71.22455461 -68.90926471 68.62559861 -66.30763245 66.02752686 C-61.38020919 61.10942976 -56.44518818 56.1990303 -51.50739962 51.2913425 C-45.88609729 45.70356637 -40.27330601 40.10727443 -34.66121757 34.51024675 C-23.11692996 22.99732111 -11.56198775 11.49515053 0 0 Z " fill="#050202" transform="translate(433,307)"/>
<path d="M0 0 C3.3540696 2.04679354 6.18136915 4.26945136 9 7 C9.598125 7.54785156 10.19625 8.09570312 10.8125 8.66015625 C19.52484635 17.50863302 25.75140711 31.88946821 28 44 C27.70928125 45.34326896 27.38241896 46.67990734 27 48 C26.4028418 47.55849609 25.80568359 47.11699219 25.19042969 46.66210938 C19.12811433 42.28520701 13.00589771 38.6916703 6.25 35.5 C5.25846924 35.03078125 4.26693848 34.5615625 3.24536133 34.078125 C-16.00294547 25.20717946 -35.86542864 20.35000566 -57 19 C-56.6864901 11.63251734 -53.44456857 6.21446581 -48.0703125 1.19921875 C-33.59634072 -10.14905095 -15.63138028 -7.98310628 0 0 Z " fill="#C83440" transform="translate(178,22)"/>
<path d="M0 0 C5.30241688 4.14588233 8.58785863 9.17583028 10.80078125 15.52734375 C10.80078125 16.84734375 10.80078125 18.16734375 10.80078125 19.52734375 C9.62386719 19.60210937 8.44695312 19.676875 7.234375 19.75390625 C-19.31759884 21.74619126 -48.89629641 30.04212249 -70.546875 46.2890625 C-72.19921875 47.52734375 -72.19921875 47.52734375 -74.19921875 47.52734375 C-72.0827667 32.01885891 -64.76808689 14.3927195 -52.19921875 4.52734375 C-36.83656874 -5.91751744 -16.50387106 -11.05143764 0 0 Z " fill="#C83440" transform="translate(380.19921875,21.47265625)"/>
<path d="M0 0 C0.99346075 1.95225329 1.95595649 3.89672193 2.81542969 5.91210938 C5.27892821 11.46832383 8.54004776 14.74735512 13.25 18.5 C13.8996875 19.03625 14.549375 19.5725 15.21875 20.125 C16.80232529 21.42912083 18.39975879 22.71638405 20 24 C18.58889386 28.53162541 17.21168874 32.75966557 14.8125 36.875 C11.73976869 42.78409867 12.24267852 49.07890286 13.875 55.375 C19.37914813 62.1742418 28.20290407 63.77467853 36.41015625 65.421875 C39 66 39 66 40 67 C40.14431309 68.36669706 40.22689369 69.74006148 40.28125 71.11328125 C40.33732422 72.3672168 40.33732422 72.3672168 40.39453125 73.64648438 C40.44673828 74.96616211 40.44673828 74.96616211 40.5 76.3125 C40.5691703 78.03791468 40.64196154 79.76318882 40.71875 81.48828125 C40.74904297 82.25696533 40.77933594 83.02564941 40.81054688 83.81762695 C40.94004025 85.99807509 40.94004025 85.99807509 41.52514648 88.05249023 C42.30833982 91.26458958 41.83080526 94.48716128 41.5625 97.75 C41.48418945 98.79607422 41.48418945 98.79607422 41.40429688 99.86328125 C41.27525928 101.57596203 41.13840386 103.28805066 41 105 C38.36 105 35.72 105 33 105 C33 105.99 33 106.98 33 108 C30.75 108.375 30.75 108.375 28 108 C23.19306432 102.77201886 23.47299385 97.72556072 23.5 90.875 C23.73732937 83.90324551 23.73732937 83.90324551 21.5625 77.4765625 C17.7426304 75.2754791 13.78265465 74.43662884 9.5 73.5 C-1.05752474 71.19103908 -1.05752474 71.19103908 -4 67 C-5.05205937 61.21367345 -3.60750716 57.81196054 -1.0625 52.5625 C2.77222675 45.12452223 2.77222675 45.12452223 3 37 C1.0915859 34.12530029 -1.32127057 32.14397383 -4 30 C-5.42093497 28.77577006 -6.83767196 27.54664936 -8.25 26.3125 C-8.89453125 25.77238281 -9.5390625 25.23226563 -10.203125 24.67578125 C-12.92841825 22.13414907 -14.77011477 20.27445148 -15.4453125 16.53125 C-14.84061044 13.0939962 -13.40230524 11.86882736 -10.875 9.5 C-10.05902344 8.72785156 -9.24304688 7.95570313 -8.40234375 7.16015625 C-5.65650425 4.69113309 -2.89063202 2.29768186 0 0 Z " fill="#951B25" transform="translate(271,359)"/>
<path d="M0 0 C18.48 0 36.96 0 56 0 C56 13.2 56 26.4 56 40 C53.36 40 50.72 40 48 40 C48 37.36 48 34.72 48 32 C32.16 32 16.32 32 0 32 C0 21.44 0 10.88 0 0 Z " fill="#FFA930" transform="translate(328,160)"/>
<path d="M0 0 C-0.3125 1.875 -0.3125 1.875 -1 4 C-4.79305848 6.52870565 -7.83612492 6.29554941 -12.23168945 6.29052734 C-13.4907309 6.30060318 -13.4907309 6.30060318 -14.77520752 6.31088257 C-17.5546254 6.32990567 -20.33380229 6.33378915 -23.11328125 6.3359375 C-25.04518229 6.34236323 -26.97708235 6.34909141 -28.90898132 6.35610962 C-32.96172338 6.36809373 -37.01438014 6.37178936 -41.06713867 6.37060547 C-46.25580988 6.3704024 -51.44393264 6.39768727 -56.63247395 6.43214989 C-60.62424726 6.4544098 -64.61588849 6.45844326 -68.60771751 6.45738602 C-70.52025426 6.45974401 -72.43279454 6.46857868 -74.34527016 6.48405075 C-77.02394364 6.50368915 -79.70143363 6.497881 -82.38012695 6.48583984 C-83.16735641 6.49707886 -83.95458588 6.50831787 -84.76567078 6.51989746 C-89.97273633 6.46054246 -92.81138785 5.34050463 -97 2 C-97.639375 1.525625 -98.27875 1.05125 -98.9375 0.5625 C-100 -1 -100 -1 -99.8203125 -3.33984375 C-98.14692593 -8.76639734 -92.72661476 -12.55794563 -87.8359375 -15.14453125 C-62.0970095 -25.23140844 -22.52480047 -14.02487577 0 0 Z " fill="#DE3D3D" transform="translate(182,74)"/>
<path d="M0 0 C6.51299055 3.65059343 11.44298219 8.83214933 13.75 16 C14.68183712 23.02310922 14.24237895 28.94015983 10.3671875 34.9609375 C5.81914476 40.69542617 1.16487513 44.84941593 -6.25 46 C-13.12200232 46.71089679 -18.61830135 46.22377399 -24.25 42 C-30.88444904 35.80078964 -34.19803454 30.76708396 -34.625 21.625 C-34.45212074 14.90090668 -32.79515033 10.67335753 -28.15625 5.80078125 C-19.79637213 -1.95997204 -10.90570496 -4.94502958 0 0 Z " fill="#030101" transform="translate(378.25,298)"/>
<path d="M0 0 C6.5050875 3.68360377 11.85008743 8.78804102 13.9453125 16.1015625 C14.98243711 23.57601228 13.76585569 30.02744456 9.46875 36.234375 C4.89560658 41.89337896 0.37986492 45.52704559 -6.94921875 46.4765625 C-13.4837736 46.73958861 -18.78929928 46.15273404 -24.0546875 42.1015625 C-30.31146473 36.28629173 -34.10878598 30.36248449 -34.4921875 21.6640625 C-34.25525412 14.99347647 -32.56364046 10.73689929 -27.9609375 5.90234375 C-19.7156089 -1.75206963 -10.78488932 -4.67199659 0 0 Z " fill="#030101" transform="translate(426.0546875,377.8984375)"/>
<path d="M0 0 C3.73844007 3.16425562 7.45830118 6.41946626 8.49609375 11.36328125 C8.5 13.5625 8.5 13.5625 8 17 C4.01538577 18.30584045 -0.03260353 18.17001639 -4.17749023 18.19287109 C-4.99909637 18.20104858 -5.82070251 18.20922607 -6.66720581 18.21765137 C-9.38099446 18.24242731 -12.09473123 18.2589979 -14.80859375 18.2734375 C-15.7364525 18.27876118 -16.66431126 18.28408485 -17.62028694 18.28956985 C-22.52785541 18.31626256 -27.43539873 18.33565319 -32.34301758 18.35009766 C-36.40444354 18.36345761 -40.46536954 18.39135339 -44.52661133 18.43212891 C-49.43311266 18.48138729 -54.33915924 18.50620956 -59.24589729 18.51332474 C-61.1146345 18.52004359 -62.9833613 18.53528214 -64.85195732 18.55921555 C-67.46621708 18.5907999 -70.07871516 18.59091492 -72.69311523 18.58349609 C-73.46366745 18.59990143 -74.23421967 18.61630676 -75.02812195 18.63320923 C-79.03032757 18.58673084 -80.81514551 18.14547824 -83.99964905 15.63931274 C-86 13 -86 13 -86.3125 10.1875 C-86.209375 9.465625 -86.10625 8.74375 -86 8 C-62.22978719 -2.96217421 -24.25915594 -15.40608293 0 0 Z " fill="#DE3D3D" transform="translate(423,62)"/>
<path d="M0 0 C21.12 0 42.24 0 64 0 C64 4.95 64 9.9 64 15 C61.49348958 13.73046875 58.98697917 12.4609375 56.48046875 11.19140625 C52.12097603 9.09747668 48.82776329 8.59086752 44 9 C34.96005445 13.33917386 31.75691411 23.3031435 28 32 C23.79399285 32.15021454 20.17665465 32.17415298 16.125 31 C10.47242943 29.45028144 4.64515459 28.96493951 -0.875 31.125 C-3.49955705 33.44078563 -5.15813073 36.03985296 -7 39 C-7.33 39 -7.66 39 -8 39 C-8 34.05 -8 29.1 -8 24 C-5.36 24 -2.72 24 0 24 C0 16.08 0 8.16 0 0 Z " fill="#FDAB38" transform="translate(320,232)"/>
<path d="M0 0 C18.48 0 36.96 0 56 0 C56 5.28 56 10.56 56 16 C58.64 16 61.28 16 64 16 C64 20.95 64 25.9 64 31 C62.68 30.67 61.36 30.34 60 30 C53.21035512 29.43600394 47.49194732 30.10440236 41.09375 32.44140625 C39 33 39 33 36 32 C34.57228345 29.4318692 33.29199275 26.91038812 32.0625 24.25 C28.35877018 16.10275501 28.35877018 16.10275501 22.25 9.6875 C16.92863822 8.06152835 12.63963592 8.43018204 7.75 10.875 C6.49528368 11.57494505 5.24518401 12.28323442 4 13 C2.02 13.99 2.02 13.99 0 15 C0 10.05 0 5.1 0 0 Z " fill="#FDAC38" transform="translate(400,232)"/>
<path d="M0 0 C1.73618591 -0.00006042 1.73618591 -0.00006042 3.50744629 -0.00012207 C5.95179684 0.00523347 8.39614694 0.02281732 10.84033203 0.05175781 C14.58028833 0.09359939 18.31844293 0.09282635 22.05859375 0.0859375 C24.43490834 0.09643055 26.81121365 0.10936926 29.1875 0.125 C30.3053186 0.12520142 31.42313721 0.12540283 32.5748291 0.12561035 C34.14170471 0.14947815 34.14170471 0.14947815 35.74023438 0.17382812 C37.11326721 0.18645691 37.11326721 0.18645691 38.51403809 0.19934082 C41.63433226 0.676399 43.54257635 1.76301627 46.09375 3.59375 C47.09375 5.59375 47.09375 5.59375 47.09375 16.59375 C25.97375 16.59375 4.85375 16.59375 -16.90625 16.59375 C-16.90625 5.59375 -16.90625 5.59375 -15.15039062 2.44335938 C-10.19354155 -0.38273098 -5.61225981 -0.08231611 0 0 Z " fill="#A71E29" transform="translate(240.90625,79.40625)"/>
<path d="M0 0 C0.33 0 0.66 0 1 0 C1.268125 1.216875 1.53625 2.43375 1.8125 3.6875 C2.95697338 8.17796849 4.07708394 11.7557602 8.125 14.375 C15.83207192 16.05045042 24.1166949 13.06054546 31.5625 11.125 C43.94245147 8.01116721 56.31056353 6.26568511 69 5 C69 6.32 69 7.64 69 9 C67.82308594 9.07476562 66.64617187 9.14953125 65.43359375 9.2265625 C38.88161991 11.21884751 9.30292234 19.51477874 -12.34765625 35.76171875 C-14 37 -14 37 -16 37 C-14.31205606 24.6314453 -9.03882096 9.03882096 0 0 Z " fill="#A21D27" transform="translate(322,32)"/>
<path d="M0 0 C18.77875263 1.20629284 36.79434186 2.6484342 54.76367188 8.4621582 C59.92752813 10.04218855 63.68963869 10.11706629 69 9 C71.39795381 7.18712805 71.39795381 7.18712805 73 5 C73.66 4.34 74.32 3.68 75 3 C86.14208017 25.69270327 86.14208017 25.69270327 84 33 C83.4028418 32.55849609 82.80568359 32.11699219 82.19042969 31.66210938 C76.12811433 27.28520701 70.00589771 23.6916703 63.25 20.5 C62.25846924 20.03078125 61.26693848 19.5615625 60.24536133 19.078125 C40.99705453 10.20717946 21.13457136 5.35000566 0 4 C0 2.68 0 1.36 0 0 Z " fill="#A21D27" transform="translate(121,37)"/>
<path d="M0 0 C1.5671022 -0.01429802 1.5671022 -0.01429802 3.16586304 -0.02888489 C4.29400421 -0.02797348 5.42214539 -0.02706207 6.58447266 -0.02612305 C8.32490341 -0.03255074 8.32490341 -0.03255074 10.10049438 -0.03910828 C12.55673571 -0.0448554 15.01299406 -0.04534904 17.46923828 -0.04101562 C21.22669578 -0.03786014 24.98336281 -0.06129567 28.74072266 -0.08666992 C31.12613833 -0.08894331 33.51155612 -0.08964623 35.89697266 -0.08862305 C37.58311172 -0.10243767 37.58311172 -0.10243767 39.30331421 -0.11653137 C40.87987289 -0.10718819 40.87987289 -0.10718819 42.48828125 -0.09765625 C43.8703627 -0.09860039 43.8703627 -0.09860039 45.28036499 -0.0995636 C48.47469814 0.36141236 50.35417402 1.2638355 52.87353516 3.2746582 C52.87353516 4.5946582 52.87353516 5.9146582 52.87353516 7.2746582 C49.81788637 8.2932078 47.74595901 8.40139754 44.54760742 8.40405273 C43.45960342 8.4072049 42.37159943 8.41035706 41.25062561 8.41360474 C40.07559982 8.41158051 38.90057404 8.40955627 37.68994141 8.4074707 C35.87936501 8.40890579 35.87936501 8.40890579 34.0322113 8.41036987 C31.47760974 8.41105087 28.92300645 8.40920217 26.3684082 8.4050293 C22.4553641 8.3996846 18.54243503 8.40497465 14.62939453 8.41137695 C12.14957657 8.41071607 9.66975868 8.40943469 7.18994141 8.4074707 C5.43043907 8.41050705 5.43043907 8.41050705 3.63539124 8.41360474 C2.54423508 8.41045258 1.45307892 8.40730042 0.32885742 8.40405273 C-0.63028061 8.40325714 -1.58941864 8.40246155 -2.57762146 8.40164185 C-4.91107424 8.28538899 -6.89377584 7.93665962 -9.12646484 7.2746582 C-8.81396484 4.8996582 -8.81396484 4.8996582 -8.12646484 2.2746582 C-4.83250068 0.07868209 -3.8276936 0.01917346 0 0 Z " fill="#C93440" transform="translate(234.12646484375,79.725341796875)"/>
<path d="M0 0 C0.33 0 0.66 0 1 0 C1.17015625 0.556875 1.3403125 1.11375 1.515625 1.6875 C3.0412626 6.49163543 4.80128591 10.80874413 7.328125 15.17578125 C8.20687725 17.56169579 7.843259 18.62033485 7 21 C5.63305664 22.55566406 5.63305664 22.55566406 3.91015625 24.015625 C3.29076172 24.54414063 2.67136719 25.07265625 2.03320312 25.6171875 C1.05770508 26.42542969 1.05770508 26.42542969 0.0625 27.25 C-0.58396484 27.80429687 -1.23042969 28.35859375 -1.89648438 28.9296875 C-6.72371459 33 -6.72371459 33 -9 33 C-9.25394531 32.35933594 -9.50789063 31.71867187 -9.76953125 31.05859375 C-10.28580078 29.76115234 -10.28580078 29.76115234 -10.8125 28.4375 C-11.17472656 27.52097656 -11.53695313 26.60445313 -11.91015625 25.66015625 C-12.78849171 23.51626216 -13.74026923 21.45726776 -14.75 19.375 C-16.27332775 15.26201507 -16.22907253 12.35237802 -16 8 C-10.62100206 4.45215029 -6.41923331 3.29112169 0 3 C0 2.01 0 1.02 0 0 Z " fill="#941A24" transform="translate(283,317)"/>
<path d="M0 0 C5.13601551 -0.20963329 9.09875093 0.53822396 14 2 C16.66398213 2.42679995 19.31518741 2.71738815 22 3 C18.09436782 8.4174898 13.96624679 11.09364816 8 14 C7.175 14.433125 6.35 14.86625 5.5 15.3125 C1.68933685 16.36043237 -2.07355345 16.1539783 -6 16 C-5.37183502 12.05050296 -4.1354471 8.80107972 -2.4375 5.1875 C-1.98246094 4.21167969 -1.52742188 3.23585938 -1.05859375 2.23046875 C-0.70925781 1.49441406 -0.35992187 0.75835937 0 0 Z " fill="#FCAA36" transform="translate(436,456)"/>
<path d="M0 0 C5.28 0 10.56 0 16 0 C16 5.28 16 10.56 16 16 C10.72 16 5.44 16 0 16 C0 10.72 0 5.44 0 0 Z " fill="#000000" transform="translate(40,224)"/>
<path d="M0 0 C5.28 0 10.56 0 16 0 C16 5.28 16 10.56 16 16 C10.72 16 5.44 16 0 16 C0 10.72 0 5.44 0 0 Z " fill="#000000" transform="translate(408,192)"/>
<path d="M0 0 C4.0743356 0.84881992 5.54405875 2.30225596 8 5.625 C8.625 8.625 8.625 8.625 8 11.625 C5.54405875 14.94774404 4.0743356 16.40118008 0 17.25 C-4.0743356 16.40118008 -5.54405875 14.94774404 -8 11.625 C-8.625 8.625 -8.625 8.625 -8 5.625 C-5.54405875 2.30225596 -4.0743356 0.84881992 0 0 Z " fill="#F35C5C" transform="translate(368,311.375)"/>
<path d="M0 0 C1.8046875 0.640625 1.8046875 0.640625 3.8046875 2.328125 C5.14507256 5.42776546 5.35136619 7.29221802 4.8046875 10.640625 C2.31384502 14.01058835 0.91879885 15.45872927 -3.2578125 16.140625 C-6.62408491 15.56764246 -7.98534714 15.2598432 -10.1953125 12.640625 C-11.16586381 9.90651093 -11.50945273 7.52959322 -11.1953125 4.640625 C-8.1181485 -0.22327939 -5.38557002 -1.09743691 0 0 Z " fill="#F45C5C" transform="translate(419.1953125,392.359375)"/>
<path d="M0 0 C2.74124871 0.20968507 5.38177118 0.56475706 8 1.4375 C8 4.0775 8 6.7175 8 9.4375 C2.66164461 11.36221317 -2.34979382 12.83641424 -8 13.4375 C-8.32647149 9.35660634 -8.15000832 6.78126906 -6.5 3 C-3.82929233 0.26252464 -3.55599608 0.05307457 0 0 Z " fill="#941B25" transform="translate(303,284.5625)"/>
<path d="M0 0 C3.1875 -0.375 3.1875 -0.375 7 0 C9.2472877 1.80228024 10.37943424 3.54459733 12 6 C12 6.66 12 7.32 12 8 C8.04 8 4.08 8 0 8 C0 5.36 0 2.72 0 0 Z " fill="#FEAC38" transform="translate(320,464)"/>
<path d="M0 0 C1.32 0 2.64 0 4 0 C4.48635236 6.32258065 4.48635236 6.32258065 2.25 9.4375 C0 11 0 11 -4 11 C-3.39301257 6.87248551 -1.96189209 3.6678852 0 0 Z " fill="#E18914" transform="translate(436,456)"/>
</svg>
