<?xml version="1.0" encoding="UTF-8"?>
<svg version="1.1" xmlns="http://www.w3.org/2000/svg" width="30" height="30">
<path d="M0 0 C2.30569339 3.45854008 2.29761619 4.97937508 2.3125 9.0625 C2.32925781 10.12597656 2.34601562 11.18945312 2.36328125 12.28515625 C2.24339844 13.18105469 2.12351562 14.07695312 2 15 C-1 17 -1 17 -4 17 C-4 17.66 -4 18.32 -4 19 C-3.34 19.33 -2.68 19.66 -2 20 C-4.31 20 -6.62 20 -9 20 C-8.34 19.34 -7.68 18.68 -7 18 C-7.7425 17.7525 -8.485 17.505 -9.25 17.25 C-12.35557775 15.83837375 -13.93991267 14.72225826 -16 12 C-17.11764185 7.97648936 -17.18842355 5.63592948 -16 1.625 C-14 -1 -14 -1 -10.75 -2 C-6.72039358 -2 -3.74815881 -1.4698662 0 0 Z M-14 1 C-15.4783226 3.95664519 -15.06032783 6.74229737 -15 10 C-14.67 10 -14.34 10 -14 10 C-13.67 7.03 -13.34 4.06 -13 1 C-13.33 1 -13.66 1 -14 1 Z M-14 10 C-13 12 -13 12 -13 12 Z M-9 15 C-9 15.33 -9 15.66 -9 16 C-7.02 16 -5.04 16 -3 16 C-3 15.67 -3 15.34 -3 15 C-4.98 15 -6.96 15 -9 15 Z " fill="#60C1BC" transform="translate(22,6)"/>
<path d="M0 0 C2.30569339 3.45854008 2.29761619 4.97937508 2.3125 9.0625 C2.32925781 10.12597656 2.34601562 11.18945312 2.36328125 12.28515625 C2.24339844 13.18105469 2.12351562 14.07695312 2 15 C-1 17 -1 17 -4 17 C-4 17.66 -4 18.32 -4 19 C-3.34 19.33 -2.68 19.66 -2 20 C-4.31 20 -6.62 20 -9 20 C-8.34 19.34 -7.68 18.68 -7 18 C-7.7425 17.7525 -8.485 17.505 -9.25 17.25 C-12.35557775 15.83837375 -13.93991267 14.72225826 -16 12 C-17.11764185 7.97648936 -17.18842355 5.63592948 -16 1.625 C-14 -1 -14 -1 -10.75 -2 C-6.72039358 -2 -3.74815881 -1.4698662 0 0 Z M-12 2.125 C-13.22196677 5.63815447 -13.15046083 7.47192012 -12 11 C-9.87568495 13.27605184 -8.55893694 13.90218604 -5.5 14.4375 C-2.10165277 13.84278924 -0.98758966 12.79734842 1 10 C1.60605429 6.36367425 1.47161336 4.71685231 -0.5625 1.625 C-4.62322381 -1.0821492 -8.51766 -1.57498625 -12 2.125 Z M-14 1 C-15.4783226 3.95664519 -15.06032783 6.74229737 -15 10 C-14.67 10 -14.34 10 -14 10 C-13.67 7.03 -13.34 4.06 -13 1 C-13.33 1 -13.66 1 -14 1 Z M-14 10 C-13 12 -13 12 -13 12 Z M-9 15 C-9 15.33 -9 15.66 -9 16 C-7.02 16 -5.04 16 -3 16 C-3 15.67 -3 15.34 -3 15 C-4.98 15 -6.96 15 -9 15 Z " fill="#254A80" transform="translate(22,6)"/>
<path d="M0 0 C2.475 0.495 2.475 0.495 5 1 C4.67 2.65 4.34 4.3 4 6 C3.34 6 2.68 6 2 6 C1.34 4.02 0.68 2.04 0 0 Z " fill="#98C84D" transform="translate(12,14)"/>
<path d="M0 0 C1.32 0 2.64 0 4 0 C4 1.65 4 3.3 4 5 C3.01 5.495 3.01 5.495 2 6 C2 5.01 2 4.02 2 3 C1.34 3 0.68 3 0 3 C0 2.01 0 1.02 0 0 Z " fill="#AAD453" transform="translate(19,11)"/>
</svg>
