<?xml version="1.0" encoding="UTF-8"?>
<svg version="1.1" xmlns="http://www.w3.org/2000/svg" width="150" height="150">
<path d="M0 0 C10.06604235 -0.10849626 19.97112823 0.0232751 30 1 C30.17015625 1.61488281 30.3403125 2.22976562 30.515625 2.86328125 C31.92946961 7.79973922 31.92946961 7.79973922 34.8125 11.9375 C37.47209751 13.2293045 40.17930115 14.12244925 43 15 C43.495 15.495 43.495 15.495 44 16 C43.92701509 30.99839897 41.66987852 45.67034799 31.1875 57.1015625 C26.08581485 61.5290964 20.02190931 64.36380857 13.4375 65.75 C3.89573798 63.66816101 -3.54212567 57.98681846 -9 50 C-10.73494564 46.75280323 -11.95780812 43.52699672 -13 40 C-13.22429688 39.24332031 -13.44859375 38.48664062 -13.6796875 37.70703125 C-15.58327323 29.92319095 -15.17761931 21.95339782 -15 14 C-14.07767578 13.74476562 -14.07767578 13.74476562 -13.13671875 13.484375 C-8.23873071 12.08950749 -8.23873071 12.08950749 -4.125 9.25 C-2.61217178 6.22434357 -1.32439611 3.11196901 0 0 Z M17 29 C15.30712215 29.95495674 13.64142963 30.9590934 12 32 C9.6875 32.6875 9.6875 32.6875 8 33 C8.71563266 35.0162233 8.71563266 35.0162233 10 37 C11.86319633 37.91382835 11.86319633 37.91382835 14 38 C15.78525718 36.89475257 15.78525718 36.89475257 17.25 35.1875 C17.77078125 34.64480469 18.2915625 34.10210937 18.828125 33.54296875 C20.20160922 32.05747044 20.20160922 32.05747044 20 30 C19.01 29.67 18.02 29.34 17 29 Z " fill="#F4C451" transform="translate(61,20)"/>
<path d="M0 0 C3.70112072 0.13409858 6.18454174 0.98801566 8.94140625 3.6328125 C11.71486897 7.45770735 12.90948564 11.95720311 14.25 16.4375 C14.55035156 17.406875 14.85070312 18.37625 15.16015625 19.375 C15.87747424 21.72379936 16.57397793 24.07654412 17.25 26.4375 C19.46033336 26.52907371 19.46033336 26.52907371 22.3125 25.5625 C28.06038557 25.38002744 30.84239649 27.99584855 35.25 31.4375 C36.1265625 32.08847656 37.003125 32.73945312 37.90625 33.41015625 C45.29950867 39.0529522 49.46845602 43.66343678 50.9453125 53.00390625 C51.57789582 60.13263363 51.39155863 67.28878921 51.25 74.4375 C43.48875973 78.31812014 29.69147129 76.56561676 21.25 76.4375 C20.00700945 73.95151891 20.17325734 72.17081215 20.11328125 69.39453125 C19.55256936 62.71933786 16.72796208 59.07088945 12.4375 54.125 C11.17941696 52.60937693 9.92286962 51.09247762 8.66796875 49.57421875 C8.10875732 48.92155029 7.5495459 48.26888184 6.97338867 47.59643555 C2.56483465 42.07372083 0.48983503 37.68406168 -0.7421875 30.828125 C-0.97387131 29.61609406 -0.97387131 29.61609406 -1.2102356 28.37957764 C-1.53099391 26.68318273 -1.84492731 24.98548445 -2.15234375 23.28662109 C-2.62672913 20.67799156 -3.12819744 18.07558812 -3.6328125 15.47265625 C-3.94172262 13.82061431 -4.24907042 12.1682793 -4.5546875 10.515625 C-4.70557831 9.73544006 -4.85646912 8.95525513 -5.01193237 8.15142822 C-5.34595091 6.26023212 -5.5593254 4.3484773 -5.75 2.4375 C-3.75 0.4375 -3.75 0.4375 0 0 Z " fill="#1A387C" transform="translate(16.75,59.5625)"/>
<path d="M0 0 C1.93943544 2.75406882 1.99504024 4.04880311 1.64794922 7.46411133 C1.38156863 8.839681 1.09948586 10.21227052 0.8046875 11.58203125 C0.65597198 12.31443527 0.50725647 13.04683929 0.35403442 13.80143738 C0.03593236 15.35019952 -0.28895311 16.8975817 -0.62011719 18.44360352 C-1.12025694 20.79024567 -1.5928551 23.14122956 -2.0625 25.49414062 C-2.3759566 27.00294739 -2.69101079 28.51142331 -3.0078125 30.01953125 C-3.14655792 30.71456253 -3.28530334 31.40959381 -3.42825317 32.12568665 C-4.84483725 38.58671229 -7.7397099 43.72481243 -11.9453125 48.859375 C-12.46480469 49.50003906 -12.98429687 50.14070313 -13.51953125 50.80078125 C-14.04933594 51.44402344 -14.57914063 52.08726563 -15.125 52.75 C-16.19112929 54.05645579 -17.25627296 55.36371666 -18.3203125 56.671875 C-18.78711426 57.2400293 -19.25391602 57.80818359 -19.73486328 58.39355469 C-22.53294082 61.94649761 -23.28389555 64.11075658 -23.5625 68.5625 C-23.90381679 73.80763359 -23.90381679 73.80763359 -25 76 C-50.23404255 76.38297872 -50.23404255 76.38297872 -55 74 C-55.63391736 46.56546539 -55.63391736 46.56546539 -47 37 C-44.4629856 34.63901265 -41.78828724 32.55452744 -39 30.5 C-38.31421875 29.96375 -37.6284375 29.4275 -36.921875 28.875 C-33.76386333 26.51251799 -31.70519745 25.10171117 -27.75 24.53125 C-25.11176969 24.98094835 -23.26948277 25.60339522 -21 27 C-20.68546875 25.77023438 -20.3709375 24.54046875 -20.046875 23.2734375 C-19.61517083 21.64046957 -19.18284622 20.00766558 -18.75 18.375 C-18.54503906 17.56675781 -18.34007812 16.75851563 -18.12890625 15.92578125 C-16.53143417 9.97156714 -14.50205107 5.68076901 -10.25 1.125 C-6.80221427 -0.59889287 -3.82490982 -0.19124549 0 0 Z " fill="#18377B" transform="translate(137,60)"/>
<path d="M0 0 C10.06604235 -0.10849626 19.97112823 0.0232751 30 1 C30.17015625 1.61488281 30.3403125 2.22976562 30.515625 2.86328125 C31.92946961 7.79973922 31.92946961 7.79973922 34.8125 11.9375 C37.47209751 13.2293045 40.17930115 14.12244925 43 15 C43.495 15.495 43.495 15.495 44 16 C43.92701509 30.99839897 41.66987852 45.67034799 31.1875 57.1015625 C26.08581485 61.5290964 20.02190931 64.36380857 13.4375 65.75 C3.89573798 63.66816101 -3.54212567 57.98681846 -9 50 C-10.73494564 46.75280323 -11.95780812 43.52699672 -13 40 C-13.22429688 39.24332031 -13.44859375 38.48664062 -13.6796875 37.70703125 C-15.58327323 29.92319095 -15.17761931 21.95339782 -15 14 C-14.07767578 13.74476562 -14.07767578 13.74476562 -13.13671875 13.484375 C-8.23873071 12.08950749 -8.23873071 12.08950749 -4.125 9.25 C-2.61217178 6.22434357 -1.32439611 3.11196901 0 0 Z M3 5 C1.68 7.64 0.36 10.28 -1 13 C-4.01009453 15.39578952 -6.36636238 16.78878746 -10 18 C-10.70868761 29.85083163 -9.54435856 42.01126461 -1.57421875 51.38671875 C2.10164558 55.15379559 5.74251124 58.74821696 11 60 C18.11007481 60 22.53856587 57.43403563 28 53 C36.12652116 44.65384313 38.71612874 33.24981321 38.5859375 21.91015625 C38.27568887 18.9691099 38.27568887 18.9691099 36.3515625 17.37109375 C34.2367503 16.24293185 32.11836053 15.12148499 30 14 C28.68 11.03 27.36 8.06 26 5 C18.41 5 10.82 5 3 5 Z " fill="#1B397C" transform="translate(61,20)"/>
<path d="M0 0 C3.55444129 0.83712912 4.5593535 1.6233596 6.6640625 4.54296875 C7.05722656 5.25066406 7.45039062 5.95835938 7.85546875 6.6875 C8.99536324 8.87628056 8.99536324 8.87628056 11.25 10.17578125 C13.1015625 11.73046875 13.1015625 11.73046875 13.44921875 14.078125 C12.4561179 23.5329893 9.54788075 31.45988496 2.1015625 37.73046875 C-1.43274406 40.08667312 -2.73415037 40.22038488 -6.8984375 39.73046875 C-11.87952804 37.18909602 -15.45029723 33.75696951 -17.8984375 28.73046875 C-19.66337088 23.00502488 -21.5564606 16.76942267 -20.8984375 10.73046875 C-18.94861215 9.32478071 -16.93893172 8.00096515 -14.8984375 6.73046875 C-14.2178125 5.65796875 -13.5371875 4.58546875 -12.8359375 3.48046875 C-9.58164978 -0.66715286 -4.89322603 -0.20434465 0 0 Z M-0.8984375 16.73046875 C-2.59131535 17.68542549 -4.25700787 18.68956215 -5.8984375 19.73046875 C-8.2109375 20.41796875 -8.2109375 20.41796875 -9.8984375 20.73046875 C-9.18280484 22.74669205 -9.18280484 22.74669205 -7.8984375 24.73046875 C-6.03524117 25.6442971 -6.03524117 25.6442971 -3.8984375 25.73046875 C-2.11318032 24.62522132 -2.11318032 24.62522132 -0.6484375 22.91796875 C-0.12765625 22.37527344 0.393125 21.83257812 0.9296875 21.2734375 C2.30317172 19.78793919 2.30317172 19.78793919 2.1015625 17.73046875 C1.1115625 17.40046875 0.1215625 17.07046875 -0.8984375 16.73046875 Z " fill="#FB9004" transform="translate(78.8984375,32.26953125)"/>
<path d="M0 0 C-0.22118081 1.55496809 -0.44354637 3.10977113 -0.66943359 4.6640625 C-0.91022765 6.36562638 -1.13796065 8.06905385 -1.35791016 9.7734375 C-3.35250535 24.65127215 -5.72441529 35.69014159 -16.56298828 46.43701172 C-18.12589688 48.13693372 -19.30625628 49.92339615 -20.5546875 51.86328125 C-23 55 -23 55 -25.5078125 55.71875 C-26.37148437 55.6465625 -27.23515625 55.574375 -28.125 55.5 C-29.07246094 55.438125 -30.01992187 55.37625 -30.99609375 55.3125 C-31.98738281 55.209375 -32.97867188 55.10625 -34 55 C-35.04285156 54.9175 -36.08570312 54.835 -37.16015625 54.75 C-39.77832522 54.53378992 -42.38832849 54.28288898 -45 54 C-45.10933663 52.29313365 -45.18619084 50.58417396 -45.25 48.875 C-45.29640625 47.92367187 -45.3428125 46.97234375 -45.390625 45.9921875 C-44.66427914 40.42837819 -41.43217359 37.19345088 -37.25 33.75390625 C-35.8409522 32.68003307 -34.42407361 31.61636606 -33 30.5625 C-32.2884375 30.00884766 -31.576875 29.45519531 -30.84375 28.88476562 C-29.80734375 28.10842773 -29.80734375 28.10842773 -28.75 27.31640625 C-28.12609375 26.84662354 -27.5021875 26.37684082 -26.859375 25.89282227 C-25 25 -25 25 -22.765625 25.35522461 C-22.18296875 25.56800049 -21.6003125 25.78077637 -21 26 C-21.50178333 30.07812994 -23.45668473 31.53993643 -26.5625 34.0625 C-29.03387315 36.00564281 -29.03387315 36.00564281 -31 38 C-31 38.99 -31 39.98 -31 41 C-23.74850501 37.65862486 -15.88221947 32.94455564 -12.3671875 25.578125 C-11.39305189 22.06510052 -10.64905451 18.58623157 -10 15 C-6.21513944 0 -6.21513944 0 0 0 Z " fill="#F2B6B4" transform="translate(133,65)"/>
<path d="M0 0 C3.30857683 0.57044428 4.8859386 1.38588382 7 4 C7.82446289 6.50854492 7.82446289 6.50854492 8.47265625 9.48046875 C8.73369141 10.56263672 8.99472656 11.64480469 9.26367188 12.75976562 C9.79052222 15.02045597 10.29624974 17.28618746 10.77929688 19.55664062 C12.9648885 28.36681785 16.56419001 32.04684763 24 37 C24.88824463 37.73114014 25.77648926 38.46228027 26.69165039 39.21557617 C28.77744902 41.20386584 28.77744902 41.20386584 31 41 C30.49452628 36.91944849 28.49911118 35.33727705 25.4375 32.75 C24.61121094 32.04359375 23.78492187 31.3371875 22.93359375 30.609375 C22.29550781 30.07828125 21.65742187 29.5471875 21 29 C21.33 27.68 21.66 26.36 22 25 C27.1278305 25.44759052 30.17787463 28.02718634 34.0625 31.125 C34.67416016 31.58648437 35.28582031 32.04796875 35.91601562 32.5234375 C40.83362489 36.3937289 44.51307081 40.42107045 45.390625 46.87109375 C45.34421875 47.71800781 45.2978125 48.56492188 45.25 49.4375 C45.21390625 50.30246094 45.1778125 51.16742188 45.140625 52.05859375 C45.09421875 52.69925781 45.0478125 53.33992188 45 54 C42.38109715 54.28367226 39.76790281 54.53120082 37.140625 54.7265625 C34.03909029 54.94595618 34.03909029 54.94595618 31.171875 55.5234375 C28.03114817 55.92724524 26.03107738 55.96941838 23 55 C19.52321927 51.63520928 16.91465331 47.96847318 14.32446289 43.90136719 C13.01393606 41.93339604 13.01393606 41.93339604 11.26733398 40.09082031 C5.30766954 33.41599613 4.01085648 26.1802179 2.5625 17.625 C2.30762713 16.2456689 2.05047979 14.86675606 1.79101562 13.48828125 C0 3.79926719 0 3.79926719 0 0 Z " fill="#F2B6B5" transform="translate(17,65)"/>
<path d="M0 0 C0.99 1.485 0.99 1.485 2 3 C3.94098042 3.48988945 3.94098042 3.48988945 6.17578125 3.4765625 C7.00400391 3.5075 7.83222656 3.5384375 8.68554688 3.5703125 C9.55244141 3.58835937 10.41933594 3.60640625 11.3125 3.625 C21.78925692 3.94080277 21.78925692 3.94080277 26 5 C24.79618552 7.49361571 23.54571278 9.68143083 22 12 C19.78515625 12.328125 19.78515625 12.328125 17.0625 12.25 C15.60070312 12.21132812 15.60070312 12.21132812 14.109375 12.171875 C9.38844299 11.91091896 4.70300244 11.48862363 0 11 C0 7.37 0 3.74 0 0 Z " fill="#F07B9D" transform="translate(88,108)"/>
<path d="M0 0 C0.33 0 0.66 0 1 0 C1 3.3 1 6.6 1 10 C-2.66785463 10.38107581 -6.32405181 10.71863113 -10 11 C-11.00289062 11.07992187 -12.00578125 11.15984375 -13.0390625 11.2421875 C-20.34701851 11.57705341 -20.34701851 11.57705341 -23.6875 8.625 C-25 6 -25 6 -25 4 C-16.64736824 3.04541351 -8.40215965 2.88960666 0 3 C0 2.01 0 1.02 0 0 Z " fill="#F27B9D" transform="translate(61,109)"/>
<path d="M0 0 C7.06608191 -0.13794954 13.97360585 0.25194283 21 1 C21 3.31 21 5.62 21 8 C13.90565767 8.09733092 7.01805857 8.10087193 0 7 C0 4.69 0 2.38 0 0 Z " fill="#5FBAC7" transform="translate(87,123)"/>
<path d="M0 0 C0 2.31 0 4.62 0 7 C-7.01805857 8.10087193 -13.90565767 8.09733092 -21 8 C-21 5.69 -21 3.38 -21 1 C-13.97360585 0.25194283 -7.06608191 -0.13794954 0 0 Z " fill="#60BAC7" transform="translate(63,123)"/>
<path d="M0 0 C0.680625 0.309375 1.36125 0.61875 2.0625 0.9375 C1.21965945 5.93909328 -1.92867856 9.01739006 -5.9375 11.9375 C-8.875 11.875 -8.875 11.875 -10.9375 10.9375 C-10.02604066 5.52870836 -5.73729902 -0.12207019 0 0 Z " fill="#FCCD5E" transform="translate(111.9375,20.0625)"/>
<path d="M0 0 C3.740665 0.55570855 5.3425749 2.009785 7.8125 4.8125 C8.43769531 5.49957031 9.06289063 6.18664062 9.70703125 6.89453125 C11 9 11 9 10.69921875 11.26171875 C10.46847656 11.83535156 10.23773438 12.40898437 10 13 C4.99840672 12.15715945 1.92010994 9.00882144 -1 5 C-0.9375 2.0625 -0.9375 2.0625 0 0 Z " fill="#FCCD5B" transform="translate(39,18)"/>
<path d="M0 0 C0.33 1.32 0.66 2.64 1 4 C-0.5552912 4.70365602 -2.11964827 5.38729378 -3.6875 6.0625 C-4.55761719 6.44535156 -5.42773438 6.82820313 -6.32421875 7.22265625 C-9.32213864 8.0935848 -11.03280153 7.85006226 -14 7 C-13.734375 5.109375 -13.734375 5.109375 -13 3 C-9.11421304 0.56684368 -4.54771913 -0.42634867 0 0 Z " fill="#FCCD5B" transform="translate(129,37)"/>
<path d="M0 0 C3.19496956 0.49921399 6.1982808 1.32665761 9.25 2.375 C9.93578125 2.60960937 10.6215625 2.84421875 11.328125 3.0859375 C13 4 13 4 14 7 C13.67 7.66 13.34 8.32 13 9 C7.72250715 8.46148032 3.74354436 7.22656164 -1 5 C-0.67 3.35 -0.34 1.7 0 0 Z " fill="#FCCD5B" transform="translate(22,34)"/>
</svg>
