<?xml version="1.0" encoding="UTF-8"?>
<svg id="Layer_2" data-name="Layer 2" xmlns="http://www.w3.org/2000/svg" viewBox="0 0 520.78 156.14">
  <defs>
    <style>
      .cls-1 {
        fill: #e86b1e;
      }

      .cls-2 {
        fill: #103b6f;
      }
    </style>
  </defs>
  <g id="Layer_4" data-name="Layer 4">
    <g id="Layer_1-2" data-name="Layer 1">
      <g>
        <path class="cls-2" d="M63.43,42.79c-17.13-25.83-54.74-9.24-54.74-9.24-2.86,3.35,0,14.1,0,14.1,0,0,39.23-15.73,44.69,10.92v.32h-2.49l-23.78.54c-12.81.49-20.75,10.16-20.75,10.16-14.32,19.4,0,33.34,0,33.34,14.59,16.91,42.48,7.94,42.48,7.94,18.43-4.59,18.7-20.97,18.7-20.97v-34.59c0-5.62-4.11-12.54-4.11-12.54ZM53.38,91.32s-2.92,7.19-18.27,7.67c0,0-19.13,1.24-20.48-12.1,0,0-2.38-12.1,14.16-13.29l21.67-.54,2.92.11v18.16Z"/>
        <path class="cls-1" d="M251.92,43.5c-17.13-25.83-54.74-9.24-54.74-9.24-2.13,2.5-1.09,9.1-.42,12.31.2.96,1.16,1.5,2.09,1.18,7.54-2.63,38.24-11.81,43.02,11.53v.32h-2.49l-23.78.54c-12.81.49-20.75,10.16-20.75,10.16-14.32,19.4,0,33.34,0,33.34,14.59,16.91,42.48,7.94,42.48,7.94,18.43-4.59,18.7-20.97,18.7-20.97v-34.59c0-5.62-4.11-12.54-4.11-12.54ZM241.86,92.02s-2.92,7.19-18.27,7.67c0,0-19.13,1.24-20.48-12.1,0,0-2.38-12.1,14.16-13.29l21.67-.54,2.92.11v18.16Z"/>
        <path class="cls-2" d="M136.35,87.47v3.13c0,.59-.05,1.13-.11,1.73-.11,1.62-.32,3.19-.76,4.65,0,.05-.05.11-.05.16-.49,1.19-1.03,2.32-1.78,3.35-.22.38-.38.7-.59,1.03-.11.22-.27.43-.43.65-.54.76-1.19,1.51-1.84,2.27-.22.22-.43.43-.59.65-.27.22-.59.54-.92.81-.11.16-.27.27-.43.43-.11.05-.16.11-.22.16-.05.05-.11.05-.11.05-1.19,1.03-2.43,1.89-3.67,2.59-.43.27-.86.49-1.3.7-.43.22-.81.38-1.19.54-.11.05-.22.11-.32.11-.49.22-.97.43-1.51.59-.54.22-1.03.38-1.57.54-.7.22-1.35.38-1.95.49-.11.05-.16.05-.22.05-.11.05-.22.05-.32.05-.11.05-.22.05-.27.05-.27.05-.49.11-.7.16-.43.05-.76.11-1.03.11-.22.05-.32.05-.32.05-.27.05-.54.05-.81.11-6.38.86-12.32.59-17.24-.05-.16,0-.27,0-.38-.05-1.46-.22-2.81-.43-4.05-.65-2.16-.43-4-.86-5.46-1.3-2.49-.7-3.89-1.3-3.89-1.3-.92-.32-1.78-.7-2.59-1.13-.59-.32-.92-.97-.92-1.62v-11.4c0-.97.92-1.68,1.89-1.4,1.78.59,4.7,1.57,7.46,2.38,0,0,13.67,4.81,24.75,1.78,11.13-3.03,8.97-10.32,8.97-10.32,0,0-1.73-7.57-11.67-9.24,0,0-2.54-.38-6.16-1.24-.76-.22-1.46-.43-2.16-.59-5.03-1.35-11.35-3.67-16.05-7.24-.86-.65-1.62-1.35-2.32-2.16-.38-.32-.7-.7-.92-1.13-.27-.43-.54-.86-.81-1.3-.16-.11-.22-.22-.22-.32-.54-.97-.97-2.05-1.3-3.13-.05-.05-.05-.16-.05-.27-.05-.16-.05-.27-.05-.27-.11-.32-.16-.7-.22-1.03-.43-1.89-.7-3.68-.81-5.35-.27-3.24,0-6,.7-8.43,0-.11.05-.16.05-.27.16-.54.32-1.08.54-1.62,0-.05.05-.11.05-.16.97-2.81,3.24-6.7,8.38-9.94,1.19-.76,2.49-1.41,3.89-1.84.16-.05.32-.11.49-.22.49-.16.92-.32,1.3-.49.7-.22,1.35-.49,2.05-.65.81-.22,1.24-.27,1.24-.27,1.62-.32,3.24-.54,4.86-.59,8.59-.43,24.21-.32,28.64,5.78.11.38.22.76.27,1.13l-.59,10.43c-.05.76-.81,1.24-1.51,1.03-6.38-2.16-32.59-10.32-35.61,4.81-.05.59-.7,6.32,8.05,8.27,1.68.38,3.4.65,5.08,1.03,5.13,1.24,10.11,2.97,14.81,5.24,3.73,1.89,7.24,4.22,10.11,7.24.97.97,1.84,2,2.54,3.19,1.13,1.84,1.41,3.67,1.62,5.78.11,1.24.22,2.43.27,3.67Z"/>
        <path class="cls-1" d="M183.48,32.05c4.38,6.16.38,13.08.38,13.08h-21.24v66.47c-7.19,3.73-14,0-14,0,0-2.45,0-4.91,0-7.36,0-6.06,0-12.11,0-18.17,0-7.7,0-15.4,0-23.11,0-7.39,0-14.78,0-22.17,0-5.12,0-10.25,0-15.37,0-8,2.96-16.14,9.6-21.04,3.45-2.55,7.74-3.71,11.96-4.18,2.9-.33,5.84-.24,8.71.27,2.11.37,6.22.93,7.05,3.35.64,1.86.71,4.26.7,6.22-.01,1.79-.17,3.97-1.24,5.5-.06.09-.12.18-.2.26h-16.27c-8.43.16-6.05,16.27-6.05,16.27h20.59Z"/>
        <path class="cls-1" d="M311.84,32.1s-16.74-4.59-39.76,6.81c-.83.41-1.37,1.28-1.37,2.2v70.85s5.46,2.9,14.51,0l.17-62.97s7.51-4.78,26.45-5.12c0,0,2.65-6.4,0-11.77Z"/>
        <path class="cls-2" d="M411.36,31.37s-16.74-4.59-39.76,6.81c-.83.41-1.37,1.28-1.37,2.2v70.85s5.46,2.9,14.51,0l.17-62.97s7.51-4.78,26.45-5.12c0,0,2.65-6.4,0-11.77Z"/>
        <path class="cls-2" d="M360.58,109.06c-.7.76-2.22,1.4-2.22,1.4-5.49,1.73-11.47,2.73-17.19,1.52-3.91-.83-7.48-2.76-10.27-5.62-4.71-4.85-6.71-11.38-6.92-18.01-.12-3.73.03-7.46.1-11.18.07-3.61,0-7.22,0-10.84V10.01c0-.09-.08-1.27,0-1.3,6.11-2.43,14.59,0,14.59,0v20.1l20.32.16c2.38,6.27-.11,13.08-.11,13.08h-20.21l-.11,1.51v30.1c0,2.49.05,5.13,0,7.67,0,2.54-.32,5.19-.11,7.73.43,5.35,3.03,6.92,3.03,6.92,4.22,3.24,14.32,1.19,17.83.32.05,0,.11-.05.16-.05.32-.05.59-.16.76-.16.22-.05.32-.11.32-.11,4.21,6.65,0,13.08,0,13.08Z"/>
        <path class="cls-2" d="M435.37,33.87v77.66c-8.75,3.89-14.32,0-14.32,0V33.87c8.75-3.95,14.32,0,14.32,0Z"/>
        <path class="cls-2" d="M520.28,64.38c-.05-.38-.11-.76-.22-1.08v-.11c-3.62-24.32-17.13-31.45-26.05-33.34-.11-.05-.16-.05-.16-.05-.54-.11-1.19-.22-1.78-.32-1.3-.16-2.65-.27-4-.38-.54,0-1.13-.05-1.68-.05h-.38c-.92-.05-1.84-.05-2.65-.05-3.57,0-6.32.16-6.32.16-22.86,2.05-26.16,22.43-26.16,22.43v102.41s5.13,4.86,14.32,0v-43.5c3.03.65,8.21,1.73,11.13,2.22.59.11,1.08.16,1.46.22h.11c19.02,2.81,29.83-7.03,29.83-7.03,16.86-13.35,12.54-41.5,12.54-41.5ZM500.07,93.02c-5.67,6.54-14.86,6.54-22.8,5.62-.97-.05-1.95-.22-3.03-.43l-9.02-2.32v-42.1c0-.78.05-1.58.25-2.33.64-2.38,3.12-3.93,5.13-5.05,4.05-2.25,8.6-3.75,13.27-3.54,4.77.22,9.6,1.75,13.44,4.62,1.67,1.25,3.15,2.76,4.27,4.51.76,1.13,1.35,2.43,1.78,3.73.7,2.05,1.35,4.65,1.78,7.62.43,2.97.76,6.21.81,9.51.05,6.92-1.13,14.75-5.89,20.16Z"/>
        <circle class="cls-2" cx="377.76" cy="10.27" r="8.21"/>
        <circle class="cls-1" cx="428.21" cy="10.27" r="8.21"/>
        <circle class="cls-1" cx="402.99" cy="10.27" r="8.21"/>
      </g>
    </g>
  </g>
</svg>