<?xml version="1.0" encoding="UTF-8"?>
<svg id="Layer_2" data-name="Layer 2" xmlns="http://www.w3.org/2000/svg" viewBox="0 0 300.91 90.22">
  <defs>
    <style>
      .cls-1 {
        fill: #fff;
        stroke-width: 0px;
      }
    </style>
  </defs>
  <g id="Layer_4" data-name="Layer 4">
    <g id="Layer_1-2" data-name="Layer 1">
      <g>
        <path class="cls-1" d="M36.65,24.72c-9.9-14.93-31.63-5.34-31.63-5.34-1.65,1.94,0,8.15,0,8.15,0,0,22.67-9.09,25.82,6.31v.19h-1.44l-13.74.31c-7.4.28-11.99,5.87-11.99,5.87-8.27,11.21,0,19.27,0,19.27,8.43,9.77,24.54,4.59,24.54,4.59,10.65-2.65,10.8-12.12,10.8-12.12v-19.98c0-3.25-2.37-7.24-2.37-7.24ZM30.84,52.76s-1.69,4.15-10.55,4.43c0,0-11.05.72-11.83-6.99,0,0-1.37-6.99,8.18-7.68l12.52-.31,1.69.06v10.49Z"/>
        <path class="cls-1" d="M145.56,25.13c-9.9-14.93-31.63-5.34-31.63-5.34-1.23,1.44-.63,5.26-.24,7.11.12.55.67.87,1.21.68,4.36-1.52,22.1-6.82,24.86,6.66v.19h-1.44l-13.74.31c-7.4.28-11.99,5.87-11.99,5.87-8.27,11.21,0,19.27,0,19.27,8.43,9.77,24.54,4.59,24.54,4.59,10.65-2.65,10.8-12.12,10.8-12.12v-19.98c0-3.25-2.37-7.24-2.37-7.24ZM139.75,53.17s-1.69,4.15-10.55,4.43c0,0-11.05.72-11.83-6.99,0,0-1.37-6.99,8.18-7.68l12.52-.31,1.69.06v10.49Z"/>
        <path class="cls-1" d="M78.78,50.54v1.81c0,.34-.03.66-.06,1-.06.94-.19,1.84-.44,2.69,0,.03-.03.06-.03.09-.28.69-.59,1.34-1.03,1.94-.13.22-.22.41-.34.59-.06.12-.16.25-.25.37-.31.44-.69.87-1.06,1.31-.12.12-.25.25-.34.37-.16.13-.34.31-.53.47-.06.09-.16.16-.25.25-.06.03-.09.06-.12.09-.03.03-.06.03-.06.03-.69.59-1.41,1.09-2.12,1.5-.25.16-.5.28-.75.41-.25.12-.47.22-.69.31-.06.03-.12.06-.19.06-.28.13-.56.25-.87.34-.31.13-.59.22-.91.31-.41.12-.78.22-1.12.28-.06.03-.09.03-.12.03-.06.03-.13.03-.19.03-.06.03-.13.03-.16.03-.16.03-.28.06-.41.09-.25.03-.44.06-.59.06-.13.03-.19.03-.19.03-.16.03-.31.03-.47.06-3.68.5-7.12.34-9.96-.03-.09,0-.16,0-.22-.03-.84-.12-1.62-.25-2.34-.37-1.25-.25-2.31-.5-3.15-.75-1.44-.41-2.25-.75-2.25-.75-.53-.19-1.03-.41-1.5-.66-.34-.19-.53-.56-.53-.94v-6.59c0-.56.53-.97,1.09-.81,1.03.34,2.72.91,4.31,1.37,0,0,7.9,2.78,14.3,1.03,6.43-1.75,5.18-5.96,5.18-5.96,0,0-1-4.37-6.74-5.34,0,0-1.47-.22-3.56-.72-.44-.12-.84-.25-1.25-.34-2.9-.78-6.56-2.12-9.27-4.18-.5-.37-.94-.78-1.34-1.25-.22-.19-.41-.41-.53-.66-.16-.25-.31-.5-.47-.75-.09-.06-.12-.13-.12-.19-.31-.56-.56-1.19-.75-1.81-.03-.03-.03-.09-.03-.16-.03-.09-.03-.16-.03-.16-.06-.19-.09-.41-.12-.59-.25-1.09-.41-2.12-.47-3.09-.16-1.87,0-3.47.41-4.87,0-.06.03-.09.03-.16.09-.31.19-.62.31-.94,0-.03.03-.06.03-.09.56-1.62,1.87-3.87,4.84-5.75.69-.44,1.44-.81,2.25-1.06.09-.03.19-.06.28-.12.28-.09.53-.19.75-.28.41-.12.78-.28,1.19-.37.47-.12.72-.16.72-.16.94-.19,1.87-.31,2.81-.34,4.96-.25,13.99-.19,16.55,3.34.06.22.12.44.16.66l-.34,6.03c-.03.44-.47.72-.87.59-3.68-1.25-18.83-5.96-20.58,2.78-.03.34-.41,3.65,4.65,4.78.97.22,1.97.37,2.94.59,2.97.72,5.84,1.72,8.56,3.03,2.15,1.09,4.18,2.44,5.84,4.18.56.56,1.06,1.16,1.47,1.84.66,1.06.81,2.12.94,3.34.06.72.12,1.41.16,2.12Z"/>
        <path class="cls-1" d="M106.02,18.52c2.53,3.56.22,7.56.22,7.56h-12.27v38.41c-4.15,2.15-8.09,0-8.09,0,0-1.42,0-2.84,0-4.25,0-3.5,0-7,0-10.5,0-4.45,0-8.9,0-13.35,0-4.27,0-8.54,0-12.81,0-2.96,0-5.92,0-8.88,0-4.62,1.71-9.33,5.55-12.16,2-1.47,4.47-2.14,6.91-2.42,1.67-.19,3.38-.14,5.03.16,1.22.21,3.6.54,4.08,1.94.37,1.08.41,2.46.4,3.59,0,1.03-.1,2.3-.72,3.18-.04.05-.07.1-.12.15h-9.4c-4.87.09-3.5,9.4-3.5,9.4h11.9Z"/>
        <path class="cls-1" d="M180.18,18.55s-9.67-2.65-22.97,3.94c-.48.24-.79.74-.79,1.27v40.94s3.16,1.68,8.38,0l.1-36.38s4.34-2.76,15.28-2.96c0,0,1.53-3.7,0-6.8Z"/>
        <path class="cls-1" d="M237.68,18.12s-9.67-2.65-22.97,3.94c-.48.24-.79.74-.79,1.27v40.94s3.16,1.68,8.38,0l.1-36.38s4.34-2.76,15.28-2.96c0,0,1.53-3.7,0-6.8Z"/>
        <path class="cls-1" d="M208.35,63.02c-.41.44-1.28.81-1.28.81-3.17,1-6.63,1.58-9.93.88-2.26-.48-4.32-1.59-5.93-3.25-2.72-2.8-3.87-6.57-4-10.4-.07-2.15.01-4.31.06-6.46s0-4.17,0-6.26V5.79c0-.05-.04-.74,0-.75,3.53-1.41,8.43,0,8.43,0v11.62l11.74.09c1.37,3.62-.06,7.56-.06,7.56h-11.68l-.06.87v17.39c0,1.44.03,2.97,0,4.43,0,1.47-.19,3-.06,4.47.25,3.09,1.75,4,1.75,4,2.44,1.87,8.27.69,10.3.19.03,0,.06-.03.09-.03.19-.03.34-.09.44-.09.12-.03.19-.06.19-.06,2.44,3.84,0,7.56,0,7.56Z"/>
        <path class="cls-1" d="M251.56,19.57v44.87c-5.06,2.25-8.27,0-8.27,0V19.57c5.06-2.28,8.27,0,8.27,0Z"/>
        <path class="cls-1" d="M300.62,37.2c-.03-.22-.06-.44-.12-.62v-.06c-2.09-14.05-9.9-18.17-15.05-19.27-.06-.03-.09-.03-.09-.03-.31-.06-.69-.12-1.03-.19-.75-.09-1.53-.16-2.31-.22-.31,0-.66-.03-.97-.03h-.22c-.53-.03-1.06-.03-1.53-.03-2.06,0-3.65.09-3.65.09-13.21,1.19-15.11,12.96-15.11,12.96v59.17s2.97,2.81,8.27,0v-25.14c1.75.37,4.75,1,6.43,1.28.34.06.62.09.84.13h.06c10.99,1.62,17.24-4.06,17.24-4.06,9.74-7.71,7.24-23.98,7.24-23.98ZM288.94,53.75c-3.28,3.78-8.59,3.78-13.18,3.25-.56-.03-1.12-.12-1.75-.25l-5.21-1.34v-24.32c0-.45.03-.91.15-1.35.37-1.37,1.8-2.27,2.96-2.92,2.34-1.3,4.97-2.17,7.67-2.04,2.76.13,5.55,1.01,7.77,2.67.96.72,1.82,1.59,2.47,2.61.44.66.78,1.41,1.03,2.15.41,1.19.78,2.69,1.03,4.4.25,1.72.44,3.59.47,5.5.03,4-.66,8.52-3.4,11.65Z"/>
        <circle class="cls-1" cx="218.27" cy="5.93" r="4.75"/>
        <circle class="cls-1" cx="247.42" cy="5.93" r="4.75"/>
        <circle class="cls-1" cx="232.85" cy="5.93" r="4.75"/>
        <path class="cls-1" d="M202.38,71.35v9.96l-.41.17c-.86.3-1.85.47-2.9.47-1.87,0-2.9-.99-2.9-2.8v-7.81c-.67-.13-1.33-.13-2,0v8.43c0,2.71,1.51,3.98,4.73,3.98,1.89,0,3.74-.37,5.53-1.08v-11.33c-.69-.11-1.35-.11-2.04,0Z"/>
        <path class="cls-1" d="M214.53,71.59c0,.76-.17,1.46-.53,2.05-.42-.17-.89-.27-1.35-.27-.95,0-1.84.3-2.68.91l-.23.15v9.23c-.72.15-1.46.15-2.18,0v-10.86c1.67-1.01,3.32-1.54,4.86-1.54.82,0,1.54.13,2.11.34Z"/>
        <path class="cls-1" d="M238.47,72.75c-.9-1.01-2.21-1.5-3.98-1.5-1.97,0-3.73.49-5.23,1.5v15.53c.62.11,1.35.11,1.99,0v-6.25l1.07.92c.71.6,1.61.9,2.76.9,1.52,0,2.66-.54,3.47-1.61.86-1.14,1.28-2.76,1.28-4.88s-.47-3.58-1.37-4.6ZM237.02,80.76c-.56.84-1.43,1.26-2.59,1.26-1.22,0-2.23-.45-3.02-1.33l-.17-.17v-6.66l.32-.19c.75-.43,1.65-.64,2.72-.64,1.18,0,2.1.39,2.68,1.16.56.73.84,1.78.84,3.21s-.26,2.61-.77,3.36Z"/>
        <path class="cls-1" d="M251.96,78.02c.19-.83.3-1.71.28-2.56,0-1.36-.41-2.39-1.22-3.11-.81-.72-1.98-1.09-3.48-1.09-1.83,0-3.2.51-4.18,1.6-.98,1.09-1.49,2.66-1.49,4.71,0,1.36.23,2.54.68,3.45.45.92,1.07,1.58,1.92,2.05.85.49,1.92.73,3.16.73,1.62,0,3.05-.38,4.26-1.11-.04-.55-.19-1-.47-1.39-.94.49-2.03.75-3.22.75s-2.13-.26-2.81-.77c-.7-.53-1.17-1.34-1.41-2.39l-.19-.92.94.15c2.35.38,4.78.36,7.23-.11ZM243.86,76.74l.09-.64c.13-1.04.49-1.83,1.07-2.37.58-.53,1.39-.81,2.39-.81,2.6,0,2.98,1.56,2.98,2.47,0,.34-.02.64-.06.92l-.06.47-.47.06c-.77.13-1.58.19-2.43.19-.92,0-1.88-.06-2.88-.21l-.62-.09Z"/>
        <polygon class="cls-1" points="184.92 69.05 184.92 74 192.08 74 192.08 76.41 184.92 76.41 184.92 81.35 192.08 81.35 192.08 83.76 182.32 83.76 182.32 66.65 192.08 66.65 192.08 69.05 184.92 69.05"/>
        <path class="cls-1" d="M221.68,71.25c-1.8,0-3.19.55-4.16,1.64-.96,1.09-1.45,2.66-1.45,4.69,0,4.22,1.86,6.33,5.61,6.33,1.78,0,3.15-.55,4.12-1.64.96-1.09,1.45-2.66,1.45-4.69,0-4.22-1.86-6.33-5.57-6.33ZM224.28,80.88c-.55.76-1.41,1.17-2.58,1.17s-2.09-.41-2.62-1.15-.78-1.82-.78-3.3c0-1,.1-1.78.31-2.42.25-.68.63-1.21,1.15-1.56.51-.33,1.15-.51,1.94-.51,1.17,0,2.05.39,2.6,1.17.51.7.74,1.8.74,3.32s-.23,2.56-.76,3.28Z"/>
      </g>
    </g>
  </g>
</svg>