<?xml version="1.0" encoding="UTF-8"?>
<svg version="1.1" xmlns="http://www.w3.org/2000/svg" width="225" height="225">
<path d="M0 0 C9.51201338 7.92158027 16.57504667 16.06475081 22.4296875 27.0234375 C22.91050781 27.90386719 23.39132813 28.78429687 23.88671875 29.69140625 C33.20106763 48.29196399 34.53869747 71.2428402 28.16601562 90.98388672 C20.13577864 113.22679115 4.83831757 130.07489365 -16.05078125 140.8125 C-35.03897012 149.52346574 -57.66164282 151.18655374 -77.55810547 144.33935547 C-99.43872499 136.21466289 -115.82504848 121.22692186 -126.35546875 100.51171875 C-135.44546986 80.56731827 -136.72756623 58.04328595 -129.43896484 37.28613281 C-124.69979575 24.9413832 -118.06044569 15.15336125 -108.5703125 6.0234375 C-107.84199219 5.28738281 -107.11367187 4.55132812 -106.36328125 3.79296875 C-77.20283065 -24.17725938 -31.3533626 -23.33027992 0 0 Z " fill="#5BFCAE" transform="translate(163.5703125,46.9765625)"/>
<path d="M0 0 C6.27 0 12.54 0 19 0 C19 13.71428571 19 13.71428571 13.46875 19.640625 C11.44175655 21.36953117 9.38427767 22.80786117 7 24 C10.72953469 23.52366991 14.45855688 23.04343748 18.1875 22.5625 C19.24259766 22.42779297 20.29769531 22.29308594 21.38476562 22.15429688 C22.91713867 21.95610352 22.91713867 21.95610352 24.48046875 21.75390625 C25.41785889 21.63345947 26.35524902 21.5130127 27.32104492 21.38891602 C29.96725248 21.04086754 29.96725248 21.04086754 32.4074707 20.45288086 C35 20 35 20 42 20 C42 24.62 42 29.24 42 34 C34.08 34.99 26.16 35.98 18 37 C18 38.98 18 40.96 18 43 C18.58491211 42.90912109 19.16982422 42.81824219 19.77246094 42.72460938 C22.43117164 42.31330546 25.09056718 41.9066075 27.75 41.5 C28.67039063 41.35691406 29.59078125 41.21382812 30.5390625 41.06640625 C31.42851562 40.93105469 32.31796875 40.79570313 33.234375 40.65625 C34.05131836 40.53056641 34.86826172 40.40488281 35.70996094 40.27539062 C38 40 38 40 42 40 C42 44.29 42 48.58 42 53 C39.1259578 53.50612064 36.25097127 54.00506541 33.375 54.5 C32.56675781 54.64308594 31.75851563 54.78617188 30.92578125 54.93359375 C26.56122136 55.67876251 22.44761871 56.17272306 18 56 C18.08088175 59.10523354 18.1937189 62.20850333 18.3125 65.3125 C18.33505859 66.19357422 18.35761719 67.07464844 18.38085938 67.98242188 C18.4340332 69.25375977 18.4340332 69.25375977 18.48828125 70.55078125 C18.51446533 71.33106689 18.54064941 72.11135254 18.56762695 72.9152832 C19.10630577 75.51256069 19.88605736 76.42836317 22 78 C25.32767147 78.40226005 25.32767147 78.40226005 29 78.25 C30.85625 78.22679687 30.85625 78.22679687 32.75 78.203125 C36.0111471 78.13874802 36.0111471 78.13874802 39 77 C39 82.61 39 88.22 39 94 C30.6466966 98.09141391 20.26882718 98.77147292 11.375 95.8125 C5.56451794 92.69205593 1.36373135 88.21558331 -1 82 C-1.46794571 78.17038353 -1.3802735 74.41308394 -1.25 70.5625 C-1.23195313 69.54478516 -1.21390625 68.52707031 -1.1953125 67.47851562 C-1.14849092 64.98526668 -1.07675813 62.49250692 -1 60 C-6.94 60.495 -6.94 60.495 -13 61 C-13 56.71 -13 52.42 -13 48 C-9.87110801 47.217777 -7.8599909 46.88566682 -4.75 46.9375 C-2.89375 46.9684375 -2.89375 46.9684375 -1 47 C-1 44.69 -1 42.38 -1 40 C-4.96 40.66 -8.92 41.32 -13 42 C-13 37.38 -13 32.76 -13 28 C-9.04 27.34 -5.08 26.68 -1 26 C-0.67 17.42 -0.34 8.84 0 0 Z " fill="#252A27" transform="translate(98,64)"/>
<path d="M0 0 C0.33 0 0.66 0 1 0 C1.06058594 0.73605469 1.12117188 1.47210938 1.18359375 2.23046875 C1.30927734 3.69419922 1.30927734 3.69419922 1.4375 5.1875 C1.51871094 6.15042969 1.59992188 7.11335938 1.68359375 8.10546875 C1.94727553 10.99022429 1.94727553 10.99022429 2.59765625 13.73828125 C3 16 3 16 2 18 C1.7677354 20.71262116 1.58063765 23.40773126 1.4375 26.125 C1.39431641 26.87910156 1.35113281 27.63320312 1.30664062 28.41015625 C1.2005168 30.27321888 1.09974999 32.13658524 1 34 C-0.65 34 -2.3 34 -4 34 C-2.02 33.505 -2.02 33.505 0 33 C0 28.71 0 24.42 0 20 C-1.22976562 20.2165625 -2.45953125 20.433125 -3.7265625 20.65625 C-5.35932991 20.93776162 -6.99214497 21.21899704 -8.625 21.5 C-9.43324219 21.64308594 -10.24148437 21.78617188 -11.07421875 21.93359375 C-15.43877864 22.67876251 -19.55238129 23.17272306 -24 23 C-24 21.02 -24 19.04 -24 17 C-15.84948203 15.134437 -8.38655727 13.87293095 0 14 C0 9.38 0 4.76 0 0 Z " fill="#6AEDB0" transform="translate(140,84)"/>
<path d="M0 0 C0.474375 0.495 0.94875 0.99 1.4375 1.5 C2.75923698 3.11542197 2.75923698 3.11542197 4 3 C4 4.65 4 6.3 4 8 C5.94603274 8.59070014 5.94603274 8.59070014 8 9 C8.33 8.67 8.66 8.34 9 8 C11.18639453 7.92741054 13.37500389 7.91626217 15.5625 7.9375 C17.35880859 7.95103516 17.35880859 7.95103516 19.19140625 7.96484375 C20.11824219 7.97644531 21.04507813 7.98804687 22 8 C22 8.33 22 8.66 22 9 C17.81997165 9.71733942 13.6390645 10.429246 9.45727539 11.13623047 C8.03612587 11.37726778 6.61522278 11.61976289 5.19458008 11.86376953 C3.14728527 12.21514412 1.09914849 12.56118932 -0.94921875 12.90625 C-2.17987061 13.11572266 -3.41052246 13.32519531 -4.6784668 13.54101562 C-7.51596615 13.93311403 -10.14371617 14.0948144 -13 14 C-12.443125 13.5875 -11.88625 13.175 -11.3125 12.75 C-10.549375 12.1725 -9.78625 11.595 -9 11 C-8.175 10.4225 -7.35 9.845 -6.5 9.25 C-3.3795104 6.44155936 -1.9284254 3.71400448 0 0 Z " fill="#5EF4AE" transform="translate(116,75)"/>
<path d="M0 0 C0.33 0 0.66 0 1 0 C1 4.62 1 9.24 1 14 C2.423125 13.67 3.84625 13.34 5.3125 13 C8.0209322 12.37195775 10.20215289 12 13 12 C13 14.31 13 16.62 13 19 C9.04 19.33 5.08 19.66 1 20 C1 24.29 1 28.58 1 33 C3.64 33 6.28 33 9 33 C8.67 33.66 8.34 34.32 8 35 C3.69986566 35.19546065 1.99110319 34.9955516 -2 33 C-1.67 28.05 -1.34 23.1 -1 18 C0.65 18.33 2.3 18.66 4 19 C4 18.34 4 17.68 4 17 C6.31 17 8.62 17 11 17 C11 16.01 11 15.02 11 14 C10.484375 14.165 9.96875 14.33 9.4375 14.5 C6.24804881 15.1542464 3.24614095 15.12249588 0 15 C-1 14 -1 14 -1.1328125 11.09375 C-1.13023438 9.9078125 -1.12765625 8.721875 -1.125 7.5 C-1.12757812 6.3140625 -1.13015625 5.128125 -1.1328125 3.90625 C-1 1 -1 1 0 0 Z " fill="#6BF5B5" transform="translate(84,92)"/>
<path d="M0 0 C0.99 0.495 0.99 0.495 2 1 C1.98839844 2.12019531 1.97679688 3.24039063 1.96484375 4.39453125 C1.95546378 5.86718583 1.9463638 7.33984222 1.9375 8.8125 C1.92912109 9.55048828 1.92074219 10.28847656 1.91210938 11.04882812 C1.89740172 14.29922068 1.96468298 16.89404895 3 20 C8.07041317 20.09526872 13.02440542 20.06928678 18.0625 19.4375 C19.361875 19.293125 20.66125 19.14875 22 19 C23 20 23 20 23.09765625 23.59765625 C23.0909822 25.08596867 23.07902183 26.57426432 23.0625 28.0625 C23.05798828 28.82111328 23.05347656 29.57972656 23.04882812 30.36132812 C23.0370068 32.24091871 23.01907078 34.12046899 23 36 C22.01 36.495 22.01 36.495 21 37 C20.67 31.72 20.34 26.44 20 21 C19.34 21.33 18.68 21.66 18 22 C15.7126402 22.17484831 13.41858557 22.26720049 11.125 22.3125 C9.89007813 22.34988281 8.65515625 22.38726562 7.3828125 22.42578125 C4 22 4 22 1.5703125 20.55859375 C-0.79930055 16.69765706 -0.43003778 13.18169931 -0.25 8.75 C-0.23195313 7.90953125 -0.21390625 7.0690625 -0.1953125 6.203125 C-0.14830798 4.13492605 -0.07656724 2.06731559 0 0 Z " fill="#74E9B2" transform="translate(116,121)"/>
<path d="M0 0 C0 4.29 0 8.58 0 13 C-1.98 13 -3.96 13 -6 13 C-4.68 12.67 -3.36 12.34 -2 12 C-2 9.69 -2 7.38 -2 5 C-3.32 5.33 -4.64 5.66 -6 6 C-6 5.01 -6 4.02 -6 3 C-8.31 3.66 -10.62 4.32 -13 5 C-13.33 4.01 -13.66 3.02 -14 2 C-12.4176994 1.66179834 -10.83410625 1.32964061 -9.25 1 C-8.36828125 0.814375 -7.4865625 0.62875 -6.578125 0.4375 C-4 0 -4 0 0 0 Z " fill="#1C392A" transform="translate(140,104)"/>
<path d="M0 0 C2.31 0 4.62 0 7 0 C7 0.33 7 0.66 7 1 C3.38026598 2.31626692 0.90432869 3 -3 3 C-3 7.29 -3 11.58 -3 16 C-0.36 16 2.28 16 5 16 C4.67 16.66 4.34 17.32 4 18 C-0.30013434 18.19546065 -2.00889681 17.9955516 -6 16 C-5.67 11.05 -5.34 6.1 -5 1 C-3.35 1.33 -1.7 1.66 0 2 C0 1.34 0 0.68 0 0 Z " fill="#6BF2B3" transform="translate(88,109)"/>
<path d="M0 0 C4.875 1.875 4.875 1.875 6 3 C6.07205511 4.68608966 6.08386068 6.37500659 6.0625 8.0625 C6.05347656 8.98160156 6.04445313 9.90070313 6.03515625 10.84765625 C6.02355469 11.55792969 6.01195313 12.26820312 6 13 C5.01 13.495 5.01 13.495 4 14 C4 10.37 4 6.74 4 3 C-2.6 3 -9.2 3 -16 3 C-16 4.98 -16 6.96 -16 9 C-16.33 9 -16.66 9 -17 9 C-17 6.69 -17 4.38 -17 2 C-12.80902039 1.40128863 -8.79808986 0.93872564 -4.5625 1 C-3.386875 1 -2.21125 1 -1 1 C-0.67 0.67 -0.34 0.34 0 0 Z " fill="#6CF3B1" transform="translate(113,60)"/>
<path d="M0 0 C0.99 0.33 1.98 0.66 3 1 C2.34 1 1.68 1 1 1 C1 1.99 1 2.98 1 4 C5.60669598 3.5896604 5.60669598 3.5896604 9.84375 1.9375 C12.81494408 0.64567649 15.05307936 1.02750863 18.25 1.375 C19.32765625 1.48585938 20.4053125 1.59671875 21.515625 1.7109375 C22.33546875 1.80632812 23.1553125 1.90171875 24 2 C20.48157293 4.08304886 17.1503921 4.5796243 13.125 5.125 C11.33449219 5.37636719 11.33449219 5.37636719 9.5078125 5.6328125 C6.30398977 5.96817924 3.2176666 6.06887971 0 6 C0 4.02 0 2.04 0 0 Z " fill="#6DEAB0" transform="translate(116,101)"/>
<path d="M0 0 C-0.33 0.66 -0.66 1.32 -1 2 C-3.82799151 2.6443525 -6.66118149 3.02326331 -9.53125 3.4375 C-10.3459375 3.623125 -11.160625 3.80875 -12 4 C-12.33 4.66 -12.66 5.32 -13 6 C-16.0625 6.625 -16.0625 6.625 -19 7 C-19 6.34 -19 5.68 -19 5 C-18.34 4.67 -17.68 4.34 -17 4 C-17.66 3.34 -18.32 2.68 -19 2 C-12.53205867 0.48766299 -6.64409958 -0.21432579 0 0 Z " fill="#1B3324" transform="translate(123,87)"/>
<path d="M0 0 C1.32 0 2.64 0 4 0 C3.67 1.32 3.34 2.64 3 4 C-1.62 4 -6.24 4 -11 4 C-11.33 3.34 -11.66 2.68 -12 2 C-11.21753906 1.93941406 -10.43507813 1.87882812 -9.62890625 1.81640625 C-8.61699219 1.73261719 -7.60507813 1.64882812 -6.5625 1.5625 C-5.55316406 1.48128906 -4.54382813 1.40007812 -3.50390625 1.31640625 C-1.06359221 1.26788532 -1.06359221 1.26788532 0 0 Z M-19 4 C-16.69 4.33 -14.38 4.66 -12 5 C-12 5.33 -12 5.66 -12 6 C-14.31 6 -16.62 6 -19 6 C-19 5.34 -19 4.68 -19 4 Z " fill="#58FDB0" transform="translate(136,99)"/>
<path d="M0 0 C2.38885397 2.89071404 3.65115162 5.40293895 4.6875 9 C5.06455078 10.2684375 5.06455078 10.2684375 5.44921875 11.5625 C6 14 6 14 6 18 C5.34 18 4.68 18 4 18 C3.34 14.7 2.68 11.4 2 8 C0.35 8.33 -1.3 8.66 -3 9 C-3 7.68 -3 6.36 -3 5 C-2.01 5 -1.02 5 0 5 C0 3.35 0 1.7 0 0 Z " fill="#66ECAD" transform="translate(187,78)"/>
<path d="M0 0 C0.66 0.33 1.32 0.66 2 1 C2 1.99 2 2.98 2 4 C1.25878906 4.09796875 0.51757812 4.1959375 -0.24609375 4.296875 C-6.48386286 5.8894969 -11.33206766 11.95659304 -15 17 C-15.99 16.67 -16.98 16.34 -18 16 C-16.13128235 14.07685369 -14.25547532 12.1615943 -12.375 10.25 C-11.59189453 9.44175781 -11.59189453 9.44175781 -10.79296875 8.6171875 C-7.42897016 5.21165806 -4.07277011 2.51949142 0 0 Z " fill="#6BE7AD" transform="translate(67,43)"/>
<path d="M0 0 C4.29 0 8.58 0 13 0 C13 0.33 13 0.66 13 1 C10.45953542 1.50688605 7.91791124 2.00566874 5.375 2.5 C4.66214844 2.64308594 3.94929687 2.78617187 3.21484375 2.93359375 C-0.92144935 3.73049426 -4.76433679 4.16034056 -9 4 C-9 3.34 -9 2.68 -9 2 C-6.03 2 -3.06 2 0 2 C0 1.34 0 0.68 0 0 Z " fill="#6CE7AD" transform="translate(125,83)"/>
<path d="M0 0 C0.33 0 0.66 0 1 0 C1 5.61 1 11.22 1 17 C-0.32 17.33 -1.64 17.66 -3 18 C-2.67 17.34 -2.34 16.68 -2 16 C-1.73634236 12.77385576 -1.5556966 9.55452624 -1.39453125 6.32226562 C-1.10079169 1.10079169 -1.10079169 1.10079169 0 0 Z " fill="#0D331E" transform="translate(136,141)"/>
<path d="M0 0 C7.48291572 6.15034169 7.48291572 6.15034169 10 10 C7.5625 9.625 7.5625 9.625 5 9 C4.67 8.34 4.34 7.68 4 7 C2.7625 6.505 2.7625 6.505 1.5 6 C-1 5 -1 5 -2 3 C-1.34 2.67 -0.68 2.34 0 2 C0 1.34 0 0.68 0 0 Z " fill="#65EEAF" transform="translate(163,47)"/>
<path d="M0 0 C0.66 0 1.32 0 2 0 C2 2.97 2 5.94 2 9 C2.99 9 3.98 9 5 9 C4.67 11.31 4.34 13.62 4 16 C4.66 16.33 5.32 16.66 6 17 C5.34 17.66 4.68 18.32 4 19 C3.32263519 16.96185767 2.65856466 14.91929445 2 12.875 C1.62875 11.73804688 1.2575 10.60109375 0.875 9.4296875 C0.03088051 6.12104059 -0.16509276 3.39471984 0 0 Z " fill="#67E7AB" transform="translate(31,123)"/>
<path d="M0 0 C1.65 0 3.3 0 5 0 C4.01 0.33 3.02 0.66 2 1 C2 4.63 2 8.26 2 12 C3.32 12.33 4.64 12.66 6 13 C4.02 13.33 2.04 13.66 0 14 C0 9.38 0 4.76 0 0 Z " fill="#17492F" transform="translate(85,92)"/>
<path d="M0 0 C2.31 0 4.62 0 7 0 C7 4.62 7 9.24 7 14 C6.01 13.67 5.02 13.34 4 13 C4.66 13 5.32 13 6 13 C5.93993922 11.54052295 5.8511311 10.08220728 5.75 8.625 C5.70359375 7.81289062 5.6571875 7.00078125 5.609375 6.1640625 C5.21926984 3.82051218 5.21926984 3.82051218 3.015625 2.8359375 C2.01789063 2.42214844 2.01789063 2.42214844 1 2 C0.67 1.34 0.34 0.68 0 0 Z " fill="#29513A" transform="translate(133,84)"/>
<path d="M0 0 C1.98 0 3.96 0 6 0 C4.68 0.33 3.36 0.66 2 1 C2.14095064 2.6254308 2.28792087 4.25034051 2.4375 5.875 C2.55931641 7.23238281 2.55931641 7.23238281 2.68359375 8.6171875 C2.86989285 11.01110861 2.86989285 11.01110861 4 13 C2.68 13 1.36 13 0 13 C0 8.71 0 4.42 0 0 Z " fill="#14472D" transform="translate(85,112)"/>
<path d="M0 0 C0.99 0 1.98 0 3 0 C1.44298069 4.67105792 -1.08447373 8.08705685 -4 12 C-4.33 11.01 -4.66 10.02 -5 9 C-4.34 9 -3.68 9 -3 9 C-3.33 7.68 -3.66 6.36 -4 5 C-3.34 5 -2.68 5 -2 5 C-1.34 3.35 -0.68 1.7 0 0 Z " fill="#63E9AC" transform="translate(182,151)"/>
<path d="M0 0 C0.33 0.66 0.66 1.32 1 2 C0.00390625 4.6015625 0.00390625 4.6015625 -1.4375 7.625 C-1.91058594 8.62789062 -2.38367188 9.63078125 -2.87109375 10.6640625 C-3.24363281 11.43492187 -3.61617187 12.20578125 -4 13 C-6.078125 9.3125 -6.078125 9.3125 -5.375 6.5 C-3.90267535 3.82304608 -2.26210216 2.03589195 0 0 Z " fill="#68ECAE" transform="translate(190,138)"/>
<path d="M0 0 C-0.639375 0.28875 -1.27875 0.5775 -1.9375 0.875 C-4.15206079 1.82823451 -4.15206079 1.82823451 -5 4 C-7.31 3.67 -9.62 3.34 -12 3 C-11.67 2.01 -11.34 1.02 -11 0 C-3.57142857 -1.28571429 -3.57142857 -1.28571429 0 0 Z " fill="#60E1A0" transform="translate(129,100)"/>
<path d="M0 0 C0 2.31 0 4.62 0 7 C-2.31 7 -4.62 7 -7 7 C-7 6.67 -7 6.34 -7 6 C-5.35 6 -3.7 6 -2 6 C-2 4.68 -2 3.36 -2 2 C-4.64 2 -7.28 2 -10 2 C-10 1.67 -10 1.34 -10 1 C-3.375 0 -3.375 0 0 0 Z " fill="#71CDA2" transform="translate(97,104)"/>
<path d="M0 0 C1.70884005 1.62339805 3.37446717 3.29319053 5 5 C5 5.66 5 6.32 5 7 C7.475 7.99 7.475 7.99 10 9 C8.68 9.33 7.36 9.66 6 10 C6 9.34 6 8.68 6 8 C4.68 8 3.36 8 2 8 C2 6.68 2 5.36 2 4 C1.34 4 0.68 4 0 4 C0 2.68 0 1.36 0 0 Z " fill="#68DEA7" transform="translate(98,149)"/>
<path d="M0 0 C-0.33 0.99 -0.66 1.98 -1 3 C-5.95 2.67 -10.9 2.34 -16 2 C-16 1.67 -16 1.34 -16 1 C-13.89594609 0.83191581 -11.79175242 0.66558052 -9.6875 0.5 C-8.51574219 0.4071875 -7.34398438 0.314375 -6.13671875 0.21875 C-4.094806 0.07635011 -2.0468721 0 0 0 Z " fill="#63CC97" transform="translate(132,160)"/>
<path d="M0 0 C1 2 1 2 0 6 C-4.455 6.495 -4.455 6.495 -9 7 C-8.1646875 6.38125 -8.1646875 6.38125 -7.3125 5.75 C-4.83804044 3.87743601 -2.4164771 1.94660656 0 0 Z " fill="#74E1B1" transform="translate(112,82)"/>
<path d="M0 0 C2.0625 0.4375 2.0625 0.4375 4 1 C2.02 1.99 2.02 1.99 0 3 C0 5.31 0 7.62 0 10 C-0.66 10 -1.32 10 -2 10 C-1.85950482 8.52031676 -1.71245174 7.04125484 -1.5625 5.5625 C-1.48128906 4.73878906 -1.40007813 3.91507812 -1.31640625 3.06640625 C-1 1 -1 1 0 0 Z " fill="#63EEAC" transform="translate(33,91)"/>
<path d="M0 0 C0.66 1.32 1.32 2.64 2 4 C0.35 5.32 -1.3 6.64 -3 8 C-3.33 7.34 -3.66 6.68 -4 6 C-2.68 4.02 -1.36 2.04 0 0 Z " fill="#65EBAB" transform="translate(45,64)"/>
<path d="M0 0 C0.33 1.32 0.66 2.64 1 4 C-1.64 3.67 -4.28 3.34 -7 3 C-7 2.34 -7 1.68 -7 1 C-3.535 0.505 -3.535 0.505 0 0 Z " fill="#162F20" transform="translate(97,90)"/>
</svg>
