<?xml version="1.0" standalone="no"?>
<!DOCTYPE svg PUBLIC "-//W3C//DTD SVG 20010904//EN"
 "http://www.w3.org/TR/2001/REC-SVG-20010904/DTD/svg10.dtd">
<svg version="1.0" xmlns="http://www.w3.org/2000/svg"
 width="400.000000pt" height="400.000000pt" viewBox="0 0 400.000000 400.000000"
 preserveAspectRatio="xMidYMid meet">

<g transform="translate(0.000000,400.000000) scale(0.100000,-0.100000)"
fill="#000000" stroke="none">
<path d="M1860 3679 c-124 -7 -171 -16 -182 -33 -4 -6 -33 -10 -65 -9 -32 0
-62 -3 -68 -6 -9 -7 -102 -34 -305 -90 -41 -12 -85 -21 -97 -21 -12 0 -23 -3
-25 -7 -6 -14 -67 -53 -83 -53 -8 0 -15 -4 -15 -10 0 -5 -10 -10 -23 -10 -22
0 -106 -35 -117 -49 -10 -12 -50 -31 -65 -31 -8 0 -15 -4 -15 -10 0 -5 -6 -10
-13 -10 -8 0 -22 -9 -32 -20 -10 -11 -26 -20 -37 -20 -10 0 -18 -4 -18 -10 0
-5 -13 -10 -30 -10 -23 0 -30 -4 -30 -20 0 -12 -10 -25 -25 -32 -13 -6 -27
-19 -30 -28 -3 -9 -33 -28 -66 -41 -41 -16 -64 -31 -70 -46 -5 -13 -16 -23
-24 -23 -9 0 -22 -6 -29 -12 -8 -7 -24 -20 -36 -28 -62 -41 -236 -213 -245
-241 -4 -10 -11 -19 -16 -19 -5 0 -19 -11 -31 -25 -12 -14 -28 -25 -35 -25
-17 0 -17 -17 -1 -22 8 -3 4 -9 -10 -17 l-22 -12 0 -1344 0 -1345 2000 0 2000
0 0 1355 c0 1198 -2 1355 -15 1355 -8 0 -15 7 -15 16 0 9 -16 32 -35 51 -19
19 -48 52 -65 73 -42 53 -100 110 -112 110 -5 0 -27 18 -48 40 -21 22 -46 40
-54 40 -9 0 -16 4 -16 9 0 11 -115 101 -130 101 -6 0 -22 11 -36 25 -14 14
-31 22 -37 19 -7 -4 -9 -4 -5 0 9 11 -71 86 -93 86 -10 0 -20 4 -23 9 -8 12
-84 51 -100 51 -7 0 -30 11 -50 25 -21 14 -41 23 -46 20 -5 -3 -15 4 -22 14
-16 23 -58 41 -94 41 -13 0 -24 5 -24 10 0 6 -8 10 -18 10 -11 0 -27 9 -38 21
-12 14 -25 18 -41 14 -15 -3 -23 -1 -23 7 0 17 -61 39 -122 45 -27 3 -48 9
-48 13 0 16 -161 60 -216 60 -20 0 -50 6 -67 14 -82 36 -333 57 -547 45z
m-251 -458 c304 -127 397 -164 406 -164 6 0 126 49 268 108 150 63 262 104
266 99 5 -5 55 -121 111 -259 55 -137 107 -255 113 -262 7 -6 73 -36 147 -67
223 -91 346 -143 363 -152 13 -8 -2 -49 -95 -264 -60 -140 -113 -258 -116
-262 -10 -10 -522 202 -522 215 0 9 72 187 197 485 14 33 14 34 -9 26 -13 -4
-130 -51 -261 -105 -131 -55 -239 -99 -241 -99 -2 0 -52 117 -111 260 -60 143
-111 260 -114 260 -3 0 -44 -94 -90 -208 -47 -114 -95 -230 -107 -259 l-23
-52 -173 71 c-95 39 -213 87 -263 107 -49 21 -90 41 -90 47 0 20 210 524 218
524 5 0 61 -22 126 -49z m-236 -754 c91 -224 103 -259 88 -266 -9 -5 -124 -53
-256 -106 -132 -54 -243 -101 -247 -104 -4 -3 95 -48 220 -99 125 -51 243
-101 264 -110 l36 -17 -103 -250 c-57 -137 -107 -256 -112 -264 -7 -11 -62 8
-268 93 -142 59 -261 108 -263 111 -3 3 19 62 48 132 29 71 77 186 106 257 30
71 54 135 54 143 0 8 -25 76 -56 151 -32 76 -79 190 -106 256 -27 65 -45 123
-41 127 19 19 517 219 524 211 4 -4 54 -123 112 -265z m1729 -549 c14 -35 63
-152 108 -261 67 -158 81 -200 70 -207 -43 -27 -513 -211 -519 -204 -4 5 -54
123 -112 263 -86 211 -101 256 -89 263 28 18 485 207 501 207 10 1 24 -21 41
-61z m-1300 -475 c3 -10 51 -130 108 -266 l103 -248 104 253 c58 139 108 257
112 261 6 6 515 -194 529 -208 2 -2 -46 -122 -105 -268 l-109 -265 -54 23
c-30 12 -147 61 -259 109 -113 47 -210 86 -218 86 -7 0 -128 -48 -268 -107
-152 -63 -259 -102 -265 -97 -11 12 -220 518 -215 522 4 5 517 219 526 221 4
1 9 -7 11 -16z"/>
</g>
</svg>
